<svg width="220" height="301" viewBox="0 0 220 301" fill="none" xmlns="http://www.w3.org/2000/svg">
<mask id="path-1-inside-1_5_3835" fill="white">
<path fill-rule="evenodd" clip-rule="evenodd" d="M110 15.4545L94.5864 0H10C4.47715 0 0 4.47716 0 10V290C0 295.523 4.47716 300 10 300H104.692L110 293.636L115.308 300H210C215.523 300 220 295.523 220 290V10C220 4.47715 215.523 0 210 0H125.413L110 15.4545Z"/>
</mask>
<path fill-rule="evenodd" clip-rule="evenodd" d="M110 15.4545L94.5864 0H10C4.47715 0 0 4.47716 0 10V290C0 295.523 4.47716 300 10 300H104.692L110 293.636L115.308 300H210C215.523 300 220 295.523 220 290V10C220 4.47715 215.523 0 210 0H125.413L110 15.4545Z" fill="white"/>
<path d="M94.5864 0L95.2944 -0.706166L95.0014 -1H94.5864V0ZM110 15.4545L109.292 16.1607L110 16.8706L110.708 16.1607L110 15.4545ZM104.692 300V301H105.16L105.46 300.641L104.692 300ZM110 293.636L110.768 292.996L110 292.075L109.232 292.996L110 293.636ZM115.308 300L114.54 300.641L114.84 301H115.308V300ZM125.413 0V-1H124.998L124.705 -0.706166L125.413 0ZM93.8783 0.706166L109.292 16.1607L110.708 14.7484L95.2944 -0.706166L93.8783 0.706166ZM10 1H94.5864V-1H10V1ZM1 10C1 5.02944 5.02944 1 10 1V-1C3.92487 -1 -1 3.92488 -1 10H1ZM1 290V10H-1V290H1ZM10 299C5.02944 299 1 294.971 1 290H-1C-1 296.075 3.92487 301 10 301V299ZM104.692 299H10V301H104.692V299ZM105.46 300.641L110.768 294.277L109.232 292.996L103.924 299.359L105.46 300.641ZM109.232 294.277L114.54 300.641L116.076 299.359L110.768 292.996L109.232 294.277ZM210 299H115.308V301H210V299ZM219 290C219 294.971 214.971 299 210 299V301C216.075 301 221 296.075 221 290H219ZM219 10V290H221V10H219ZM210 1C214.971 1 219 5.02944 219 10H221C221 3.92487 216.075 -1 210 -1V1ZM125.413 1H210V-1H125.413V1ZM110.708 16.1607L126.121 0.706166L124.705 -0.706166L109.292 14.7484L110.708 16.1607Z" fill="#F0F0F0" mask="url(#path-1-inside-1_5_3835)"/>
<path d="M103.433 288.364H220V290.364C220 295.886 215.523 300.364 210 300.364H114.925L103.433 288.364Z" fill="#FFD31A" fill-opacity="0.6"/>
<path d="M0 288.364H116.567L105.075 300.364H9.99999C4.47714 300.364 0 295.886 0 290.364V288.364Z" fill="#FFD31A"/>
<path d="M124.776 0H210C215.523 0 220 4.47715 220 10V25H92.7612L124.776 0Z" fill="#FFD31A"/>
<path d="M0 10C0 4.47715 4.47715 0 10 0H95.2239L127.239 25H0V10Z" fill="#FFD31A" fill-opacity="0.6"/>
</svg>
