<svg width="268" height="330" viewBox="0 0 268 330" fill="none" xmlns="http://www.w3.org/2000/svg">
<mask id="path-1-inside-1_137_77" fill="white">
<path fill-rule="evenodd" clip-rule="evenodd" d="M134 17L115.224 0H10C4.47715 0 0 4.47714 0 9.99999V320C0 325.523 4.47716 330 10 330H127.534L134 323L140.466 330H258C263.523 330 268 325.523 268 320V10C268 4.47715 263.523 0 258 0H152.776L134 17Z"/>
</mask>
<path fill-rule="evenodd" clip-rule="evenodd" d="M134 17L115.224 0H10C4.47715 0 0 4.47714 0 9.99999V320C0 325.523 4.47716 330 10 330H127.534L134 323L140.466 330H258C263.523 330 268 325.523 268 320V10C268 4.47715 263.523 0 258 0H152.776L134 17Z" fill="white"/>
<path d="M115.224 0L115.895 -0.741304L115.609 -1H115.224V0ZM134 17L133.329 17.7413L134 18.349L134.671 17.7413L134 17ZM127.534 330V331H127.971L128.268 330.679L127.534 330ZM134 323L134.735 322.321L134 321.526L133.265 322.321L134 323ZM140.466 330L139.732 330.679L140.029 331H140.466V330ZM152.776 0V-1H152.391L152.105 -0.741304L152.776 0ZM114.552 0.741304L133.329 17.7413L134.671 16.2587L115.895 -0.741304L114.552 0.741304ZM10 1H115.224V-1H10V1ZM1 9.99999C1 5.02943 5.02944 1 10 1V-1C3.92487 -1 -1 3.92486 -1 9.99999H1ZM1 320V9.99999H-1V320H1ZM10 329C5.02944 329 1 324.971 1 320H-1C-1 326.075 3.92488 331 10 331V329ZM127.534 329H10V331H127.534V329ZM128.268 330.679L134.735 323.679L133.265 322.321L126.799 329.321L128.268 330.679ZM133.265 323.679L139.732 330.679L141.201 329.321L134.735 322.321L133.265 323.679ZM258 329H140.466V331H258V329ZM267 320C267 324.971 262.971 329 258 329V331C264.075 331 269 326.075 269 320H267ZM267 10V320H269V10H267ZM258 1C262.971 1 267 5.02944 267 10H269C269 3.92487 264.075 -1 258 -1V1ZM152.776 1H258V-1H152.776V1ZM134.671 17.7413L153.448 0.741304L152.105 -0.741304L133.329 16.2587L134.671 17.7413Z" fill="#F0F0F0" mask="url(#path-1-inside-1_137_77)"/>
<path d="M126 315H268V320C268 325.523 263.523 330 258 330H140L126 315Z" fill="#FFD31A" fill-opacity="0.6"/>
<path d="M0 315H142L128 330H10C4.47715 330 0 325.523 0 320V315Z" fill="#FFD31A"/>
<path d="M152 0H258C263.523 0 268 4.47715 268 10V35H113L152 0Z" fill="#FFD31A"/>
<path d="M0 10C0 4.47715 4.47715 0 10 0H116L155 35H0V10Z" fill="#FFD31A" fill-opacity="0.6"/>
</svg>
