<svg width="250" height="213" viewBox="0 0 250 213" fill="none" xmlns="http://www.w3.org/2000/svg">
<mask id="path-1-inside-1_5_7002" fill="white">
<path fill-rule="evenodd" clip-rule="evenodd" d="M25 103L225 103L250 58L0 58L25 103ZM96 85H154L158 80H92L96 85Z"/>
</mask>
<path fill-rule="evenodd" clip-rule="evenodd" d="M25 103L225 103L250 58L0 58L25 103ZM96 85H154L158 80H92L96 85Z" fill="#DBB17C"/>
<path d="M225 103V104H225.588L225.874 103.486L225 103ZM25 103L24.1258 103.486L24.4116 104H25V103ZM250 58L250.874 58.4856L251.7 57H250V58ZM0 58V57H-1.69951L-0.874161 58.4856L0 58ZM154 85V86H154.481L154.781 85.6247L154 85ZM96 85L95.2191 85.6247L95.5194 86H96V85ZM158 80L158.781 80.6247L160.081 79H158V80ZM92 80V79L89.9194 79L91.2191 80.6247L92 80ZM225 102L25 102V104L225 104V102ZM249.126 57.5144L224.126 102.514L225.874 103.486L250.874 58.4856L249.126 57.5144ZM0 59L250 59V57L0 57V59ZM25.8742 102.514L0.874161 57.5144L-0.874161 58.4856L24.1258 103.486L25.8742 102.514ZM154 84H96V86H154V84ZM157.219 79.3753L153.219 84.3753L154.781 85.6247L158.781 80.6247L157.219 79.3753ZM92 81H158V79H92V81ZM96.7809 84.3753L92.7809 79.3753L91.2191 80.6247L95.2191 85.6247L96.7809 84.3753Z" fill="black" mask="url(#path-1-inside-1_5_7002)"/>
<rect x="0.5" y="58.5" width="249" height="11" fill="#DBB17C" stroke="black"/>
<rect x="147" width="96" height="44" transform="rotate(90 147 0)" fill="#001630"/>
<path d="M123.968 25.548C122.752 25.548 121.848 25.208 121.256 24.528C120.664 23.848 120.368 22.904 120.368 21.696V18.768L130.064 18.768V21.696C130.064 22.92 129.744 23.868 129.104 24.54C128.464 25.212 127.524 25.548 126.284 25.548H123.968ZM121.16 19.608V21.684C121.16 22.06 121.204 22.428 121.292 22.788C121.38 23.148 121.536 23.468 121.76 23.748C121.976 24.036 122.272 24.268 122.648 24.444C123.032 24.62 123.516 24.708 124.1 24.708H126.416C126.816 24.708 127.188 24.644 127.532 24.516C127.884 24.396 128.188 24.22 128.444 23.988C128.7 23.756 128.9 23.472 129.044 23.136C129.196 22.8 129.272 22.42 129.272 21.996V19.608L121.16 19.608ZM120.368 25.8572L130.064 29.0012V30.8132L120.368 33.9572V33.0092L122.588 32.3132V27.5132L120.368 26.8052V25.8572ZM129.272 29.6492L123.38 27.7652V32.0732L129.272 30.2492V29.6492ZM129.272 36.2829V33.3309H130.064V40.1109H129.272V37.1469H120.368V36.2829H129.272ZM130.064 46.9025H129.272V41.8385H125.672V46.4105H124.88V41.8385H121.148V47.0345H120.368V40.9985H130.064V46.9025ZM129.272 53.7439V50.7919H130.064V57.5719H129.272V54.6079H120.368V53.7439H129.272ZM120.368 58.2749H121.148V59.6549H129.272V58.2749H130.064V61.9109H129.272V60.5189H121.148L121.148 61.9109H120.368L120.368 58.2749ZM123.236 69.8017C122.164 69.7617 121.368 69.4457 120.848 68.8537C120.32 68.2697 120.056 67.4177 120.056 66.2977C120.056 65.0817 120.38 64.1817 121.028 63.5977C121.668 63.0217 122.632 62.7337 123.92 62.7337H126.512C127.152 62.7337 127.712 62.8177 128.192 62.9857C128.672 63.1617 129.072 63.4097 129.392 63.7297C129.72 64.0497 129.964 64.4377 130.124 64.8937C130.292 65.3497 130.376 65.8657 130.376 66.4417C130.376 67.4897 130.1 68.2937 129.548 68.8537C129.004 69.4217 128.24 69.7377 127.256 69.8017V68.9617C127.52 68.9137 127.788 68.8497 128.06 68.7697C128.332 68.6897 128.58 68.5617 128.804 68.3857C129.036 68.2097 129.224 67.9657 129.368 67.6537C129.512 67.3497 129.584 66.9457 129.584 66.4417C129.584 65.5297 129.332 64.8217 128.828 64.3177C128.324 63.8217 127.624 63.5737 126.728 63.5737H123.656C122.776 63.5737 122.088 63.8017 121.592 64.2577C121.096 64.7217 120.848 65.4017 120.848 66.2977C120.848 66.8017 120.912 67.2177 121.04 67.5457C121.16 67.8817 121.328 68.1497 121.544 68.3497C121.76 68.5497 122.012 68.6937 122.3 68.7817C122.588 68.8777 122.9 68.9377 123.236 68.9617V69.8017ZM124.292 72.0143H120.368V71.1743H130.064V72.0143H125.528L130.064 76.7303V77.8703L125.984 73.7303L120.368 78.0023V76.9103L125.372 73.1063L124.292 72.0143ZM130.064 84.8712H129.272V79.8072H125.672V84.3792H124.88V79.8072H121.148V85.0032H120.368V78.9672H130.064V84.8712ZM129.272 88.5954V85.6434H130.064V92.4234H129.272V89.4594H120.368V88.5954H129.272Z" fill="#DBB17C"/>
<mask id="path-6-inside-2_5_7002" fill="white">
<path d="M0 93H250V213H0V93Z"/>
</mask>
<path d="M0 93H250V213H0V93Z" fill="#DBB17C"/>
<path d="M0 93V92H-1V93H0ZM250 93H251V92H250V93ZM250 213V214H251V213H250ZM0 213H-1V214H0V213ZM0 94H250V92H0V94ZM249 93V213H251V93H249ZM250 212H0V214H250V212ZM1 213V93H-1V213H1Z" fill="black" mask="url(#path-6-inside-2_5_7002)"/>
</svg>
