<svg width="250" height="213" viewBox="0 0 250 213" fill="none" xmlns="http://www.w3.org/2000/svg">
<mask id="path-1-inside-1_5_6993" fill="white">
<path d="M0 93H250V213H0V93Z"/>
</mask>
<path d="M0 93H250V213H0V93Z" fill="#DBB17C"/>
<path d="M250 213V214H251V213H250ZM0 213H-1V214H0V213ZM249 93V213H251V93H249ZM250 212H0V214H250V212ZM1 213V93H-1V213H1Z" fill="black" mask="url(#path-1-inside-1_5_6993)"/>
<mask id="path-3-inside-2_5_6993" fill="white">
<path fill-rule="evenodd" clip-rule="evenodd" d="M225 58H25L0 93H250L225 58ZM155 72H95L92 78H158L155 72Z"/>
</mask>
<path fill-rule="evenodd" clip-rule="evenodd" d="M225 58H25L0 93H250L225 58ZM155 72H95L92 78H158L155 72Z" fill="#DBB17C"/>
<path d="M25 58V57H24.4854L24.1863 57.4188L25 58ZM225 58L225.814 57.4188L225.515 57H225V58ZM0 93L-0.813733 92.4188L-1.94319 94H0V93ZM250 93V94H251.943L250.814 92.4188L250 93ZM95 72V71H94.382L94.1056 71.5528L95 72ZM155 72L155.894 71.5528L155.618 71H155V72ZM92 78L91.1056 77.5528L90.382 79H92V78ZM158 78V79H159.618L158.894 77.5528L158 78ZM25 59H225V57H25V59ZM0.813733 93.5812L25.8137 58.5812L24.1863 57.4188L-0.813733 92.4188L0.813733 93.5812ZM250 92H0V94H250V92ZM224.186 58.5812L249.186 93.5812L250.814 92.4188L225.814 57.4188L224.186 58.5812ZM95 73H155V71H95V73ZM92.8944 78.4472L95.8944 72.4472L94.1056 71.5528L91.1056 77.5528L92.8944 78.4472ZM158 77H92V79H158V77ZM154.106 72.4472L157.106 78.4472L158.894 77.5528L155.894 71.5528L154.106 72.4472Z" fill="black" mask="url(#path-3-inside-2_5_6993)"/>
<rect x="103" width="44" height="78" fill="#001630"/>
<path d="M120.728 74.928V77.88H119.936V71.1H120.728V74.064H129.632V74.928H120.728ZM119.936 64.3085H120.728V69.3725H124.328V64.8005H125.12V69.3725H128.852V64.1765H129.632V70.2125H119.936V64.3085ZM120.728 57.4671V60.4191H119.936V53.6391H120.728V56.6031H129.632V57.4671H120.728ZM129.632 52.936H128.852V51.556H120.728V52.936H119.936V49.3H120.728V50.692H128.852V49.3H129.632V52.936ZM126.764 41.4093C127.836 41.4493 128.632 41.7653 129.152 42.3573C129.68 42.9413 129.944 43.7933 129.944 44.9133C129.944 46.1293 129.62 47.0293 128.972 47.6133C128.332 48.1893 127.368 48.4773 126.08 48.4773H123.488C122.848 48.4773 122.288 48.3933 121.808 48.2253C121.328 48.0493 120.928 47.8013 120.608 47.4813C120.28 47.1613 120.036 46.7733 119.876 46.3173C119.708 45.8613 119.624 45.3453 119.624 44.7693C119.624 43.7213 119.9 42.9173 120.452 42.3573C120.996 41.7893 121.76 41.4733 122.744 41.4093V42.2493C122.48 42.2973 122.212 42.3613 121.94 42.4413C121.668 42.5213 121.42 42.6493 121.196 42.8253C120.964 43.0013 120.776 43.2453 120.632 43.5573C120.488 43.8613 120.416 44.2653 120.416 44.7693C120.416 45.6813 120.668 46.3893 121.172 46.8933C121.676 47.3893 122.376 47.6373 123.272 47.6373H126.344C127.224 47.6373 127.912 47.4093 128.408 46.9533C128.904 46.4893 129.152 45.8093 129.152 44.9133C129.152 44.4093 129.088 43.9933 128.96 43.6653C128.84 43.3293 128.672 43.0613 128.456 42.8613C128.24 42.6613 127.988 42.5173 127.7 42.4293C127.412 42.3333 127.1 42.2733 126.764 42.2493V41.4093ZM125.708 39.1967H129.632V40.0367H119.936V39.1967H124.472L119.936 34.4807V33.3407L124.016 37.4807L129.632 33.2087V34.3007L124.628 38.1047L125.708 39.1967ZM119.936 26.3397H120.728V31.4037H124.328V26.8317H125.12V31.4037H128.852V26.2077H129.632V32.2437H119.936V26.3397ZM120.728 22.6155V25.5675H119.936V18.7875H120.728V21.7515H129.632V22.6155H120.728Z" fill="#DBB17C"/>
</svg>
