<svg width="280" height="360" viewBox="0 0 280 360" fill="none" xmlns="http://www.w3.org/2000/svg">
<mask id="path-1-inside-1_358_11190" fill="white">
<path d="M0 10C0 4.47716 4.47715 0 10 0H270C275.523 0 280 4.47715 280 10V350C280 355.523 275.523 360 270 360H10C4.47715 360 0 355.523 0 350V10Z"/>
</mask>
<path d="M0 0H280H0ZM280 360H0H280ZM10 360C3.92487 360 -1 355.075 -1 349V11C-1 4.92487 3.92487 0 10 0C5.02944 0 1 4.47715 1 10V350C1 355.523 5.02944 360 10 360ZM270 0C276.075 0 281 4.92487 281 11V349C281 355.075 276.075 360 270 360C274.971 360 279 355.523 279 350V10C279 4.47715 274.971 0 270 0Z" fill="#001630" mask="url(#path-1-inside-1_358_11190)"/>
<path d="M0 10C0 4.47715 4.47715 0 10 0H130L150 18H0V10Z" fill="#001630" fill-opacity="0.7"/>
<path d="M150 0H270C275.523 0 280 4.47715 280 10V18H130L150 0Z" fill="#001630"/>
<path d="M0 350H146L134 360H10C4.47715 360 0 355.523 0 350V350Z" fill="#001630"/>
<path d="M134 350H280V350C280 355.523 275.523 360 270 360H146L134 350Z" fill="#001630" fill-opacity="0.7"/>
<line x1="128" y1="90.5" x2="153" y2="90.5" stroke="#D5D5D5"/>
<line x1="128" y1="264.5" x2="153" y2="264.5" stroke="#D5D5D5"/>
</svg>
