<svg width="340" height="160" viewBox="0 0 340 160" fill="none" xmlns="http://www.w3.org/2000/svg">
<path fill-rule="evenodd" clip-rule="evenodd" d="M269 0C269 3.31371 266.314 6 263 6C259.686 6 257 3.31371 257 0H15C6.71573 0 0 6.71573 0 15V145C0 153.284 6.71572 160 15 160H257C257 156.686 259.686 154 263 154C266.314 154 269 156.686 269 160H325C333.284 160 340 153.284 340 145V15C340 6.71573 333.284 0 325 0H269ZM262.727 9.23077V15.3846H263.427V9.23077H262.727ZM262.727 21.5385V27.6923H263.427V21.5385H262.727ZM262.727 33.8462V40H263.427V33.8462H262.727ZM262.727 46.1538V52.3077H263.427V46.1538H262.727ZM262.727 58.4615V64.6154H263.427V58.4615H262.727ZM262.727 70.7692V76.9231H263.427V70.7692H262.727ZM262.727 83.0769V89.2308H263.427V83.0769H262.727ZM262.727 95.3846V101.538H263.427V95.3846H262.727ZM262.727 107.692V113.846H263.427V107.692H262.727ZM262.727 120V126.154H263.427V120H262.727ZM262.727 132.308V138.462H263.427V132.308H262.727ZM262.727 144.615V150.769H263.427V144.615H262.727Z" fill="#001630"/>
<line x1="290" y1="16.9543" x2="327" y2="16.9543" stroke="#88714E"/>
<line x1="290" y1="137.5" x2="327" y2="137.5" stroke="#88714E"/>
<line x1="290" y1="138.75" x2="327" y2="138.75" stroke="#88714E" stroke-width="0.5"/>
<line x1="290" y1="85.5" x2="327" y2="85.5" stroke="#88714E"/>
<line x1="290" y1="86.75" x2="327" y2="86.75" stroke="#88714E" stroke-width="0.5"/>
<line x1="290" y1="70.5" x2="327" y2="70.5" stroke="#88714E"/>
<line x1="290" y1="71.75" x2="327" y2="71.75" stroke="#88714E" stroke-width="0.5"/>
<line x1="290" y1="128.5" x2="327" y2="128.5" stroke="#88714E"/>
<line x1="290" y1="135.5" x2="327" y2="135.5" stroke="#88714E"/>
<line x1="290" y1="104.5" x2="327" y2="104.5" stroke="#88714E"/>
<line x1="290" y1="106.5" x2="327" y2="106.5" stroke="#88714E"/>
<line x1="290" y1="80.5" x2="327" y2="80.5" stroke="#88714E"/>
<line x1="290" y1="82.5" x2="327" y2="82.5" stroke="#88714E"/>
<line x1="290" y1="55.5" x2="327" y2="55.5" stroke="#88714E"/>
<line x1="290" y1="57.5" x2="327" y2="57.5" stroke="#88714E"/>
<line x1="290" y1="30.5" x2="327" y2="30.5" stroke="#88714E"/>
<line x1="290" y1="32.5" x2="327" y2="32.5" stroke="#88714E"/>
<line x1="290" y1="141.295" x2="327" y2="141.295" stroke="#88714E" stroke-width="2.5"/>
<line x1="290" y1="87.5" x2="327" y2="87.5" stroke="#88714E"/>
<line x1="290" y1="88.75" x2="327" y2="88.75" stroke="#88714E" stroke-width="0.5"/>
<line x1="290" y1="91.2954" x2="327" y2="91.2954" stroke="#88714E" stroke-width="2.5"/>
<line x1="290" y1="101.75" x2="327" y2="101.75" stroke="#88714E" stroke-width="2.5"/>
<line x1="290" y1="121.75" x2="327" y2="121.75" stroke="#88714E" stroke-width="2.5"/>
<line x1="290" y1="59.5" x2="327" y2="59.5" stroke="#88714E"/>
<line x1="290" y1="60.75" x2="327" y2="60.75" stroke="#88714E" stroke-width="0.5"/>
<line x1="290" y1="63.2954" x2="327" y2="63.2954" stroke="#88714E" stroke-width="2.5"/>
<line x1="290" y1="75.75" x2="327" y2="75.75" stroke="#88714E" stroke-width="2.5"/>
<line x1="290" y1="38.75" x2="327" y2="38.75" stroke="#88714E" stroke-width="0.5"/>
<line x1="290" y1="41.75" x2="327" y2="41.75" stroke="#88714E" stroke-width="2.5"/>
<line x1="290" y1="27.9546" x2="327" y2="27.9546" stroke="#88714E"/>
<line x1="290" y1="29.2046" x2="327" y2="29.2046" stroke="#88714E" stroke-width="0.5"/>
<line x1="290" y1="35.0454" x2="327" y2="35.0454" stroke="#88714E"/>
<line x1="290" y1="37.0454" x2="327" y2="37.0454" stroke="#88714E"/>
<line x1="290" y1="33.75" x2="327" y2="33.75" stroke="#88714E" stroke-width="0.5"/>
<line x1="290" y1="125.045" x2="327" y2="125.045" stroke="#88714E"/>
<line x1="290" y1="127.045" x2="327" y2="127.045" stroke="#88714E"/>
<line x1="290" y1="133.75" x2="327" y2="133.75" stroke="#88714E" stroke-width="0.5"/>
<line x1="290" y1="109.045" x2="327" y2="109.045" stroke="#88714E"/>
<line x1="290" y1="111.045" x2="327" y2="111.045" stroke="#88714E"/>
<line x1="290" y1="107.75" x2="327" y2="107.75" stroke="#88714E" stroke-width="0.5"/>
<line x1="290" y1="132.045" x2="327" y2="132.045" stroke="#88714E"/>
<line x1="290" y1="117.75" x2="327" y2="117.75" stroke="#88714E" stroke-width="0.5"/>
<line x1="290" y1="130.75" x2="327" y2="130.75" stroke="#88714E" stroke-width="0.5"/>
<line x1="290" y1="112.75" x2="327" y2="112.75" stroke="#88714E" stroke-width="0.5"/>
<line x1="290" y1="113.75" x2="327" y2="113.75" stroke="#88714E" stroke-width="0.5"/>
<line x1="290" y1="116.75" x2="327" y2="116.75" stroke="#88714E" stroke-width="0.5"/>
<line x1="290" y1="123.75" x2="327" y2="123.75" stroke="#88714E" stroke-width="0.5"/>
<line x1="290" y1="95.0454" x2="327" y2="95.0454" stroke="#88714E"/>
<line x1="290" y1="93.75" x2="327" y2="93.75" stroke="#88714E" stroke-width="0.5"/>
<line x1="290" y1="97.75" x2="327" y2="97.75" stroke="#88714E" stroke-width="0.5"/>
<line x1="290" y1="98.75" x2="327" y2="98.75" stroke="#88714E" stroke-width="0.5"/>
<line x1="290" y1="99.75" x2="327" y2="99.75" stroke="#88714E" stroke-width="0.5"/>
<line x1="290" y1="79.0454" x2="327" y2="79.0454" stroke="#88714E"/>
<line x1="290" y1="77.75" x2="327" y2="77.75" stroke="#88714E" stroke-width="0.5"/>
<line x1="290" y1="67.0454" x2="327" y2="67.0454" stroke="#88714E"/>
<line x1="290" y1="69.0454" x2="327" y2="69.0454" stroke="#88714E"/>
<line x1="290" y1="65.75" x2="327" y2="65.75" stroke="#88714E" stroke-width="0.5"/>
<line x1="290" y1="45.0454" x2="327" y2="45.0454" stroke="#88714E"/>
<line x1="290" y1="47.0454" x2="327" y2="47.0454" stroke="#88714E"/>
<line x1="290" y1="43.75" x2="327" y2="43.75" stroke="#88714E" stroke-width="0.5"/>
<line x1="290" y1="49.75" x2="327" y2="49.75" stroke="#88714E" stroke-width="0.5"/>
<line x1="290" y1="50.75" x2="327" y2="50.75" stroke="#88714E" stroke-width="0.5"/>
<line x1="290" y1="51.75" x2="327" y2="51.75" stroke="#88714E" stroke-width="0.5"/>
<line x1="290" y1="53.75" x2="327" y2="53.75" stroke="#88714E" stroke-width="0.5"/>
<line x1="290" y1="25.75" x2="327" y2="25.75" stroke="#88714E" stroke-width="2.5"/>
<line x1="290" y1="18.5" x2="327" y2="18.5" stroke="#88714E"/>
<line x1="290" y1="19.75" x2="327" y2="19.75" stroke="#88714E" stroke-width="0.5"/>
<line x1="290" y1="22.2954" x2="327" y2="22.2954" stroke="#88714E" stroke-width="2.5"/>
<path d="M282.264 140.234C282.036 140.246 281.874 140.324 281.778 140.468C281.682 140.608 281.634 140.802 281.634 141.05C281.634 141.286 281.684 141.468 281.784 141.596C281.88 141.724 282.038 141.784 282.258 141.776C282.37 141.772 282.464 141.728 282.54 141.644C282.616 141.556 282.68 141.452 282.732 141.332C282.784 141.212 282.826 141.088 282.858 140.96C282.89 140.828 282.918 140.72 282.942 140.636C283.01 140.42 283.086 140.224 283.17 140.048C283.25 139.868 283.348 139.714 283.464 139.586C283.576 139.458 283.71 139.358 283.866 139.286C284.018 139.214 284.202 139.178 284.418 139.178C284.694 139.178 284.928 139.228 285.12 139.328C285.316 139.424 285.472 139.558 285.588 139.73C285.708 139.902 285.792 140.102 285.84 140.33C285.892 140.558 285.914 140.8 285.906 141.056C285.898 141.324 285.86 141.568 285.792 141.788C285.724 142.004 285.622 142.192 285.486 142.352C285.35 142.508 285.18 142.632 284.976 142.724C284.768 142.812 284.522 142.862 284.238 142.874V141.926C284.514 141.918 284.726 141.834 284.874 141.674C285.018 141.51 285.092 141.296 285.096 141.032C285.1 140.732 285.054 140.506 284.958 140.354C284.858 140.202 284.676 140.132 284.412 140.144C284.288 140.148 284.186 140.18 284.106 140.24C284.026 140.3 283.958 140.38 283.902 140.48C283.846 140.58 283.798 140.696 283.758 140.828C283.718 140.96 283.676 141.098 283.632 141.242C283.588 141.41 283.534 141.584 283.47 141.764C283.406 141.94 283.324 142.1 283.224 142.244C283.12 142.388 282.992 142.508 282.84 142.604C282.688 142.696 282.502 142.742 282.282 142.742C282.042 142.742 281.83 142.7 281.646 142.616C281.462 142.528 281.31 142.41 281.19 142.262C281.066 142.11 280.972 141.93 280.908 141.722C280.844 141.514 280.812 141.288 280.812 141.044C280.812 140.768 280.846 140.522 280.914 140.306C280.982 140.09 281.08 139.908 281.208 139.76C281.332 139.608 281.484 139.492 281.664 139.412C281.844 139.328 282.044 139.282 282.264 139.274V140.234ZM281.784 137.878V139.09H280.968V135.7H281.784V136.912H285.816V137.878H281.784ZM285.816 136.085L280.968 134.483V133.517L285.816 131.915V132.851L284.922 133.145V134.861L285.816 135.149V136.085ZM282.27 134.003L284.13 134.609V133.403L282.27 134.003ZM285.816 128.82L283.92 129.684V130.566H285.816V131.532H280.968V129.522C280.968 129.234 281.014 128.994 281.106 128.802C281.198 128.606 281.314 128.448 281.454 128.328C281.594 128.208 281.748 128.124 281.916 128.076C282.084 128.024 282.244 127.998 282.396 127.998C282.516 127.998 282.634 128.01 282.75 128.034C282.862 128.054 282.972 128.094 283.08 128.154C283.184 128.21 283.284 128.29 283.38 128.394C283.472 128.494 283.556 128.622 283.632 128.778L285.816 127.782V128.82ZM283.104 130.566V129.858C283.104 129.73 283.096 129.612 283.08 129.504C283.06 129.396 283.026 129.304 282.978 129.228C282.926 129.148 282.858 129.086 282.774 129.042C282.686 128.998 282.574 128.976 282.438 128.976C282.302 128.976 282.192 128.998 282.108 129.042C282.024 129.086 281.958 129.148 281.91 129.228C281.862 129.304 281.83 129.396 281.814 129.504C281.794 129.612 281.784 129.73 281.784 129.858V130.566H283.104ZM281.784 126.599V127.811H280.968V124.421H281.784V125.633H285.816V126.599H281.784ZM285.816 124.07H285.048V123.644H281.736V124.07H280.968V122.252H281.736V122.69H285.048V122.252H285.816V124.07ZM280.968 120.852L284.052 119.118H280.968V118.182H285.816V119.064L282.738 120.786H285.816V121.752H280.968V120.852ZM283.89 114.791V115.655H283.098V113.879H284.334C284.598 113.879 284.828 113.923 285.024 114.011C285.224 114.099 285.388 114.223 285.516 114.383C285.648 114.543 285.746 114.737 285.81 114.965C285.878 115.189 285.912 115.439 285.912 115.715C285.912 116.323 285.75 116.797 285.426 117.137C285.106 117.477 284.628 117.647 283.992 117.647H282.744C282.424 117.647 282.144 117.603 281.904 117.515C281.664 117.427 281.464 117.299 281.304 117.131C281.14 116.963 281.018 116.759 280.938 116.519C280.854 116.279 280.812 116.007 280.812 115.703C280.812 115.147 280.95 114.715 281.226 114.407C281.498 114.095 281.88 113.923 282.372 113.891V114.851C282.108 114.895 281.918 114.983 281.802 115.115C281.682 115.243 281.622 115.439 281.622 115.703C281.622 116.039 281.73 116.289 281.946 116.453C282.158 116.613 282.488 116.693 282.936 116.693H283.812C284.684 116.693 285.12 116.367 285.12 115.715C285.12 115.451 285.044 115.231 284.892 115.055C284.74 114.879 284.516 114.791 284.22 114.791H283.89Z" fill="#88714E"/>
<path d="M280.968 53.788L284.052 52.054H280.968V51.118H285.816V52L282.738 53.722H285.816V54.688H280.968V53.788ZM282.744 50.583C282.424 50.583 282.144 50.537 281.904 50.445C281.664 50.349 281.464 50.215 281.304 50.043C281.14 49.867 281.018 49.657 280.938 49.413C280.854 49.165 280.812 48.889 280.812 48.585C280.812 48.281 280.854 48.005 280.938 47.757C281.018 47.509 281.14 47.299 281.304 47.127C281.464 46.951 281.664 46.815 281.904 46.719C282.144 46.623 282.424 46.575 282.744 46.575H283.992C284.308 46.575 284.586 46.623 284.826 46.719C285.066 46.815 285.266 46.951 285.426 47.127C285.586 47.299 285.706 47.509 285.786 47.757C285.87 48.005 285.912 48.281 285.912 48.585C285.912 48.889 285.87 49.165 285.786 49.413C285.706 49.657 285.586 49.867 285.426 50.043C285.266 50.215 285.066 50.349 284.826 50.445C284.586 50.537 284.308 50.583 283.992 50.583H282.744ZM283.872 49.629C284.312 49.629 284.628 49.541 284.82 49.365C285.012 49.185 285.108 48.925 285.108 48.585C285.108 48.249 285.012 47.993 284.82 47.817C284.628 47.637 284.312 47.547 283.872 47.547H282.876C282.432 47.547 282.114 47.637 281.922 47.817C281.73 47.997 281.634 48.253 281.634 48.585C281.634 48.921 281.73 49.179 281.922 49.359C282.114 49.539 282.432 49.629 282.876 49.629H283.872ZM285.258 45.9678V44.8638H286.314V45.9678H285.258ZM284.154 41.1722C284.15 41.4122 284.106 41.6262 284.022 41.8142C283.938 42.0022 283.824 42.1622 283.68 42.2942C283.536 42.4222 283.366 42.5222 283.17 42.5942C282.974 42.6622 282.762 42.6962 282.534 42.6962C282.266 42.6962 282.024 42.6562 281.808 42.5762C281.592 42.4962 281.41 42.3822 281.262 42.2342C281.114 42.0822 281 41.8982 280.92 41.6822C280.84 41.4662 280.8 41.2242 280.8 40.9562C280.8 40.6122 280.854 40.3282 280.962 40.1042C281.066 39.8762 281.202 39.6962 281.37 39.5642C281.534 39.4322 281.718 39.3402 281.922 39.2882C282.122 39.2362 282.32 39.2102 282.516 39.2102C282.628 39.2102 282.74 39.2162 282.852 39.2282C282.964 39.2402 283.07 39.2582 283.17 39.2822C283.266 39.3022 283.356 39.3262 283.44 39.3542C283.52 39.3782 283.586 39.4022 283.638 39.4262L285.816 40.4102V41.4422L284.046 40.5902C284.066 40.6182 284.084 40.6562 284.1 40.7042C284.112 40.7522 284.122 40.8042 284.13 40.8602C284.138 40.9122 284.144 40.9662 284.148 41.0222C284.152 41.0782 284.154 41.1282 284.154 41.1722ZM281.622 40.9322C281.622 41.1962 281.698 41.4002 281.85 41.5442C281.998 41.6842 282.218 41.7502 282.51 41.7422C282.766 41.7342 282.97 41.6702 283.122 41.5502C283.27 41.4302 283.344 41.2442 283.344 40.9922C283.344 40.7162 283.27 40.5122 283.122 40.3802C282.97 40.2442 282.768 40.1762 282.516 40.1762C282.212 40.1762 281.988 40.2422 281.844 40.3742C281.696 40.5062 281.622 40.6922 281.622 40.9322ZM285.798 38.8669C285.698 38.7829 285.572 38.6789 285.42 38.5549C285.272 38.4309 285.112 38.3009 284.94 38.1649C284.768 38.0289 284.594 37.8929 284.418 37.7569C284.238 37.6169 284.072 37.4889 283.92 37.3729C283.768 37.2569 283.638 37.1589 283.53 37.0789C283.418 36.9989 283.342 36.9469 283.302 36.9229C283.162 36.8389 283.042 36.7729 282.942 36.7249C282.838 36.6729 282.746 36.6349 282.666 36.6109C282.586 36.5829 282.514 36.5649 282.45 36.5569C282.382 36.5449 282.312 36.5389 282.24 36.5389C282.06 36.5349 281.916 36.5829 281.808 36.6829C281.7 36.7789 281.646 36.9409 281.646 37.1689C281.646 37.2969 281.664 37.4029 281.7 37.4869C281.736 37.5709 281.784 37.6389 281.844 37.6909C281.904 37.7389 281.972 37.7749 282.048 37.7989C282.124 37.8189 282.202 37.8309 282.282 37.8349V38.7829C282.01 38.7629 281.78 38.7049 281.592 38.6089C281.404 38.5129 281.252 38.3929 281.136 38.2489C281.016 38.1009 280.93 37.9349 280.878 37.7509C280.826 37.5669 280.8 37.3749 280.8 37.1749C280.8 36.6469 280.926 36.2469 281.178 35.9749C281.426 35.7029 281.778 35.5669 282.234 35.5669C282.35 35.5669 282.46 35.5769 282.564 35.5969C282.668 35.6129 282.772 35.6389 282.876 35.6749C282.98 35.7109 283.088 35.7589 283.2 35.8189C283.308 35.8749 283.428 35.9449 283.56 36.0289C283.612 36.0649 283.696 36.1209 283.812 36.1969C283.924 36.2689 284.05 36.3549 284.19 36.4549C284.326 36.5509 284.47 36.6549 284.622 36.7669C284.77 36.8749 284.906 36.9789 285.03 37.0789V35.4589H285.816V38.8609L285.798 38.8669ZM282.684 35.0791C282.044 35.0791 281.572 34.9231 281.268 34.6111C280.964 34.2951 280.812 33.8331 280.812 33.2251C280.812 32.6211 280.964 32.1611 281.268 31.8451C281.572 31.5291 282.044 31.3711 282.684 31.3711H284.052C284.688 31.3711 285.156 31.5291 285.456 31.8451C285.76 32.1571 285.912 32.6171 285.912 33.2251C285.912 33.8331 285.76 34.2951 285.456 34.6111C285.156 34.9231 284.688 35.0791 284.052 35.0791H282.684ZM283.962 34.1251C284.182 34.1251 284.366 34.1071 284.514 34.0711C284.658 34.0351 284.774 33.9791 284.862 33.9031C284.95 33.8271 285.012 33.7331 285.048 33.6211C285.088 33.5091 285.108 33.3771 285.108 33.2251C285.108 33.0731 285.088 32.9411 285.048 32.8291C285.012 32.7171 284.95 32.6251 284.862 32.5531C284.774 32.4811 284.658 32.4271 284.514 32.3911C284.366 32.3551 284.182 32.3371 283.962 32.3371H282.786C282.566 32.3371 282.382 32.3551 282.234 32.3911C282.086 32.4271 281.968 32.4811 281.88 32.5531C281.788 32.6251 281.724 32.7171 281.688 32.8291C281.652 32.9411 281.634 33.0731 281.634 33.2251C281.634 33.3771 281.652 33.5091 281.688 33.6211C281.724 33.7331 281.788 33.8271 281.88 33.9031C281.968 33.9791 282.086 34.0351 282.234 34.0711C282.382 34.1071 282.566 34.1251 282.786 34.1251H283.962ZM282.09 30.8882C281.894 30.8682 281.718 30.8142 281.562 30.7262C281.402 30.6382 281.266 30.5242 281.154 30.3842C281.042 30.2442 280.956 30.0842 280.896 29.9042C280.832 29.7242 280.8 29.5322 280.8 29.3282C280.8 29.0882 280.832 28.8702 280.896 28.6742C280.96 28.4742 281.054 28.3022 281.178 28.1582C281.302 28.0142 281.454 27.9042 281.634 27.8282C281.81 27.7482 282.014 27.7082 282.246 27.7082C282.47 27.7082 282.66 27.7542 282.816 27.8462C282.972 27.9342 283.116 28.0542 283.248 28.2062C283.384 27.9982 283.544 27.8302 283.728 27.7022C283.908 27.5742 284.13 27.5122 284.394 27.5162C284.634 27.5162 284.848 27.5622 285.036 27.6542C285.224 27.7422 285.382 27.8682 285.51 28.0322C285.642 28.1922 285.74 28.3842 285.804 28.6082C285.872 28.8282 285.906 29.0722 285.906 29.3402C285.906 29.5682 285.876 29.7822 285.816 29.9822C285.76 30.1822 285.674 30.3602 285.558 30.5162C285.446 30.6682 285.302 30.7922 285.126 30.8882C284.954 30.9842 284.75 31.0422 284.514 31.0622V30.1142C284.734 30.0702 284.886 29.9802 284.97 29.8442C285.054 29.7082 285.096 29.5322 285.096 29.3162C285.096 29.0522 285.038 28.8482 284.922 28.7042C284.802 28.5602 284.624 28.4882 284.388 28.4882C284.148 28.4882 283.97 28.5682 283.854 28.7282C283.738 28.8842 283.68 29.0942 283.68 29.3582V29.9162H282.9V29.3582C282.9 29.1342 282.844 28.9642 282.732 28.8482C282.62 28.7282 282.458 28.6682 282.246 28.6682C282.022 28.6682 281.864 28.7202 281.772 28.8242C281.676 28.9282 281.626 29.0922 281.622 29.3162C281.618 29.4882 281.66 29.6282 281.748 29.7362C281.832 29.8442 281.946 29.9102 282.09 29.9342V30.8882ZM285.798 27.2302C285.698 27.1462 285.572 27.0422 285.42 26.9182C285.272 26.7942 285.112 26.6642 284.94 26.5282C284.768 26.3922 284.594 26.2562 284.418 26.1202C284.238 25.9802 284.072 25.8522 283.92 25.7362C283.768 25.6202 283.638 25.5222 283.53 25.4422C283.418 25.3622 283.342 25.3102 283.302 25.2862C283.162 25.2022 283.042 25.1362 282.942 25.0882C282.838 25.0362 282.746 24.9982 282.666 24.9742C282.586 24.9462 282.514 24.9282 282.45 24.9202C282.382 24.9082 282.312 24.9022 282.24 24.9022C282.06 24.8982 281.916 24.9462 281.808 25.0462C281.7 25.1422 281.646 25.3042 281.646 25.5322C281.646 25.6602 281.664 25.7662 281.7 25.8502C281.736 25.9342 281.784 26.0022 281.844 26.0542C281.904 26.1022 281.972 26.1382 282.048 26.1622C282.124 26.1822 282.202 26.1942 282.282 26.1982V27.1462C282.01 27.1262 281.78 27.0682 281.592 26.9722C281.404 26.8762 281.252 26.7562 281.136 26.6122C281.016 26.4642 280.93 26.2982 280.878 26.1142C280.826 25.9302 280.8 25.7382 280.8 25.5382C280.8 25.0102 280.926 24.6102 281.178 24.3382C281.426 24.0662 281.778 23.9302 282.234 23.9302C282.35 23.9302 282.46 23.9402 282.564 23.9602C282.668 23.9762 282.772 24.0022 282.876 24.0382C282.98 24.0742 283.088 24.1222 283.2 24.1822C283.308 24.2382 283.428 24.3082 283.56 24.3922C283.612 24.4282 283.696 24.4842 283.812 24.5602C283.924 24.6322 284.05 24.7182 284.19 24.8182C284.326 24.9142 284.47 25.0182 284.622 25.1302C284.77 25.2382 284.906 25.3422 285.03 25.4422V23.8222H285.816V27.2242L285.798 27.2302ZM285.798 23.5563C285.698 23.4723 285.572 23.3683 285.42 23.2443C285.272 23.1203 285.112 22.9903 284.94 22.8543C284.768 22.7183 284.594 22.5823 284.418 22.4463C284.238 22.3063 284.072 22.1783 283.92 22.0623C283.768 21.9463 283.638 21.8483 283.53 21.7683C283.418 21.6883 283.342 21.6363 283.302 21.6123C283.162 21.5283 283.042 21.4623 282.942 21.4143C282.838 21.3623 282.746 21.3243 282.666 21.3003C282.586 21.2723 282.514 21.2543 282.45 21.2463C282.382 21.2343 282.312 21.2283 282.24 21.2283C282.06 21.2243 281.916 21.2723 281.808 21.3723C281.7 21.4683 281.646 21.6303 281.646 21.8583C281.646 21.9863 281.664 22.0923 281.7 22.1763C281.736 22.2603 281.784 22.3283 281.844 22.3803C281.904 22.4283 281.972 22.4643 282.048 22.4883C282.124 22.5083 282.202 22.5203 282.282 22.5243V23.4723C282.01 23.4523 281.78 23.3943 281.592 23.2983C281.404 23.2023 281.252 23.0823 281.136 22.9383C281.016 22.7903 280.93 22.6243 280.878 22.4403C280.826 22.2563 280.8 22.0643 280.8 21.8643C280.8 21.3363 280.926 20.9363 281.178 20.6643C281.426 20.3923 281.778 20.2563 282.234 20.2563C282.35 20.2563 282.46 20.2663 282.564 20.2863C282.668 20.3023 282.772 20.3283 282.876 20.3643C282.98 20.4003 283.088 20.4483 283.2 20.5083C283.308 20.5643 283.428 20.6343 283.56 20.7183C283.612 20.7543 283.696 20.8103 283.812 20.8863C283.924 20.9583 284.05 21.0443 284.19 21.1443C284.326 21.2403 284.47 21.3443 284.622 21.4563C284.77 21.5643 284.906 21.6683 285.03 21.7683V20.1483H285.816V23.5503L285.798 23.5563ZM285.816 18.8685H282.108L282.426 19.6905H281.532L280.848 17.9385H285.816V18.8685Z" fill="#88714E"/>
<path d="M15.9193 24.42L17.0113 19.968H17.9473V24.816H17.5273V20.37H17.3413L16.2313 24.816H15.4693L14.3653 20.364H14.1793V24.816H13.7593V19.968H14.6893L15.7873 24.42H15.9193ZM23.2223 24.816L24.7943 19.968H25.7003L27.2723 24.816H26.7983L26.4503 23.706H24.0503L23.6963 24.816H23.2223ZM25.1183 20.364L24.1763 23.31H26.3303L25.4183 20.364H25.1183ZM32.9771 22.854V24.816H32.5571V19.968H32.9771V22.236L35.3351 19.968H35.9051L33.8351 22.008L35.9711 24.816H35.4251L33.5231 22.314L32.9771 22.854ZM44.1756 19.968V20.364H41.6436V22.164H43.9296V22.56H41.6436V24.426H44.2416V24.816H41.2236V19.968H44.1756ZM57.7843 24.576C57.9963 24.576 58.1863 24.552 58.3543 24.504C58.5263 24.456 58.6723 24.38 58.7923 24.276C58.9123 24.172 59.0043 24.036 59.0683 23.868C59.1363 23.7 59.1703 23.496 59.1703 23.256V19.968H59.5903V23.058C59.5903 23.726 59.4423 24.212 59.1463 24.516C58.8543 24.82 58.4003 24.972 57.7843 24.972C57.1643 24.972 56.7083 24.82 56.4163 24.516C56.1283 24.212 55.9843 23.726 55.9843 23.058V19.968H56.4043V23.256C56.4043 23.496 56.4363 23.7 56.5003 23.868C56.5643 24.036 56.6563 24.172 56.7763 24.276C56.8963 24.38 57.0403 24.456 57.2083 24.504C57.3803 24.552 57.5723 24.576 57.7843 24.576ZM68.1434 24.42V19.968H68.5634V24.816H67.7594L65.7014 20.364H65.5454V24.816H65.1254V19.968H65.9474L68.0114 24.42H68.1434ZM73.9164 24.816V24.426H74.6064V20.364H73.9164V19.968H75.7344V20.364H75.0384V24.426H75.7344V24.816H73.9164ZM82.9655 24.42L84.3455 19.968H84.8195L83.2475 24.816H82.3415L80.7695 19.968H81.2435L82.6655 24.42H82.9655ZM93.0046 19.968V20.364H90.4726V22.164H92.7586V22.56H90.4726V24.426H93.0706V24.816H90.0526V19.968H93.0046ZM101.534 24.816L100.55 22.77H98.8461V24.816H98.4261V19.968H100.304C100.592 19.968 100.832 20.014 101.024 20.106C101.22 20.194 101.378 20.308 101.498 20.448C101.618 20.584 101.702 20.734 101.75 20.898C101.802 21.062 101.828 21.22 101.828 21.372C101.828 21.492 101.812 21.616 101.78 21.744C101.748 21.868 101.698 21.988 101.63 22.104C101.562 22.216 101.472 22.32 101.36 22.416C101.248 22.508 101.114 22.582 100.958 22.638L102.014 24.816H101.534ZM98.8461 22.374H100.268C100.424 22.374 100.572 22.358 100.712 22.326C100.852 22.29 100.974 22.234 101.078 22.158C101.182 22.078 101.264 21.974 101.324 21.846C101.384 21.714 101.414 21.552 101.414 21.36C101.414 21.18 101.386 21.028 101.33 20.904C101.278 20.776 101.206 20.672 101.114 20.592C101.022 20.512 100.916 20.454 100.796 20.418C100.68 20.382 100.558 20.364 100.43 20.364H98.8461V22.374ZM110.178 21.264C110.166 20.888 110.05 20.618 109.83 20.454C109.614 20.29 109.292 20.208 108.864 20.208C108.64 20.208 108.45 20.232 108.294 20.28C108.142 20.324 108.018 20.388 107.922 20.472C107.826 20.552 107.756 20.646 107.712 20.754C107.668 20.862 107.646 20.978 107.646 21.102C107.646 21.246 107.676 21.37 107.736 21.474C107.8 21.578 107.88 21.668 107.976 21.744C108.076 21.816 108.186 21.878 108.306 21.93C108.43 21.978 108.554 22.02 108.678 22.056C108.802 22.088 108.918 22.116 109.026 22.14C109.138 22.16 109.23 22.18 109.302 22.2C109.502 22.256 109.686 22.32 109.854 22.392C110.022 22.46 110.166 22.548 110.286 22.656C110.41 22.764 110.506 22.894 110.574 23.046C110.642 23.198 110.676 23.382 110.676 23.598C110.676 23.874 110.62 24.102 110.508 24.282C110.4 24.462 110.256 24.604 110.076 24.708C109.9 24.812 109.7 24.882 109.476 24.918C109.252 24.958 109.026 24.974 108.798 24.966C108.262 24.95 107.85 24.81 107.562 24.546C107.278 24.282 107.124 23.866 107.1 23.298H107.508C107.512 23.434 107.532 23.578 107.568 23.73C107.604 23.878 107.67 24.014 107.766 24.138C107.862 24.262 107.994 24.364 108.162 24.444C108.334 24.528 108.554 24.572 108.822 24.576C109.046 24.58 109.248 24.564 109.428 24.528C109.608 24.492 109.76 24.434 109.884 24.354C110.008 24.274 110.102 24.17 110.166 24.042C110.234 23.918 110.268 23.768 110.268 23.592C110.268 23.456 110.242 23.332 110.19 23.22C110.142 23.108 110.058 23.006 109.938 22.914C109.818 22.818 109.656 22.732 109.452 22.656C109.252 22.58 109 22.51 108.696 22.446C108.528 22.41 108.356 22.36 108.18 22.296C108.008 22.232 107.85 22.148 107.706 22.044C107.566 21.94 107.452 21.814 107.364 21.666C107.276 21.514 107.232 21.334 107.232 21.126C107.232 20.91 107.27 20.72 107.346 20.556C107.426 20.392 107.538 20.256 107.682 20.148C107.826 20.036 107.998 19.952 108.198 19.896C108.402 19.84 108.626 19.812 108.87 19.812C109.146 19.812 109.388 19.846 109.596 19.914C109.808 19.982 109.984 20.08 110.124 20.208C110.268 20.332 110.378 20.484 110.454 20.664C110.53 20.844 110.572 21.044 110.58 21.264H110.178ZM115.796 24.816V24.426H116.486V20.364H115.796V19.968H117.614V20.364H116.918V24.426H117.614V24.816H115.796ZM124.201 20.364H122.725V19.968H126.115V20.364H124.633V24.816H124.201V20.364ZM134.588 19.968H135.104L133.37 22.884V24.816H132.938V22.884L131.204 19.968H131.72L133.154 22.374L134.588 19.968ZM147.113 19.968V24.426H149.513V24.816H146.693V19.968H147.113ZM154.599 24.816V24.426H155.289V20.364H154.599V19.968H156.417V20.364H155.721V24.426H156.417V24.816H154.599ZM164.746 19.968V20.364H162.178V22.164H164.56V22.56H162.178V24.816H161.758V19.968H164.746ZM172.99 19.968V20.364H170.458V22.164H172.744V22.56H170.458V24.426H173.056V24.816H170.038V19.968H172.99ZM186.958 24.42L188.05 19.968H188.986V24.816H188.566V20.37H188.38L187.27 24.816H186.508L185.404 20.364H185.218V24.816H184.798V19.968H185.728L186.826 24.42H186.958ZM194.465 23.112C194.461 22.872 194.457 22.626 194.453 22.374C194.453 22.122 194.457 21.876 194.465 21.636C194.489 21 194.659 20.538 194.975 20.25C195.295 19.958 195.759 19.812 196.367 19.812C196.975 19.812 197.443 19.964 197.771 20.268C198.103 20.572 198.269 21.044 198.269 21.684C198.277 22.16 198.277 22.636 198.269 23.112C198.261 23.748 198.095 24.216 197.771 24.516C197.447 24.82 196.979 24.972 196.367 24.972C195.755 24.972 195.287 24.82 194.963 24.516C194.639 24.216 194.473 23.748 194.465 23.112ZM194.885 21.51C194.861 22.118 194.861 22.708 194.885 23.28C194.893 23.508 194.935 23.704 195.011 23.868C195.091 24.028 195.197 24.16 195.329 24.264C195.461 24.372 195.615 24.45 195.791 24.498C195.967 24.55 196.159 24.576 196.367 24.576C196.571 24.576 196.761 24.55 196.937 24.498C197.117 24.45 197.273 24.372 197.405 24.264C197.537 24.16 197.641 24.028 197.717 23.868C197.797 23.704 197.841 23.508 197.849 23.28C197.861 22.992 197.869 22.702 197.873 22.41C197.877 22.114 197.869 21.814 197.849 21.51C197.837 21.278 197.789 21.08 197.705 20.916C197.621 20.752 197.513 20.618 197.381 20.514C197.249 20.406 197.095 20.328 196.919 20.28C196.747 20.232 196.563 20.208 196.367 20.208C196.167 20.208 195.979 20.234 195.803 20.286C195.631 20.334 195.477 20.412 195.341 20.52C195.209 20.624 195.101 20.758 195.017 20.922C194.937 21.086 194.893 21.282 194.885 21.51ZM206.857 24.816L205.873 22.77H204.169V24.816H203.749V19.968H205.627C205.915 19.968 206.155 20.014 206.347 20.106C206.543 20.194 206.701 20.308 206.821 20.448C206.941 20.584 207.025 20.734 207.073 20.898C207.125 21.062 207.151 21.22 207.151 21.372C207.151 21.492 207.135 21.616 207.103 21.744C207.071 21.868 207.021 21.988 206.953 22.104C206.885 22.216 206.795 22.32 206.683 22.416C206.571 22.508 206.437 22.582 206.281 22.638L207.337 24.816H206.857ZM204.169 22.374H205.591C205.747 22.374 205.895 22.358 206.035 22.326C206.175 22.29 206.297 22.234 206.401 22.158C206.505 22.078 206.587 21.974 206.647 21.846C206.707 21.714 206.737 21.552 206.737 21.36C206.737 21.18 206.709 21.028 206.653 20.904C206.601 20.776 206.529 20.672 206.437 20.592C206.345 20.512 206.239 20.454 206.119 20.418C206.003 20.382 205.881 20.364 205.753 20.364H204.169V22.374ZM215.572 19.968V20.364H213.04V22.164H215.326V22.56H213.04V24.426H215.638V24.816H212.62V19.968H215.572ZM230.369 19.968V20.364H227.801V22.164H230.183V22.56H227.801V24.816H227.381V19.968H230.369ZM237.461 24.576C237.673 24.576 237.863 24.552 238.031 24.504C238.203 24.456 238.349 24.38 238.469 24.276C238.589 24.172 238.681 24.036 238.745 23.868C238.813 23.7 238.847 23.496 238.847 23.256V19.968H239.267V23.058C239.267 23.726 239.119 24.212 238.823 24.516C238.531 24.82 238.077 24.972 237.461 24.972C236.841 24.972 236.385 24.82 236.093 24.516C235.805 24.212 235.661 23.726 235.661 23.058V19.968H236.081V23.256C236.081 23.496 236.113 23.7 236.177 23.868C236.241 24.036 236.333 24.172 236.453 24.276C236.573 24.38 236.717 24.456 236.885 24.504C237.057 24.552 237.249 24.576 237.461 24.576ZM247.82 24.42V19.968H248.24V24.816H247.436L245.378 20.364H245.222V24.816H244.802V19.968H245.624L247.688 24.42H247.82Z" fill="#88714E"/>
<path d="M24.6368 47.6702C24.6368 49.2915 24.1835 50.4969 23.2768 51.2862C22.3701 52.0755 21.1115 52.4702 19.5008 52.4702H15.2448V39.5422H19.5008C21.1328 39.5422 22.3968 39.9689 23.2928 40.8222C24.1888 41.6755 24.6368 42.9289 24.6368 44.5822V47.6702ZM17.8208 50.2622H19.3248C19.8261 50.2622 20.2475 50.2089 20.5888 50.1022C20.9408 49.9955 21.2235 49.8249 21.4368 49.5902C21.6501 49.3449 21.8048 49.0355 21.9008 48.6622C21.9968 48.2889 22.0448 47.8355 22.0448 47.3022V45.0462C22.0448 43.9795 21.8421 43.1582 21.4368 42.5822C21.0315 42.0062 20.3275 41.7182 19.3248 41.7182H17.8208V50.2622ZM38.6043 39.5422V41.7182H32.9883V44.8862H37.9483V47.0782H32.9883V50.2622H38.7803V52.4702H30.4123V39.5422H38.6043ZM47.0777 48.2942V52.4702H44.5017V39.5422H49.4457C50.2137 39.5422 50.8643 39.6862 51.3977 39.9742C51.9417 40.2622 52.379 40.6249 52.7097 41.0622C53.051 41.4995 53.2963 41.9742 53.4457 42.4862C53.6057 42.9982 53.6857 43.4782 53.6857 43.9262C53.6857 44.3742 53.6057 44.8542 53.4457 45.3662C53.2963 45.8782 53.051 46.3529 52.7097 46.7902C52.379 47.2169 51.9417 47.5742 51.3977 47.8622C50.8643 48.1502 50.2137 48.2942 49.4457 48.2942H47.0777ZM48.6777 46.1342C49.4457 46.1342 50.0377 45.9529 50.4537 45.5902C50.8803 45.2169 51.0937 44.6622 51.0937 43.9262C51.0937 43.2009 50.8803 42.6515 50.4537 42.2782C50.0377 41.9049 49.4457 41.7182 48.6777 41.7182H47.0777V46.1342H48.6777ZM57.2472 52.4702L61.5192 39.5422H64.0952L68.3672 52.4702H65.8712L65.0872 50.0862H60.5112L59.7432 52.4702H57.2472ZM62.7992 43.0142L61.1832 47.9742H64.3992L62.7992 43.0142ZM81.0999 52.4702L78.7959 47.4142H76.4439V52.4702H73.8679V39.5422H79.2279C79.9959 39.5422 80.6359 39.6649 81.1479 39.9102C81.6706 40.1555 82.0919 40.4649 82.4119 40.8382C82.7319 41.2115 82.9559 41.6222 83.0839 42.0702C83.2226 42.5182 83.2919 42.9449 83.2919 43.3502C83.2919 43.6702 83.2599 43.9849 83.1959 44.2942C83.1426 44.5929 83.0359 44.8862 82.8759 45.1742C82.7266 45.4515 82.5133 45.7182 82.2359 45.9742C81.9693 46.2195 81.6279 46.4435 81.2119 46.6462L83.8679 52.4702H81.0999ZM76.4439 45.2382H78.3319C78.6733 45.2382 78.9879 45.2169 79.2759 45.1742C79.5639 45.1209 79.8093 45.0302 80.0119 44.9022C80.2253 44.7635 80.3906 44.5822 80.5079 44.3582C80.6253 44.1235 80.6839 43.8249 80.6839 43.4622C80.6839 43.0995 80.6253 42.8062 80.5079 42.5822C80.3906 42.3582 80.2253 42.1822 80.0119 42.0542C79.8093 41.9262 79.5639 41.8409 79.2759 41.7982C78.9879 41.7449 78.6733 41.7182 78.3319 41.7182H76.4439V45.2382ZM91.5017 41.7182H88.2697V39.5422H97.3097V41.7182H94.0777V52.4702H91.5017V41.7182ZM108.557 49.0302L111.533 39.5422H114.317V52.4702H111.981V45.0942L109.645 52.4702H107.453L105.133 45.0782V52.4702H102.781V39.5422H105.565L108.557 49.0302ZM128.672 39.5422V41.7182H123.056V44.8862H128.016V47.0782H123.056V50.2622H128.848V52.4702H120.48V39.5422H128.672ZM136.969 39.5422L141.593 47.7662V39.5422H144.089V52.4702H141.737L137.145 44.2622V52.4702H134.569V39.5422H136.969ZM152.828 41.7182H149.596V39.5422H158.636V41.7182H155.404V52.4702H152.828V41.7182ZM180.244 47.3342H177.94V45.2222H182.676V48.5182C182.676 49.2222 182.558 49.8355 182.324 50.3582C182.089 50.8915 181.758 51.3289 181.332 51.6702C180.905 52.0222 180.388 52.2835 179.78 52.4542C179.182 52.6355 178.516 52.7262 177.78 52.7262C176.158 52.7262 174.894 52.2942 173.988 51.4302C173.081 50.5769 172.628 49.3022 172.628 47.6062V44.2782C172.628 43.4249 172.745 42.6782 172.98 42.0382C173.214 41.3982 173.556 40.8649 174.004 40.4382C174.452 40.0009 174.996 39.6755 175.636 39.4622C176.276 39.2382 177.001 39.1262 177.812 39.1262C179.294 39.1262 180.446 39.4942 181.268 40.2302C182.1 40.9555 182.558 41.9742 182.644 43.2862H180.084C179.966 42.5822 179.732 42.0755 179.38 41.7662C179.038 41.4462 178.516 41.2862 177.812 41.2862C176.916 41.2862 176.249 41.5742 175.812 42.1502C175.385 42.7155 175.172 43.5955 175.172 44.7902V47.1262C175.172 49.4515 176.041 50.6142 177.78 50.6142C178.484 50.6142 179.07 50.4115 179.54 50.0062C180.009 49.6009 180.244 49.0035 180.244 48.2142V47.3342ZM196.081 52.4702L193.777 47.4142H191.425V52.4702H188.849V39.5422H194.209C194.977 39.5422 195.617 39.6649 196.129 39.9102C196.651 40.1555 197.073 40.4649 197.393 40.8382C197.713 41.2115 197.937 41.6222 198.065 42.0702C198.203 42.5182 198.273 42.9449 198.273 43.3502C198.273 43.6702 198.241 43.9849 198.177 44.2942C198.123 44.5929 198.017 44.8862 197.857 45.1742C197.707 45.4515 197.494 45.7182 197.217 45.9742C196.95 46.2195 196.609 46.4435 196.193 46.6462L198.849 52.4702H196.081ZM191.425 45.2382H193.313C193.654 45.2382 193.969 45.2169 194.257 45.1742C194.545 45.1209 194.79 45.0302 194.993 44.9022C195.206 44.7635 195.371 44.5822 195.489 44.3582C195.606 44.1235 195.665 43.8249 195.665 43.4622C195.665 43.0995 195.606 42.8062 195.489 42.5822C195.371 42.3582 195.206 42.1822 194.993 42.0542C194.79 41.9262 194.545 41.8409 194.257 41.7982C193.969 41.7449 193.654 41.7182 193.313 41.7182H191.425V45.2382ZM203.822 44.2782C203.822 43.4249 203.945 42.6782 204.19 42.0382C204.446 41.3982 204.804 40.8649 205.262 40.4382C205.732 40.0009 206.292 39.6755 206.942 39.4622C207.604 39.2382 208.34 39.1262 209.15 39.1262C209.961 39.1262 210.697 39.2382 211.358 39.4622C212.02 39.6755 212.58 40.0009 213.038 40.4382C213.508 40.8649 213.87 41.3982 214.126 42.0382C214.382 42.6782 214.51 43.4249 214.51 44.2782V47.6062C214.51 48.4489 214.382 49.1902 214.126 49.8302C213.87 50.4702 213.508 51.0035 213.038 51.4302C212.58 51.8569 212.02 52.1769 211.358 52.3902C210.697 52.6142 209.961 52.7262 209.15 52.7262C208.34 52.7262 207.604 52.6142 206.942 52.3902C206.292 52.1769 205.732 51.8569 205.262 51.4302C204.804 51.0035 204.446 50.4702 204.19 49.8302C203.945 49.1902 203.822 48.4489 203.822 47.6062V44.2782ZM206.366 47.2862C206.366 48.4595 206.601 49.3022 207.07 49.8142C207.55 50.3262 208.244 50.5822 209.15 50.5822C210.046 50.5822 210.729 50.3262 211.198 49.8142C211.678 49.3022 211.918 48.4595 211.918 47.2862V44.6302C211.918 43.4462 211.678 42.5982 211.198 42.0862C210.718 41.5742 210.036 41.3182 209.15 41.3182C208.254 41.3182 207.566 41.5742 207.086 42.0862C206.606 42.5982 206.366 43.4462 206.366 44.6302V47.2862ZM225.441 50.5822C227.063 50.5822 227.873 49.6969 227.873 47.9262V39.5422H230.433V47.6222C230.433 49.4035 230.028 50.6995 229.217 51.5102C228.417 52.3209 227.159 52.7262 225.441 52.7262C223.713 52.7262 222.449 52.3209 221.649 51.5102C220.849 50.6995 220.449 49.4035 220.449 47.6222V39.5422H223.025V47.9262C223.025 49.6969 223.831 50.5822 225.441 50.5822ZM239.161 48.2942V52.4702H236.585V39.5422H241.529C242.297 39.5422 242.948 39.6862 243.481 39.9742C244.025 40.2622 244.463 40.6249 244.793 41.0622C245.135 41.4995 245.38 41.9742 245.529 42.4862C245.689 42.9982 245.769 43.4782 245.769 43.9262C245.769 44.3742 245.689 44.8542 245.529 45.3662C245.38 45.8782 245.135 46.3529 244.793 46.7902C244.463 47.2169 244.025 47.5742 243.481 47.8622C242.948 48.1502 242.297 48.2942 241.529 48.2942H239.161ZM240.761 46.1342C241.529 46.1342 242.121 45.9529 242.537 45.5902C242.964 45.2169 243.177 44.6622 243.177 43.9262C243.177 43.2009 242.964 42.6515 242.537 42.2782C242.121 41.9049 241.529 41.7182 240.761 41.7182H239.161V46.1342H240.761Z" fill="#DBB17C"/>
<path d="M22.8007 59.1308C23.9527 59.1308 24.9207 59.2908 25.7047 59.6108C26.4887 59.9308 27.1207 60.3468 27.6007 60.8588C28.0967 61.3708 28.4487 61.9548 28.6567 62.6108C28.8807 63.2668 28.9927 63.9388 28.9927 64.6268C28.9927 65.4108 28.7527 66.1708 28.2727 66.9068C27.8087 67.6428 27.0967 68.2108 26.1367 68.6108C26.5687 68.7388 26.9927 68.9308 27.4087 69.1868C27.8407 69.4428 28.2167 69.7548 28.5367 70.1228C28.8567 70.4908 29.1127 70.9228 29.3047 71.4188C29.5127 71.8988 29.6167 72.4428 29.6167 73.0508C29.6167 75.0188 29.0647 76.4188 27.9607 77.2508C26.8567 78.0988 25.1207 78.5228 22.7527 78.5228H15.3847V59.1308H22.8007ZM19.2487 67.1708H21.4087C21.9047 67.1708 22.3767 67.1468 22.8247 67.0988C23.2727 67.0508 23.6567 66.9468 23.9767 66.7868C24.3127 66.6108 24.5767 66.3628 24.7687 66.0428C24.9607 65.7228 25.0567 65.2908 25.0567 64.7468C25.0567 64.2028 24.9607 63.7788 24.7687 63.4748C24.5767 63.1548 24.3127 62.9148 23.9767 62.7548C23.6567 62.5948 23.2727 62.4988 22.8247 62.4668C22.3767 62.4188 21.9047 62.3948 21.4087 62.3948H19.2487V67.1708ZM19.2487 75.2348H22.1527C22.7127 75.2348 23.2167 75.2188 23.6647 75.1868C24.1127 75.1388 24.4967 75.0428 24.8167 74.8988C25.1367 74.7548 25.3847 74.5388 25.5607 74.2508C25.7367 73.9628 25.8247 73.5628 25.8247 73.0508C25.8247 72.5228 25.7527 72.0908 25.6087 71.7548C25.4647 71.4188 25.2407 71.1548 24.9367 70.9628C24.6487 70.7708 24.2727 70.6348 23.8087 70.5548C23.3447 70.4748 22.7927 70.4348 22.1527 70.4348H19.2487V75.2348ZM35.7365 59.1308V75.2108H43.4405V78.5228H31.8725V59.1308H35.7365ZM45.1855 78.5228V75.4508H46.8895V62.2028H45.1855V59.1308H52.4575V62.2028H50.7055V75.4508H52.4575V78.5228H45.1855ZM58.534 59.1308L65.47 71.4668V59.1308H69.214V78.5228H65.686L58.798 66.2108V78.5228H54.934V59.1308H58.534ZM86.3302 71.3228C86.3302 73.7548 85.6502 75.5628 84.2902 76.7468C82.9302 77.9308 81.0422 78.5228 78.6262 78.5228H72.2422V59.1308H78.6262C81.0742 59.1308 82.9702 59.7708 84.3142 61.0508C85.6582 62.3308 86.3302 64.2108 86.3302 66.6908V71.3228ZM76.1062 75.2108H78.3622C79.1142 75.2108 79.7462 75.1308 80.2582 74.9708C80.7862 74.8108 81.2102 74.5548 81.5302 74.2028C81.8502 73.8348 82.0822 73.3708 82.2262 72.8108C82.3702 72.2508 82.4422 71.5708 82.4422 70.7708V67.3868C82.4422 65.7868 82.1382 64.5548 81.5302 63.6908C80.9222 62.8268 79.8662 62.3948 78.3622 62.3948H76.1062V75.2108ZM109.79 71.3228C109.79 73.7548 109.11 75.5628 107.75 76.7468C106.39 77.9308 104.502 78.5228 102.086 78.5228H95.7022V59.1308H102.086C104.534 59.1308 106.43 59.7708 107.774 61.0508C109.118 62.3308 109.79 64.2108 109.79 66.6908V71.3228ZM99.5662 75.2108H101.822C102.574 75.2108 103.206 75.1308 103.718 74.9708C104.246 74.8108 104.67 74.5548 104.99 74.2028C105.31 73.8348 105.542 73.3708 105.686 72.8108C105.83 72.2508 105.902 71.5708 105.902 70.7708V67.3868C105.902 65.7868 105.598 64.5548 104.99 63.6908C104.382 62.8268 103.326 62.3948 101.822 62.3948H99.5662V75.2108ZM110.409 78.5228L116.817 59.1308H120.681L127.089 78.5228H123.345L122.169 74.9468H115.305L114.153 78.5228H110.409ZM118.737 64.3388L116.313 71.7788H121.137L118.737 64.3388ZM130.924 62.3948H126.076V59.1308H139.636V62.3948H134.788V78.5228H130.924V62.3948ZM153.891 59.1308V62.3948H145.467V67.1468H152.907V70.4348H145.467V75.2108H154.155V78.5228H141.603V59.1308H153.891ZM167.286 62.3948H162.438V59.1308H175.998V62.3948H171.15V78.5228H167.286V62.3948ZM177.884 78.5228V75.4508H179.588V62.2028H177.884V59.1308H185.156V62.2028H183.404V75.4508H185.156V78.5228H177.884ZM201.825 72.5468C201.777 73.6028 201.569 74.5308 201.201 75.3308C200.849 76.1308 200.345 76.7948 199.689 77.3228C199.049 77.8508 198.273 78.2428 197.361 78.4988C196.465 78.7708 195.457 78.9068 194.337 78.9068C193.137 78.9068 192.065 78.7708 191.121 78.4988C190.193 78.2268 189.409 77.7948 188.769 77.2028C188.145 76.6108 187.665 75.8588 187.329 74.9468C187.009 74.0348 186.849 72.9388 186.849 71.6588V65.9948C186.849 64.7148 187.025 63.6108 187.377 62.6828C187.729 61.7388 188.241 60.9628 188.913 60.3548C189.585 59.7308 190.401 59.2668 191.361 58.9628C192.321 58.6588 193.409 58.5068 194.625 58.5068C196.849 58.5068 198.577 59.0588 199.809 60.1628C201.057 61.2508 201.745 62.7788 201.873 64.7468H198.057C197.881 63.6908 197.529 62.9388 197.001 62.4908C196.473 62.0268 195.681 61.7948 194.625 61.7948C193.297 61.7948 192.297 62.1788 191.625 62.9468C190.969 63.7148 190.641 64.9868 190.641 66.7628V70.9868C190.641 71.8668 190.705 72.6108 190.833 73.2188C190.977 73.8108 191.193 74.2908 191.481 74.6588C191.785 75.0268 192.169 75.2908 192.633 75.4508C193.113 75.6108 193.681 75.6908 194.337 75.6908C195.393 75.6908 196.225 75.4428 196.833 74.9468C197.441 74.4508 197.801 73.6508 197.913 72.5468H201.825ZM211.531 67.6748L218.539 78.5228H214.387L209.323 70.7948L208.219 72.2828V78.5228H204.355V59.1308H208.219V66.3548L213.427 59.1308H217.843L211.531 67.6748ZM232.709 59.1308V62.3948H224.285V67.1468H231.725V70.4348H224.285V75.2108H232.973V78.5228H220.421V59.1308H232.709ZM239.389 62.3948H234.541V59.1308H248.101V62.3948H243.253V78.5228H239.389V62.3948Z" fill="#DBB17C"/>
<line x1="13" y1="29.5" x2="249" y2="29.5" stroke="#88714E"/>
<line x1="13" y1="89.5413" x2="249" y2="89.5413" stroke="#88714E" stroke-width="2"/>
<line x1="13" y1="91.5" x2="249" y2="91.5" stroke="#88714E"/>
<path d="M56.1144 106.152H54.1464V105.624H58.6664V106.152H56.6904V112.088H56.1144V106.152ZM63.1941 105.624V106.152H59.8181V108.552H62.8661V109.08H59.8181V111.568H63.2821V112.088H59.2581V105.624H63.1941ZM63.7498 112.088L65.8458 105.624H67.0538L69.1498 112.088H68.5178L68.0538 110.608H64.8538L64.3818 112.088H63.7498ZM66.2778 106.152L65.0218 110.08H67.8938L66.6778 106.152H66.2778ZM72.7162 111.56L74.1722 105.624H75.4202V112.088H74.8602V106.16H74.6122L73.1322 112.088H72.1162L70.6442 106.152H70.3962V112.088H69.8362V105.624H71.0762L72.5402 111.56H72.7162Z" fill="#88714E"/>
<path d="M118.708 111.56V105.624H119.268V112.088H118.196L115.452 106.152H115.244V112.088H114.684V105.624H115.78L118.532 111.56H118.708ZM122.693 111.768C122.976 111.768 123.229 111.736 123.453 111.672C123.683 111.608 123.877 111.507 124.037 111.368C124.197 111.229 124.32 111.048 124.405 110.824C124.496 110.6 124.541 110.328 124.541 110.008V105.624H125.101V109.744C125.101 110.635 124.904 111.283 124.509 111.688C124.12 112.093 123.515 112.296 122.693 112.296C121.867 112.296 121.259 112.093 120.869 111.688C120.485 111.283 120.293 110.635 120.293 109.744V105.624H120.853V110.008C120.853 110.328 120.896 110.6 120.981 110.824C121.067 111.048 121.189 111.229 121.349 111.368C121.509 111.507 121.701 111.608 121.925 111.672C122.155 111.736 122.411 111.768 122.693 111.768ZM129.001 111.56L130.457 105.624H131.705V112.088H131.145V106.16H130.897L129.417 112.088H128.401L126.929 106.152H126.681V112.088H126.121V105.624H127.361L128.825 111.56H129.001ZM135.019 105.624C135.419 105.624 135.752 105.675 136.019 105.776C136.285 105.872 136.499 106.003 136.659 106.168C136.819 106.328 136.931 106.515 136.995 106.728C137.064 106.936 137.099 107.155 137.099 107.384C137.099 107.512 137.077 107.648 137.035 107.792C136.992 107.936 136.928 108.072 136.843 108.2C136.763 108.328 136.661 108.445 136.539 108.552C136.421 108.653 136.283 108.731 136.123 108.784C136.475 108.869 136.76 109.037 136.979 109.288C137.197 109.533 137.307 109.859 137.307 110.264C137.307 110.595 137.269 110.875 137.195 111.104C137.12 111.333 136.997 111.52 136.827 111.664C136.656 111.813 136.432 111.92 136.155 111.984C135.883 112.053 135.549 112.088 135.155 112.088H132.731V105.624H135.019ZM133.291 108.576H135.259C135.445 108.576 135.616 108.544 135.771 108.48C135.931 108.416 136.067 108.328 136.179 108.216C136.291 108.104 136.379 107.973 136.443 107.824C136.507 107.669 136.539 107.501 136.539 107.32C136.539 107.139 136.504 106.976 136.435 106.832C136.371 106.688 136.277 106.565 136.155 106.464C136.037 106.363 135.896 106.285 135.731 106.232C135.571 106.179 135.395 106.152 135.203 106.152H133.291V108.576ZM133.291 111.56H135.427C135.613 111.56 135.787 111.539 135.947 111.496C136.107 111.459 136.245 111.392 136.363 111.296C136.485 111.2 136.579 111.075 136.643 110.92C136.712 110.765 136.747 110.573 136.747 110.344C136.747 110.168 136.72 110.005 136.667 109.856C136.619 109.707 136.539 109.576 136.427 109.464C136.32 109.352 136.181 109.264 136.011 109.2C135.84 109.136 135.632 109.104 135.387 109.104H133.291V111.56ZM142.003 105.624V106.152H138.627V108.552H141.675V109.08H138.627V111.568H142.091V112.088H138.067V105.624H142.003ZM147.015 112.088L145.703 109.36H143.431V112.088H142.871V105.624H145.375C145.759 105.624 146.079 105.685 146.335 105.808C146.597 105.925 146.807 106.077 146.967 106.264C147.127 106.445 147.239 106.645 147.303 106.864C147.373 107.083 147.407 107.293 147.407 107.496C147.407 107.656 147.386 107.821 147.343 107.992C147.301 108.157 147.234 108.317 147.143 108.472C147.053 108.621 146.933 108.76 146.783 108.888C146.634 109.011 146.455 109.109 146.247 109.184L147.655 112.088H147.015ZM143.431 108.832H145.327C145.535 108.832 145.733 108.811 145.919 108.768C146.106 108.72 146.269 108.645 146.407 108.544C146.546 108.437 146.655 108.299 146.735 108.128C146.815 107.952 146.855 107.736 146.855 107.48C146.855 107.24 146.818 107.037 146.743 106.872C146.674 106.701 146.578 106.563 146.455 106.456C146.333 106.349 146.191 106.272 146.031 106.224C145.877 106.176 145.714 106.152 145.543 106.152H143.431V108.832Z" fill="#88714E"/>
<path d="M184.709 109.208H182.965V108.68H185.269V110.144C185.269 110.859 185.067 111.395 184.661 111.752C184.256 112.115 183.68 112.296 182.933 112.296C181.339 112.296 180.541 111.437 180.541 109.72V107.992C180.541 107.565 180.597 107.192 180.709 106.872C180.827 106.552 180.992 106.285 181.205 106.072C181.419 105.853 181.677 105.691 181.981 105.584C182.285 105.472 182.629 105.416 183.013 105.416C183.712 105.416 184.248 105.6 184.621 105.968C185 106.331 185.211 106.84 185.253 107.496H184.693C184.661 107.32 184.619 107.141 184.565 106.96C184.512 106.779 184.427 106.613 184.309 106.464C184.192 106.309 184.029 106.184 183.821 106.088C183.619 105.992 183.349 105.944 183.013 105.944C182.709 105.944 182.44 105.992 182.205 106.088C181.971 106.179 181.771 106.309 181.605 106.48C181.44 106.645 181.315 106.851 181.229 107.096C181.144 107.336 181.101 107.603 181.101 107.896V109.872C181.101 110.459 181.256 110.92 181.565 111.256C181.88 111.597 182.336 111.768 182.933 111.768C183.269 111.768 183.549 111.723 183.773 111.632C184.003 111.547 184.187 111.429 184.325 111.28C184.464 111.131 184.563 110.957 184.621 110.76C184.68 110.563 184.709 110.352 184.709 110.128V109.208ZM190.3 105.624V106.152H186.924V108.552H189.972V109.08H186.924V111.568H190.388V112.088H186.364V105.624H190.3ZM195.192 111.56V105.624H195.752V112.088H194.68L191.936 106.152H191.728V112.088H191.168V105.624H192.264L195.016 111.56H195.192ZM201.298 109.688C201.298 110.499 201.071 111.101 200.618 111.496C200.164 111.891 199.535 112.088 198.73 112.088H196.778V105.624H198.73C199.546 105.624 200.178 105.837 200.626 106.264C201.074 106.691 201.298 107.317 201.298 108.144V109.688ZM197.338 111.56H198.722C198.972 111.56 199.218 111.531 199.458 111.472C199.698 111.413 199.911 111.309 200.098 111.16C200.29 111.016 200.444 110.819 200.562 110.568C200.679 110.312 200.738 109.989 200.738 109.6V108.056C200.738 107.789 200.695 107.541 200.61 107.312C200.53 107.077 200.412 106.875 200.258 106.704C200.103 106.533 199.914 106.4 199.69 106.304C199.466 106.203 199.212 106.152 198.93 106.152H197.338V111.56ZM206.057 105.624V106.152H202.681V108.552H205.729V109.08H202.681V111.568H206.145V112.088H202.121V105.624H206.057ZM211.07 112.088L209.758 109.36H207.486V112.088H206.926V105.624H209.43C209.814 105.624 210.134 105.685 210.39 105.808C210.651 105.925 210.862 106.077 211.022 106.264C211.182 106.445 211.294 106.645 211.358 106.864C211.427 107.083 211.462 107.293 211.462 107.496C211.462 107.656 211.441 107.821 211.398 107.992C211.355 108.157 211.289 108.317 211.198 108.472C211.107 108.621 210.987 108.76 210.838 108.888C210.689 109.011 210.51 109.109 210.302 109.184L211.71 112.088H211.07ZM207.486 108.832H209.382C209.59 108.832 209.787 108.811 209.974 108.768C210.161 108.72 210.323 108.645 210.462 108.544C210.601 108.437 210.71 108.299 210.79 108.128C210.87 107.952 210.91 107.736 210.91 107.48C210.91 107.24 210.873 107.037 210.798 106.872C210.729 106.701 210.633 106.563 210.51 106.456C210.387 106.349 210.246 106.272 210.086 106.224C209.931 106.176 209.769 106.152 209.598 106.152H207.486V108.832Z" fill="#88714E"/>
<line x1="13" y1="141.773" x2="249" y2="141.773" stroke="#88714E"/>
<path d="M73.8234 147.264C73.8114 147.036 73.7334 146.874 73.5894 146.778C73.4494 146.682 73.2554 146.634 73.0074 146.634C72.7714 146.634 72.5894 146.684 72.4614 146.784C72.3334 146.88 72.2734 147.038 72.2814 147.258C72.2854 147.37 72.3294 147.464 72.4134 147.54C72.5014 147.616 72.6054 147.68 72.7254 147.732C72.8454 147.784 72.9694 147.826 73.0974 147.858C73.2294 147.89 73.3374 147.918 73.4214 147.942C73.6374 148.01 73.8334 148.086 74.0094 148.17C74.1894 148.25 74.3434 148.348 74.4714 148.464C74.5994 148.576 74.6994 148.71 74.7714 148.866C74.8434 149.018 74.8794 149.202 74.8794 149.418C74.8794 149.694 74.8294 149.928 74.7294 150.12C74.6334 150.316 74.4994 150.472 74.3274 150.588C74.1554 150.708 73.9554 150.792 73.7274 150.84C73.4994 150.892 73.2574 150.914 73.0014 150.906C72.7334 150.898 72.4894 150.86 72.2694 150.792C72.0534 150.724 71.8654 150.622 71.7054 150.486C71.5494 150.35 71.4254 150.18 71.3334 149.976C71.2454 149.768 71.1954 149.522 71.1834 149.238H72.1314C72.1394 149.514 72.2234 149.726 72.3834 149.874C72.5474 150.018 72.7614 150.092 73.0254 150.096C73.3254 150.1 73.5514 150.054 73.7034 149.958C73.8554 149.858 73.9254 149.676 73.9134 149.412C73.9094 149.288 73.8774 149.186 73.8174 149.106C73.7574 149.026 73.6774 148.958 73.5774 148.902C73.4774 148.846 73.3614 148.798 73.2294 148.758C73.0974 148.718 72.9594 148.676 72.8154 148.632C72.6474 148.588 72.4734 148.534 72.2934 148.47C72.1174 148.406 71.9574 148.324 71.8134 148.224C71.6694 148.12 71.5494 147.992 71.4534 147.84C71.3614 147.688 71.3154 147.502 71.3154 147.282C71.3154 147.042 71.3574 146.83 71.4414 146.646C71.5294 146.462 71.6474 146.31 71.7954 146.19C71.9474 146.066 72.1274 145.972 72.3354 145.908C72.5434 145.844 72.7694 145.812 73.0134 145.812C73.2894 145.812 73.5354 145.846 73.7514 145.914C73.9674 145.982 74.1494 146.08 74.2974 146.208C74.4494 146.332 74.5654 146.484 74.6454 146.664C74.7294 146.844 74.7754 147.044 74.7834 147.264H73.8234ZM76.3815 147.744C76.3815 147.424 76.4275 147.144 76.5195 146.904C76.6155 146.664 76.7495 146.464 76.9215 146.304C77.0975 146.14 77.3075 146.018 77.5515 145.938C77.7995 145.854 78.0755 145.812 78.3795 145.812C78.6835 145.812 78.9595 145.854 79.2075 145.938C79.4555 146.018 79.6655 146.14 79.8375 146.304C80.0135 146.464 80.1495 146.664 80.2455 146.904C80.3415 147.144 80.3895 147.424 80.3895 147.744V148.992C80.3895 149.308 80.3415 149.586 80.2455 149.826C80.1495 150.066 80.0135 150.266 79.8375 150.426C79.6655 150.586 79.4555 150.706 79.2075 150.786C78.9595 150.87 78.6835 150.912 78.3795 150.912C78.0755 150.912 77.7995 150.87 77.5515 150.786C77.3075 150.706 77.0975 150.586 76.9215 150.426C76.7495 150.266 76.6155 150.066 76.5195 149.826C76.4275 149.586 76.3815 149.308 76.3815 148.992V147.744ZM77.3355 148.872C77.3355 149.312 77.4235 149.628 77.5995 149.82C77.7795 150.012 78.0395 150.108 78.3795 150.108C78.7155 150.108 78.9715 150.012 79.1475 149.82C79.3275 149.628 79.4175 149.312 79.4175 148.872V147.876C79.4175 147.432 79.3275 147.114 79.1475 146.922C78.9675 146.73 78.7115 146.634 78.3795 146.634C78.0435 146.634 77.7855 146.73 77.6055 146.922C77.4255 147.114 77.3355 147.432 77.3355 147.876V148.872ZM82.0346 147.744C82.0346 147.424 82.0806 147.144 82.1726 146.904C82.2686 146.664 82.4026 146.464 82.5746 146.304C82.7506 146.14 82.9606 146.018 83.2046 145.938C83.4526 145.854 83.7286 145.812 84.0326 145.812C84.3366 145.812 84.6126 145.854 84.8606 145.938C85.1086 146.018 85.3186 146.14 85.4906 146.304C85.6666 146.464 85.8026 146.664 85.8986 146.904C85.9946 147.144 86.0426 147.424 86.0426 147.744V148.992C86.0426 149.308 85.9946 149.586 85.8986 149.826C85.8026 150.066 85.6666 150.266 85.4906 150.426C85.3186 150.586 85.1086 150.706 84.8606 150.786C84.6126 150.87 84.3366 150.912 84.0326 150.912C83.7286 150.912 83.4526 150.87 83.2046 150.786C82.9606 150.706 82.7506 150.586 82.5746 150.426C82.4026 150.266 82.2686 150.066 82.1726 149.826C82.0806 149.586 82.0346 149.308 82.0346 148.992V147.744ZM82.9886 148.872C82.9886 149.312 83.0766 149.628 83.2526 149.82C83.4326 150.012 83.6926 150.108 84.0326 150.108C84.3686 150.108 84.6246 150.012 84.8006 149.82C84.9806 149.628 85.0706 149.312 85.0706 148.872V147.876C85.0706 147.432 84.9806 147.114 84.8006 146.922C84.6206 146.73 84.3646 146.634 84.0326 146.634C83.6966 146.634 83.4386 146.73 83.2586 146.922C83.0786 147.114 82.9886 147.432 82.9886 147.876V148.872ZM88.6897 145.968L90.4237 149.052V145.968H91.3597V150.816H90.4777L88.7557 147.738V150.816H87.7897V145.968H88.6897ZM96.8388 149.322C96.8268 149.586 96.7748 149.818 96.6828 150.018C96.5948 150.218 96.4688 150.384 96.3048 150.516C96.1448 150.648 95.9508 150.746 95.7228 150.81C95.4988 150.878 95.2468 150.912 94.9668 150.912C94.6668 150.912 94.3988 150.878 94.1628 150.81C93.9308 150.742 93.7348 150.634 93.5748 150.486C93.4188 150.338 93.2988 150.15 93.2148 149.922C93.1348 149.694 93.0948 149.42 93.0948 149.1V147.684C93.0948 147.364 93.1388 147.088 93.2268 146.856C93.3148 146.62 93.4428 146.426 93.6108 146.274C93.7788 146.118 93.9828 146.002 94.2228 145.926C94.4628 145.85 94.7348 145.812 95.0388 145.812C95.5948 145.812 96.0268 145.95 96.3348 146.226C96.6468 146.498 96.8188 146.88 96.8508 147.372H95.8968C95.8528 147.108 95.7648 146.92 95.6328 146.808C95.5008 146.692 95.3028 146.634 95.0388 146.634C94.7068 146.634 94.4568 146.73 94.2888 146.922C94.1248 147.114 94.0428 147.432 94.0428 147.876V148.932C94.0428 149.152 94.0588 149.338 94.0908 149.49C94.1268 149.638 94.1808 149.758 94.2528 149.85C94.3288 149.942 94.4248 150.008 94.5408 150.048C94.6608 150.088 94.8028 150.108 94.9668 150.108C95.2308 150.108 95.4388 150.046 95.5908 149.922C95.7428 149.798 95.8328 149.598 95.8608 149.322H96.8388ZM99.5171 145.968V147.858H101.101V145.968H102.067V150.816H101.101V148.668H99.5171V150.816H98.5511V145.968H99.5171ZM105.772 150.108C106.38 150.108 106.684 149.776 106.684 149.112V145.968H107.644V148.998C107.644 149.666 107.492 150.152 107.188 150.456C106.888 150.76 106.416 150.912 105.772 150.912C105.124 150.912 104.65 150.76 104.35 150.456C104.05 150.152 103.9 149.666 103.9 148.998V145.968H104.866V149.112C104.866 149.776 105.168 150.108 105.772 150.108ZM110.371 145.968L112.105 149.052V145.968H113.041V150.816H112.159L110.437 147.738V150.816H109.471V145.968H110.371ZM115.844 145.968V147.858H117.428V145.968H118.394V150.816H117.428V148.668H115.844V150.816H114.878V145.968H115.844ZM121.924 147.894L122.848 145.968H123.922L122.386 149.004V150.816H121.462V149.004L119.914 145.968H120.994L121.924 147.894ZM124.356 150.816L125.958 145.968H126.924L128.526 150.816H127.59L127.296 149.922H125.58L125.292 150.816H124.356ZM126.438 147.27L125.832 149.13H127.038L126.438 147.27ZM131.008 145.968L132.742 149.052V145.968H133.678V150.816H132.796L131.074 147.738V150.816H130.108V145.968H131.008ZM138.27 148.89H137.406V148.098H139.182V149.334C139.182 149.598 139.138 149.828 139.05 150.024C138.962 150.224 138.838 150.388 138.678 150.516C138.518 150.648 138.324 150.746 138.096 150.81C137.872 150.878 137.622 150.912 137.346 150.912C136.738 150.912 136.264 150.75 135.924 150.426C135.584 150.106 135.414 149.628 135.414 148.992V147.744C135.414 147.424 135.458 147.144 135.546 146.904C135.634 146.664 135.762 146.464 135.93 146.304C136.098 146.14 136.302 146.018 136.542 145.938C136.782 145.854 137.054 145.812 137.358 145.812C137.914 145.812 138.346 145.95 138.654 146.226C138.966 146.498 139.138 146.88 139.17 147.372H138.21C138.166 147.108 138.078 146.918 137.946 146.802C137.818 146.682 137.622 146.622 137.358 146.622C137.022 146.622 136.772 146.73 136.608 146.946C136.448 147.158 136.368 147.488 136.368 147.936V148.812C136.368 149.684 136.694 150.12 137.346 150.12C137.61 150.12 137.83 150.044 138.006 149.892C138.182 149.74 138.27 149.516 138.27 149.22V148.89ZM145.705 150.108C146.313 150.108 146.617 149.776 146.617 149.112V145.968H147.577V148.998C147.577 149.666 147.425 150.152 147.121 150.456C146.821 150.76 146.349 150.912 145.705 150.912C145.057 150.912 144.583 150.76 144.283 150.456C143.983 150.152 143.833 149.666 143.833 148.998V145.968H144.799V149.112C144.799 149.776 145.101 150.108 145.705 150.108ZM150.305 145.968L152.039 149.052V145.968H152.975V150.816H152.093L150.371 147.738V150.816H149.405V145.968H150.305ZM154.698 150.816V150.048H155.124V146.736H154.698V145.968H156.516V146.736H156.078V150.048H156.516V150.816H154.698ZM160.003 149.508L161.071 145.968H162.079L160.537 150.816H159.475L157.933 145.968H158.941L160.003 149.508ZM166.694 145.968V146.784H164.588V147.972H166.448V148.794H164.588V149.988H166.76V150.816H163.622V145.968H166.694ZM171.137 150.816L170.273 148.92H169.391V150.816H168.425V145.968H170.435C170.723 145.968 170.963 146.014 171.155 146.106C171.351 146.198 171.509 146.314 171.629 146.454C171.749 146.594 171.833 146.748 171.881 146.916C171.933 147.084 171.959 147.244 171.959 147.396C171.959 147.516 171.947 147.634 171.923 147.75C171.903 147.862 171.863 147.972 171.803 148.08C171.747 148.184 171.667 148.284 171.563 148.38C171.463 148.472 171.335 148.556 171.179 148.632L172.175 150.816H171.137ZM169.391 148.104H170.099C170.227 148.104 170.345 148.096 170.453 148.08C170.561 148.06 170.653 148.026 170.729 147.978C170.809 147.926 170.871 147.858 170.915 147.774C170.959 147.686 170.981 147.574 170.981 147.438C170.981 147.302 170.959 147.192 170.915 147.108C170.871 147.024 170.809 146.958 170.729 146.91C170.653 146.862 170.561 146.83 170.453 146.814C170.345 146.794 170.227 146.784 170.099 146.784H169.391V148.104ZM176.181 147.264C176.169 147.036 176.091 146.874 175.947 146.778C175.807 146.682 175.613 146.634 175.365 146.634C175.129 146.634 174.947 146.684 174.819 146.784C174.691 146.88 174.631 147.038 174.639 147.258C174.643 147.37 174.687 147.464 174.771 147.54C174.859 147.616 174.963 147.68 175.083 147.732C175.203 147.784 175.327 147.826 175.455 147.858C175.587 147.89 175.695 147.918 175.779 147.942C175.995 148.01 176.191 148.086 176.367 148.17C176.547 148.25 176.701 148.348 176.829 148.464C176.957 148.576 177.057 148.71 177.129 148.866C177.201 149.018 177.237 149.202 177.237 149.418C177.237 149.694 177.187 149.928 177.087 150.12C176.991 150.316 176.857 150.472 176.685 150.588C176.513 150.708 176.313 150.792 176.085 150.84C175.857 150.892 175.615 150.914 175.359 150.906C175.091 150.898 174.847 150.86 174.627 150.792C174.411 150.724 174.223 150.622 174.063 150.486C173.907 150.35 173.783 150.18 173.691 149.976C173.603 149.768 173.553 149.522 173.541 149.238H174.489C174.497 149.514 174.581 149.726 174.741 149.874C174.905 150.018 175.119 150.092 175.383 150.096C175.683 150.1 175.909 150.054 176.061 149.958C176.213 149.858 176.283 149.676 176.271 149.412C176.267 149.288 176.235 149.186 176.175 149.106C176.115 149.026 176.035 148.958 175.935 148.902C175.835 148.846 175.719 148.798 175.587 148.758C175.455 148.718 175.317 148.676 175.173 148.632C175.005 148.588 174.831 148.534 174.651 148.47C174.475 148.406 174.315 148.324 174.171 148.224C174.027 148.12 173.907 147.992 173.811 147.84C173.719 147.688 173.673 147.502 173.673 147.282C173.673 147.042 173.715 146.83 173.799 146.646C173.887 146.462 174.005 146.31 174.153 146.19C174.305 146.066 174.485 145.972 174.693 145.908C174.901 145.844 175.127 145.812 175.371 145.812C175.647 145.812 175.893 145.846 176.109 145.914C176.325 145.982 176.507 146.08 176.655 146.208C176.807 146.332 176.923 146.484 177.003 146.664C177.087 146.844 177.133 147.044 177.141 147.264H176.181ZM178.727 150.816V150.048H179.153V146.736H178.727V145.968H180.545V146.736H180.107V150.048H180.545V150.816H178.727ZM183.298 146.784H182.086V145.968H185.476V146.784H184.264V150.816H183.298V146.784ZM188.945 147.894L189.869 145.968H190.943L189.407 149.004V150.816H188.483V149.004L186.935 145.968H188.015L188.945 147.894Z" fill="#88714E"/>
</svg>
