<svg width="380" height="180" viewBox="0 0 380 180" fill="none" xmlns="http://www.w3.org/2000/svg">
<path fill-rule="evenodd" clip-rule="evenodd" d="M300.647 0C300.647 3.72792 297.645 6.75 293.941 6.75C290.238 6.75 287.235 3.72792 287.235 0H15C6.71573 0 0 6.71573 0 15V165C0 173.284 6.71574 180 15 180H287.235C287.235 176.272 290.238 173.25 293.941 173.25C297.645 173.25 300.647 176.272 300.647 180H365C373.284 180 380 173.284 380 165V15C380 6.71573 373.284 0 365 0H300.647ZM293.636 9V15H294.336V9H293.636ZM293.636 21V27H294.336V21H293.636ZM293.636 33V39H294.336V33H293.636ZM293.636 45V51H294.336V45H293.636ZM293.636 57V63H294.336V57H293.636ZM293.636 69V75H294.336V69H293.636ZM293.636 81V87H294.336V81H293.636ZM293.636 93V99H294.336V93H293.636ZM293.636 105V111H294.336V105H293.636ZM293.636 117V123H294.336V117H293.636ZM293.636 129V135H294.336V129H293.636ZM293.636 141V147H294.336V141H293.636ZM293.636 153V159H294.336V153H293.636ZM293.636 165V171H294.336V165H293.636Z" fill="#001630"/>
<path d="M17.639 25.56L19.095 19.624H20.343V26.088H19.783V20.16H19.535L18.055 26.088H17.039L15.567 20.152H15.319V26.088H14.759V19.624H15.999L17.463 25.56H17.639ZM25.6564 26.088L27.7524 19.624H28.9604L31.0564 26.088H30.4244L29.9604 24.608H26.7604L26.2884 26.088H25.6564ZM28.1844 20.152L26.9284 24.08H29.8004L28.5844 20.152H28.1844ZM36.9428 23.472V26.088H36.3828V19.624H36.9428V22.648L40.0868 19.624H40.8468L38.0868 22.344L40.9348 26.088H40.2068L37.6708 22.752L36.9428 23.472ZM50.1541 19.624V20.152H46.7781V22.552H49.8261V23.08H46.7781V25.568H50.2421V26.088H46.2181V19.624H50.1541ZM64.859 25.768C65.1417 25.768 65.395 25.736 65.619 25.672C65.8484 25.608 66.043 25.5067 66.203 25.368C66.363 25.2293 66.4857 25.048 66.571 24.824C66.6617 24.6 66.707 24.328 66.707 24.008V19.624H67.267V23.744C67.267 24.6347 67.0697 25.2827 66.675 25.688C66.2857 26.0933 65.6804 26.296 64.859 26.296C64.0324 26.296 63.4244 26.0933 63.035 25.688C62.651 25.2827 62.459 24.6347 62.459 23.744V19.624H63.019V24.008C63.019 24.328 63.0617 24.6 63.147 24.824C63.2324 25.048 63.355 25.2293 63.515 25.368C63.675 25.5067 63.867 25.608 64.091 25.672C64.3204 25.736 64.5764 25.768 64.859 25.768ZM76.9512 25.56V19.624H77.5112V26.088H76.4392L73.6952 20.152H73.4872V26.088H72.9272V19.624H74.0232L76.7752 25.56H76.9512ZM82.9285 26.088V25.568H83.8485V20.152H82.9285V19.624H85.3525V20.152H84.4245V25.568H85.3525V26.088H82.9285ZM93.274 25.56L95.114 19.624H95.746L93.65 26.088H92.442L90.346 19.624H90.978L92.874 25.56H93.274ZM104.939 19.624V20.152H101.563V22.552H104.611V23.08H101.563V25.568H105.027V26.088H101.003V19.624H104.939ZM114.592 26.088L113.28 23.36H111.008V26.088H110.448V19.624H112.952C113.336 19.624 113.656 19.6853 113.912 19.808C114.173 19.9253 114.384 20.0773 114.544 20.264C114.704 20.4453 114.816 20.6453 114.88 20.864C114.949 21.0827 114.984 21.2933 114.984 21.496C114.984 21.656 114.963 21.8213 114.92 21.992C114.877 22.1573 114.811 22.3173 114.72 22.472C114.629 22.6213 114.509 22.76 114.36 22.888C114.211 23.0107 114.032 23.1093 113.824 23.184L115.232 26.088H114.592ZM111.008 22.832H112.904C113.112 22.832 113.309 22.8107 113.496 22.768C113.683 22.72 113.845 22.6453 113.984 22.544C114.123 22.4373 114.232 22.2987 114.312 22.128C114.392 21.952 114.432 21.736 114.432 21.48C114.432 21.24 114.395 21.0373 114.32 20.872C114.251 20.7013 114.155 20.5627 114.032 20.456C113.909 20.3493 113.768 20.272 113.608 20.224C113.453 20.176 113.291 20.152 113.12 20.152H111.008V22.832ZM124.397 21.352C124.381 20.8507 124.226 20.4907 123.933 20.272C123.645 20.0533 123.216 19.944 122.645 19.944C122.346 19.944 122.093 19.976 121.885 20.04C121.682 20.0987 121.517 20.184 121.389 20.296C121.261 20.4027 121.168 20.528 121.109 20.672C121.05 20.816 121.021 20.9707 121.021 21.136C121.021 21.328 121.061 21.4933 121.141 21.632C121.226 21.7707 121.333 21.8907 121.461 21.992C121.594 22.088 121.741 22.1707 121.901 22.24C122.066 22.304 122.232 22.36 122.397 22.408C122.562 22.4507 122.717 22.488 122.861 22.52C123.01 22.5467 123.133 22.5733 123.229 22.6C123.496 22.6747 123.741 22.76 123.965 22.856C124.189 22.9467 124.381 23.064 124.541 23.208C124.706 23.352 124.834 23.5253 124.925 23.728C125.016 23.9307 125.061 24.176 125.061 24.464C125.061 24.832 124.986 25.136 124.837 25.376C124.693 25.616 124.501 25.8053 124.261 25.944C124.026 26.0827 123.76 26.176 123.461 26.224C123.162 26.2773 122.861 26.2987 122.557 26.288C121.842 26.2667 121.293 26.08 120.909 25.728C120.53 25.376 120.325 24.8213 120.293 24.064H120.837C120.842 24.2453 120.869 24.4373 120.917 24.64C120.965 24.8373 121.053 25.0187 121.181 25.184C121.309 25.3493 121.485 25.4853 121.709 25.592C121.938 25.704 122.232 25.7627 122.589 25.768C122.888 25.7733 123.157 25.752 123.397 25.704C123.637 25.656 123.84 25.5787 124.005 25.472C124.17 25.3653 124.296 25.2267 124.381 25.056C124.472 24.8907 124.517 24.6907 124.517 24.456C124.517 24.2747 124.482 24.1093 124.413 23.96C124.349 23.8107 124.237 23.6747 124.077 23.552C123.917 23.424 123.701 23.3093 123.429 23.208C123.162 23.1067 122.826 23.0133 122.421 22.928C122.197 22.88 121.968 22.8133 121.733 22.728C121.504 22.6427 121.293 22.5307 121.101 22.392C120.914 22.2533 120.762 22.0853 120.645 21.888C120.528 21.6853 120.469 21.4453 120.469 21.168C120.469 20.88 120.52 20.6267 120.621 20.408C120.728 20.1893 120.877 20.008 121.069 19.864C121.261 19.7147 121.49 19.6027 121.757 19.528C122.029 19.4533 122.328 19.416 122.653 19.416C123.021 19.416 123.344 19.4613 123.621 19.552C123.904 19.6427 124.138 19.7733 124.325 19.944C124.517 20.1093 124.664 20.312 124.765 20.552C124.866 20.792 124.922 21.0587 124.933 21.352H124.397ZM130.168 26.088V25.568H131.088V20.152H130.168V19.624H132.592V20.152H131.664V25.568H132.592V26.088H130.168ZM139.654 20.152H137.686V19.624H142.206V20.152H140.23V26.088H139.654V20.152ZM151.783 19.624H152.471L150.159 23.512V26.088H149.583V23.512L147.271 19.624H147.959L149.871 22.832L151.783 19.624ZM165.043 19.624V25.568H168.243V26.088H164.483V19.624H165.043ZM173.305 26.088V25.568H174.225V20.152H173.305V19.624H175.729V20.152H174.801V25.568H175.729V26.088H173.305ZM185.115 19.624V20.152H181.691V22.552H184.867V23.08H181.691V26.088H181.131V19.624H185.115ZM194.386 19.624V20.152H191.01V22.552H194.058V23.08H191.01V25.568H194.474V26.088H190.45V19.624H194.386ZM209.571 25.56L211.027 19.624H212.275V26.088H211.715V20.16H211.467L209.987 26.088H208.971L207.499 20.152H207.251V26.088H206.691V19.624H207.931L209.395 25.56H209.571ZM217.861 23.816C217.855 23.496 217.85 23.168 217.845 22.832C217.845 22.496 217.85 22.168 217.861 21.848C217.893 21 218.119 20.384 218.541 20C218.967 19.6107 219.586 19.416 220.397 19.416C221.207 19.416 221.831 19.6187 222.269 20.024C222.711 20.4293 222.933 21.0587 222.933 21.912C222.943 22.5467 222.943 23.1813 222.933 23.816C222.922 24.664 222.701 25.288 222.269 25.688C221.837 26.0933 221.213 26.296 220.397 26.296C219.581 26.296 218.957 26.0933 218.525 25.688C218.093 25.288 217.871 24.664 217.861 23.816ZM218.421 21.68C218.389 22.4907 218.389 23.2773 218.421 24.04C218.431 24.344 218.487 24.6053 218.589 24.824C218.695 25.0373 218.837 25.2133 219.013 25.352C219.189 25.496 219.394 25.6 219.629 25.664C219.863 25.7333 220.119 25.768 220.397 25.768C220.669 25.768 220.922 25.7333 221.157 25.664C221.397 25.6 221.605 25.496 221.781 25.352C221.957 25.2133 222.095 25.0373 222.197 24.824C222.303 24.6053 222.362 24.344 222.373 24.04C222.389 23.656 222.399 23.2693 222.405 22.88C222.41 22.4853 222.399 22.0853 222.373 21.68C222.357 21.3707 222.293 21.1067 222.181 20.888C222.069 20.6693 221.925 20.4907 221.749 20.352C221.573 20.208 221.367 20.104 221.133 20.04C220.903 19.976 220.658 19.944 220.397 19.944C220.13 19.944 219.879 19.9787 219.645 20.048C219.415 20.112 219.21 20.216 219.029 20.36C218.853 20.4987 218.709 20.6773 218.597 20.896C218.49 21.1147 218.431 21.376 218.421 21.68ZM232.662 26.088L231.35 23.36H229.078V26.088H228.518V19.624H231.022C231.406 19.624 231.726 19.6853 231.982 19.808C232.243 19.9253 232.454 20.0773 232.614 20.264C232.774 20.4453 232.886 20.6453 232.95 20.864C233.019 21.0827 233.054 21.2933 233.054 21.496C233.054 21.656 233.033 21.8213 232.99 21.992C232.947 22.1573 232.881 22.3173 232.79 22.472C232.699 22.6213 232.579 22.76 232.43 22.888C232.281 23.0107 232.102 23.1093 231.894 23.184L233.302 26.088H232.662ZM229.078 22.832H230.974C231.182 22.832 231.379 22.8107 231.566 22.768C231.753 22.72 231.915 22.6453 232.054 22.544C232.193 22.4373 232.302 22.2987 232.382 22.128C232.462 21.952 232.502 21.736 232.502 21.48C232.502 21.24 232.465 21.0373 232.39 20.872C232.321 20.7013 232.225 20.5627 232.102 20.456C231.979 20.3493 231.838 20.272 231.678 20.224C231.523 20.176 231.361 20.152 231.19 20.152H229.078V22.832ZM242.563 19.624V20.152H239.187V22.552H242.235V23.08H239.187V25.568H242.651V26.088H238.627V19.624H242.563ZM258.852 19.624V20.152H255.428V22.552H258.604V23.08H255.428V26.088H254.868V19.624H258.852ZM266.587 25.768C266.87 25.768 267.123 25.736 267.347 25.672C267.577 25.608 267.771 25.5067 267.931 25.368C268.091 25.2293 268.214 25.048 268.299 24.824C268.39 24.6 268.435 24.328 268.435 24.008V19.624H268.995V23.744C268.995 24.6347 268.798 25.2827 268.403 25.688C268.014 26.0933 267.409 26.296 266.587 26.296C265.761 26.296 265.153 26.0933 264.763 25.688C264.379 25.2827 264.187 24.6347 264.187 23.744V19.624H264.747V24.008C264.747 24.328 264.79 24.6 264.875 24.824C264.961 25.048 265.083 25.2293 265.243 25.368C265.403 25.5067 265.595 25.608 265.819 25.672C266.049 25.736 266.305 25.768 266.587 25.768ZM278.68 25.56V19.624H279.24V26.088H278.168L275.424 20.152H275.216V26.088H274.656V19.624H275.752L278.504 25.56H278.68Z" fill="#88714E"/>
<path d="M28.1707 52.048C28.1707 53.872 27.6607 55.228 26.6407 56.116C25.6207 57.004 24.2047 57.448 22.3927 57.448H17.6047V42.904H22.3927C24.2287 42.904 25.6507 43.384 26.6587 44.344C27.6667 45.304 28.1707 46.714 28.1707 48.574V52.048ZM20.5027 54.964H22.1947C22.7587 54.964 23.2327 54.904 23.6167 54.784C24.0127 54.664 24.3307 54.472 24.5707 54.208C24.8107 53.932 24.9847 53.584 25.0927 53.164C25.2007 52.744 25.2547 52.234 25.2547 51.634V49.096C25.2547 47.896 25.0267 46.972 24.5707 46.324C24.1147 45.676 23.3227 45.352 22.1947 45.352H20.5027V54.964ZM43.8842 42.904V45.352H37.5662V48.916H43.1462V51.382H37.5662V54.964H44.0822V57.448H34.6682V42.904H43.8842ZM53.4167 52.75V57.448H50.5187V42.904H56.0807C56.9447 42.904 57.6767 43.066 58.2767 43.39C58.8887 43.714 59.3807 44.122 59.7527 44.614C60.1367 45.106 60.4127 45.64 60.5807 46.216C60.7607 46.792 60.8507 47.332 60.8507 47.836C60.8507 48.34 60.7607 48.88 60.5807 49.456C60.4127 50.032 60.1367 50.566 59.7527 51.058C59.3807 51.538 58.8887 51.94 58.2767 52.264C57.6767 52.588 56.9447 52.75 56.0807 52.75H53.4167ZM55.2167 50.32C56.0807 50.32 56.7467 50.116 57.2147 49.708C57.6947 49.288 57.9347 48.664 57.9347 47.836C57.9347 47.02 57.6947 46.402 57.2147 45.982C56.7467 45.562 56.0807 45.352 55.2167 45.352H53.4167V50.32H55.2167ZM64.8574 57.448L69.6634 42.904H72.5614L77.3674 57.448H74.5594L73.6774 54.766H68.5294L67.6654 57.448H64.8574ZM71.1034 46.81L69.2854 52.39H72.9034L71.1034 46.81ZM91.6918 57.448L89.0998 51.76H86.4538V57.448H83.5558V42.904H89.5858C90.4498 42.904 91.1698 43.042 91.7458 43.318C92.3338 43.594 92.8078 43.942 93.1678 44.362C93.5278 44.782 93.7798 45.244 93.9238 45.748C94.0798 46.252 94.1578 46.732 94.1578 47.188C94.1578 47.548 94.1218 47.902 94.0498 48.25C93.9898 48.586 93.8698 48.916 93.6898 49.24C93.5218 49.552 93.2818 49.852 92.9698 50.14C92.6698 50.416 92.2858 50.668 91.8178 50.896L94.8058 57.448H91.6918ZM86.4538 49.312H88.5778C88.9618 49.312 89.3158 49.288 89.6398 49.24C89.9638 49.18 90.2398 49.078 90.4678 48.934C90.7078 48.778 90.8938 48.574 91.0258 48.322C91.1578 48.058 91.2238 47.722 91.2238 47.314C91.2238 46.906 91.1578 46.576 91.0258 46.324C90.8938 46.072 90.7078 45.874 90.4678 45.73C90.2398 45.586 89.9638 45.49 89.6398 45.442C89.3158 45.382 88.9618 45.352 88.5778 45.352H86.4538V49.312ZM103.394 45.352H99.7577V42.904H109.928V45.352H106.292V57.448H103.394V45.352ZM122.581 53.578L125.929 42.904H129.061V57.448H126.433V49.15L123.805 57.448H121.339L118.729 49.132V57.448H116.083V42.904H119.215L122.581 53.578ZM145.21 42.904V45.352H138.892V48.916H144.472V51.382H138.892V54.964H145.408V57.448H135.994V42.904H145.21ZM154.545 42.904L159.747 52.156V42.904H162.555V57.448H159.909L154.743 48.214V57.448H151.845V42.904H154.545ZM172.386 45.352H168.75V42.904H178.92V45.352H175.284V57.448H172.386V45.352ZM203.229 51.67H200.637V49.294H205.965V53.002C205.965 53.794 205.833 54.484 205.569 55.072C205.305 55.672 204.933 56.164 204.453 56.548C203.973 56.944 203.391 57.238 202.707 57.43C202.035 57.634 201.285 57.736 200.457 57.736C198.633 57.736 197.211 57.25 196.191 56.278C195.171 55.318 194.661 53.884 194.661 51.976V48.232C194.661 47.272 194.793 46.432 195.057 45.712C195.321 44.992 195.705 44.392 196.209 43.912C196.713 43.42 197.325 43.054 198.045 42.814C198.765 42.562 199.581 42.436 200.493 42.436C202.161 42.436 203.457 42.85 204.381 43.678C205.317 44.494 205.833 45.64 205.929 47.116H203.049C202.917 46.324 202.653 45.754 202.257 45.406C201.873 45.046 201.285 44.866 200.493 44.866C199.485 44.866 198.735 45.19 198.243 45.838C197.763 46.474 197.523 47.464 197.523 48.808V51.436C197.523 54.052 198.501 55.36 200.457 55.36C201.249 55.36 201.909 55.132 202.437 54.676C202.965 54.22 203.229 53.548 203.229 52.66V51.67ZM221.045 57.448L218.453 51.76H215.807V57.448H212.909V42.904H218.939C219.803 42.904 220.523 43.042 221.099 43.318C221.687 43.594 222.161 43.942 222.521 44.362C222.881 44.782 223.133 45.244 223.277 45.748C223.433 46.252 223.511 46.732 223.511 47.188C223.511 47.548 223.475 47.902 223.403 48.25C223.343 48.586 223.223 48.916 223.043 49.24C222.875 49.552 222.635 49.852 222.323 50.14C222.023 50.416 221.639 50.668 221.171 50.896L224.159 57.448H221.045ZM215.807 49.312H217.931C218.315 49.312 218.669 49.288 218.993 49.24C219.317 49.18 219.593 49.078 219.821 48.934C220.061 48.778 220.247 48.574 220.379 48.322C220.511 48.058 220.577 47.722 220.577 47.314C220.577 46.906 220.511 46.576 220.379 46.324C220.247 46.072 220.061 45.874 219.821 45.73C219.593 45.586 219.317 45.49 218.993 45.442C218.669 45.382 218.315 45.352 217.931 45.352H215.807V49.312ZM229.754 48.232C229.754 47.272 229.892 46.432 230.168 45.712C230.456 44.992 230.858 44.392 231.374 43.912C231.902 43.42 232.532 43.054 233.264 42.814C234.008 42.562 234.836 42.436 235.748 42.436C236.66 42.436 237.488 42.562 238.232 42.814C238.976 43.054 239.606 43.42 240.122 43.912C240.65 44.392 241.058 44.992 241.346 45.712C241.634 46.432 241.778 47.272 241.778 48.232V51.976C241.778 52.924 241.634 53.758 241.346 54.478C241.058 55.198 240.65 55.798 240.122 56.278C239.606 56.758 238.976 57.118 238.232 57.358C237.488 57.61 236.66 57.736 235.748 57.736C234.836 57.736 234.008 57.61 233.264 57.358C232.532 57.118 231.902 56.758 231.374 56.278C230.858 55.798 230.456 55.198 230.168 54.478C229.892 53.758 229.754 52.924 229.754 51.976V48.232ZM232.616 51.616C232.616 52.936 232.88 53.884 233.408 54.46C233.948 55.036 234.728 55.324 235.748 55.324C236.756 55.324 237.524 55.036 238.052 54.46C238.592 53.884 238.862 52.936 238.862 51.616V48.628C238.862 47.296 238.592 46.342 238.052 45.766C237.512 45.19 236.744 44.902 235.748 44.902C234.74 44.902 233.966 45.19 233.426 45.766C232.886 46.342 232.616 47.296 232.616 48.628V51.616ZM254.076 55.324C255.9 55.324 256.812 54.328 256.812 52.336V42.904H259.692V51.994C259.692 53.998 259.236 55.456 258.324 56.368C257.424 57.28 256.008 57.736 254.076 57.736C252.132 57.736 250.71 57.28 249.81 56.368C248.91 55.456 248.46 53.998 248.46 51.994V42.904H251.358V52.336C251.358 54.328 252.264 55.324 254.076 55.324ZM269.511 52.75V57.448H266.613V42.904H272.175C273.039 42.904 273.771 43.066 274.371 43.39C274.983 43.714 275.475 44.122 275.847 44.614C276.231 45.106 276.507 45.64 276.675 46.216C276.855 46.792 276.945 47.332 276.945 47.836C276.945 48.34 276.855 48.88 276.675 49.456C276.507 50.032 276.231 50.566 275.847 51.058C275.475 51.538 274.983 51.94 274.371 52.264C273.771 52.588 273.039 52.75 272.175 52.75H269.511ZM271.311 50.32C272.175 50.32 272.841 50.116 273.309 49.708C273.789 49.288 274.029 48.664 274.029 47.836C274.029 47.02 273.789 46.402 273.309 45.982C272.841 45.562 272.175 45.352 271.311 45.352H269.511V50.32H271.311Z" fill="#DBB17C"/>
<path d="M25.3658 64.528C26.6138 64.528 27.6625 64.7013 28.5118 65.048C29.3611 65.3947 30.0458 65.8453 30.5658 66.4C31.1031 66.9547 31.4845 67.5873 31.7098 68.298C31.9525 69.0087 32.0738 69.7367 32.0738 70.482C32.0738 71.3313 31.8138 72.1547 31.2938 72.952C30.7911 73.7493 30.0198 74.3647 28.9798 74.798C29.4478 74.9367 29.9071 75.1447 30.3578 75.422C30.8258 75.6993 31.2331 76.0373 31.5798 76.436C31.9265 76.8347 32.2038 77.3027 32.4118 77.84C32.6371 78.36 32.7498 78.9493 32.7498 79.608C32.7498 81.74 32.1518 83.2567 30.9558 84.158C29.7598 85.0767 27.8791 85.536 25.3138 85.536H17.3318V64.528H25.3658ZM21.5178 73.238H23.8578C24.3951 73.238 24.9065 73.212 25.3918 73.16C25.8771 73.108 26.2931 72.9953 26.6398 72.822C27.0038 72.6313 27.2898 72.3627 27.4978 72.016C27.7058 71.6693 27.8098 71.2013 27.8098 70.612C27.8098 70.0227 27.7058 69.5633 27.4978 69.234C27.2898 68.8873 27.0038 68.6273 26.6398 68.454C26.2931 68.2807 25.8771 68.1767 25.3918 68.142C24.9065 68.09 24.3951 68.064 23.8578 68.064H21.5178V73.238ZM21.5178 81.974H24.6638C25.2705 81.974 25.8165 81.9567 26.3018 81.922C26.7871 81.87 27.2031 81.766 27.5498 81.61C27.8965 81.454 28.1651 81.22 28.3558 80.908C28.5465 80.596 28.6418 80.1627 28.6418 79.608C28.6418 79.036 28.5638 78.568 28.4078 78.204C28.2518 77.84 28.0091 77.554 27.6798 77.346C27.3678 77.138 26.9605 76.9907 26.4578 76.904C25.9551 76.8173 25.3571 76.774 24.6638 76.774H21.5178V81.974ZM39.8996 64.528V81.948H48.2456V85.536H35.7136V64.528H39.8996ZM50.6561 85.536V82.208H52.5021V67.856H50.6561V64.528H58.5341V67.856H56.6361V82.208H58.5341V85.536H50.6561ZM65.637 64.528L73.151 77.892V64.528H77.207V85.536H73.385L65.923 72.198V85.536H61.737V64.528H65.637ZM96.2694 77.736C96.2694 80.3707 95.5328 82.3293 94.0594 83.612C92.5861 84.8947 90.5408 85.536 87.9234 85.536H81.0074V64.528H87.9234C90.5754 64.528 92.6294 65.2213 94.0854 66.608C95.5414 67.9947 96.2694 70.0313 96.2694 72.718V77.736ZM85.1934 81.948H87.6374C88.4521 81.948 89.1368 81.8613 89.6914 81.688C90.2634 81.5147 90.7228 81.2373 91.0694 80.856C91.4161 80.4573 91.6674 79.9547 91.8234 79.348C91.9794 78.7413 92.0574 78.0047 92.0574 77.138V73.472C92.0574 71.7387 91.7281 70.404 91.0694 69.468C90.4108 68.532 89.2668 68.064 87.6374 68.064H85.1934V81.948ZM122.724 77.736C122.724 80.3707 121.988 82.3293 120.514 83.612C119.041 84.8947 116.996 85.536 114.378 85.536H107.462V64.528H114.378C117.03 64.528 119.084 65.2213 120.54 66.608C121.996 67.9947 122.724 70.0313 122.724 72.718V77.736ZM111.648 81.948H114.092C114.907 81.948 115.592 81.8613 116.146 81.688C116.718 81.5147 117.178 81.2373 117.524 80.856C117.871 80.4573 118.122 79.9547 118.278 79.348C118.434 78.7413 118.512 78.0047 118.512 77.138V73.472C118.512 71.7387 118.183 70.404 117.524 69.468C116.866 68.532 115.722 68.064 114.092 68.064H111.648V81.948ZM123.914 85.536L130.856 64.528H135.042L141.984 85.536H137.928L136.654 81.662H129.218L127.97 85.536H123.914ZM132.936 70.17L130.31 78.23H135.536L132.936 70.17ZM146.659 68.064H141.407V64.528H156.097V68.064H150.845V85.536H146.659V68.064ZM172.06 64.528V68.064H162.934V73.212H170.994V76.774H162.934V81.948H172.346V85.536H158.748V64.528H172.06ZM187.611 68.064H182.359V64.528H197.049V68.064H191.797V85.536H187.611V68.064ZM199.613 85.536V82.208H201.459V67.856H199.613V64.528H207.491V67.856H205.593V82.208H207.491V85.536H199.613ZM226.069 79.062C226.017 80.206 225.792 81.2113 225.393 82.078C225.012 82.9447 224.466 83.664 223.755 84.236C223.062 84.808 222.221 85.2327 221.233 85.51C220.263 85.8047 219.171 85.952 217.957 85.952C216.657 85.952 215.496 85.8047 214.473 85.51C213.468 85.2153 212.619 84.7473 211.925 84.106C211.249 83.4647 210.729 82.65 210.365 81.662C210.019 80.674 209.845 79.4867 209.845 78.1V71.964C209.845 70.5773 210.036 69.3813 210.417 68.376C210.799 67.3533 211.353 66.5127 212.081 65.854C212.809 65.178 213.693 64.6753 214.733 64.346C215.773 64.0167 216.952 63.852 218.269 63.852C220.679 63.852 222.551 64.45 223.885 65.646C225.237 66.8247 225.983 68.48 226.121 70.612H221.987C221.797 69.468 221.415 68.6533 220.843 68.168C220.271 67.6653 219.413 67.414 218.269 67.414C216.831 67.414 215.747 67.83 215.019 68.662C214.309 69.494 213.953 70.872 213.953 72.796V77.372C213.953 78.3253 214.023 79.1313 214.161 79.79C214.317 80.4313 214.551 80.9513 214.863 81.35C215.193 81.7487 215.609 82.0347 216.111 82.208C216.631 82.3813 217.247 82.468 217.957 82.468C219.101 82.468 220.003 82.1993 220.661 81.662C221.32 81.1247 221.71 80.258 221.831 79.062H226.069ZM237.103 73.784L244.695 85.536H240.197L234.711 77.164L233.515 78.776V85.536H229.329V64.528H233.515V72.354L239.157 64.528H243.941L237.103 73.784ZM260.566 64.528V68.064H251.44V73.212H259.5V76.774H251.44V81.948H260.852V85.536H247.254V64.528H260.566ZM268.323 68.064H263.071V64.528H277.761V68.064H272.509V85.536H268.323V68.064Z" fill="#DBB17C"/>
<line x1="14" y1="31.5" x2="280" y2="31.5" stroke="#88714E"/>
<line x1="14" y1="98" x2="280" y2="98" stroke="#88714E" stroke-width="2"/>
<line x1="14" y1="100.5" x2="280" y2="100.5" stroke="#88714E"/>
<path d="M62.893 115.94H60.433V115.28H66.083V115.94H63.613V123.36H62.893V115.94ZM71.7426 115.28V115.94H67.5226V118.94H71.3326V119.6H67.5226V122.71H71.8526V123.36H66.8226V115.28H71.7426ZM72.4373 123.36L75.0573 115.28H76.5673L79.1873 123.36H78.3973L77.8173 121.51H73.8173L73.2273 123.36H72.4373ZM75.5973 115.94L74.0273 120.85H77.6173L76.0973 115.94H75.5973ZM83.6453 122.7L85.4653 115.28H87.0253V123.36H86.3253V115.95H86.0153L84.1653 123.36H82.8953L81.0553 115.94H80.7453V123.36H80.0453V115.28H81.5953L83.4253 122.7H83.6453Z" fill="#88714E"/>
<path d="M132.135 122.7V115.28H132.835V123.36H131.495L128.065 115.94H127.805V123.36H127.105V115.28H128.475L131.915 122.7H132.135ZM137.117 122.96C137.47 122.96 137.787 122.92 138.067 122.84C138.353 122.76 138.597 122.633 138.797 122.46C138.997 122.287 139.15 122.06 139.257 121.78C139.37 121.5 139.427 121.16 139.427 120.76V115.28H140.127V120.43C140.127 121.543 139.88 122.353 139.387 122.86C138.9 123.367 138.143 123.62 137.117 123.62C136.083 123.62 135.323 123.367 134.837 122.86C134.357 122.353 134.117 121.543 134.117 120.43V115.28H134.817V120.76C134.817 121.16 134.87 121.5 134.977 121.78C135.083 122.06 135.237 122.287 135.437 122.46C135.637 122.633 135.877 122.76 136.157 122.84C136.443 122.92 136.763 122.96 137.117 122.96ZM145.002 122.7L146.822 115.28H148.382V123.36H147.682V115.95H147.372L145.522 123.36H144.252L142.412 115.94H142.102V123.36H141.402V115.28H142.952L144.782 122.7H145.002ZM152.523 115.28C153.023 115.28 153.44 115.343 153.773 115.47C154.107 115.59 154.373 115.753 154.573 115.96C154.773 116.16 154.913 116.393 154.993 116.66C155.08 116.92 155.123 117.193 155.123 117.48C155.123 117.64 155.097 117.81 155.043 117.99C154.99 118.17 154.91 118.34 154.803 118.5C154.703 118.66 154.577 118.807 154.423 118.94C154.277 119.067 154.103 119.163 153.903 119.23C154.343 119.337 154.7 119.547 154.973 119.86C155.247 120.167 155.383 120.573 155.383 121.08C155.383 121.493 155.337 121.843 155.243 122.13C155.15 122.417 154.997 122.65 154.783 122.83C154.57 123.017 154.29 123.15 153.943 123.23C153.603 123.317 153.187 123.36 152.693 123.36H149.663V115.28H152.523ZM150.363 118.97H152.823C153.057 118.97 153.27 118.93 153.463 118.85C153.663 118.77 153.833 118.66 153.973 118.52C154.113 118.38 154.223 118.217 154.303 118.03C154.383 117.837 154.423 117.627 154.423 117.4C154.423 117.173 154.38 116.97 154.293 116.79C154.213 116.61 154.097 116.457 153.943 116.33C153.797 116.203 153.62 116.107 153.413 116.04C153.213 115.973 152.993 115.94 152.753 115.94H150.363V118.97ZM150.363 122.7H153.033C153.267 122.7 153.483 122.673 153.683 122.62C153.883 122.573 154.057 122.49 154.203 122.37C154.357 122.25 154.473 122.093 154.553 121.9C154.64 121.707 154.683 121.467 154.683 121.18C154.683 120.96 154.65 120.757 154.583 120.57C154.523 120.383 154.423 120.22 154.283 120.08C154.15 119.94 153.977 119.83 153.763 119.75C153.55 119.67 153.29 119.63 152.983 119.63H150.363V122.7ZM161.253 115.28V115.94H157.033V118.94H160.843V119.6H157.033V122.71H161.363V123.36H156.333V115.28H161.253ZM167.519 123.36L165.879 119.95H163.039V123.36H162.339V115.28H165.469C165.949 115.28 166.349 115.357 166.669 115.51C166.996 115.657 167.259 115.847 167.459 116.08C167.659 116.307 167.799 116.557 167.879 116.83C167.966 117.103 168.009 117.367 168.009 117.62C168.009 117.82 167.983 118.027 167.929 118.24C167.876 118.447 167.793 118.647 167.679 118.84C167.566 119.027 167.416 119.2 167.229 119.36C167.043 119.513 166.819 119.637 166.559 119.73L168.319 123.36H167.519ZM163.039 119.29H165.409C165.669 119.29 165.916 119.263 166.149 119.21C166.383 119.15 166.586 119.057 166.759 118.93C166.933 118.797 167.069 118.623 167.169 118.41C167.269 118.19 167.319 117.92 167.319 117.6C167.319 117.3 167.273 117.047 167.179 116.84C167.093 116.627 166.973 116.453 166.819 116.32C166.666 116.187 166.489 116.09 166.289 116.03C166.096 115.97 165.893 115.94 165.679 115.94H163.039V119.29Z" fill="#88714E"/>
<path d="M206.886 119.76H204.706V119.1H207.586V120.93C207.586 121.823 207.333 122.493 206.826 122.94C206.32 123.393 205.6 123.62 204.666 123.62C202.673 123.62 201.676 122.547 201.676 120.4V118.24C201.676 117.707 201.746 117.24 201.886 116.84C202.033 116.44 202.24 116.107 202.506 115.84C202.773 115.567 203.096 115.363 203.476 115.23C203.856 115.09 204.286 115.02 204.766 115.02C205.64 115.02 206.31 115.25 206.776 115.71C207.25 116.163 207.513 116.8 207.566 117.62H206.866C206.826 117.4 206.773 117.177 206.706 116.95C206.64 116.723 206.533 116.517 206.386 116.33C206.24 116.137 206.036 115.98 205.776 115.86C205.523 115.74 205.186 115.68 204.766 115.68C204.386 115.68 204.05 115.74 203.756 115.86C203.463 115.973 203.213 116.137 203.006 116.35C202.8 116.557 202.643 116.813 202.536 117.12C202.43 117.42 202.376 117.753 202.376 118.12V120.59C202.376 121.323 202.57 121.9 202.956 122.32C203.35 122.747 203.92 122.96 204.666 122.96C205.086 122.96 205.436 122.903 205.716 122.79C206.003 122.683 206.233 122.537 206.406 122.35C206.58 122.163 206.703 121.947 206.776 121.7C206.85 121.453 206.886 121.19 206.886 120.91V119.76ZM213.874 115.28V115.94H209.654V118.94H213.464V119.6H209.654V122.71H213.984V123.36H208.954V115.28H213.874ZM219.99 122.7V115.28H220.69V123.36H219.35L215.92 115.94H215.66V123.36H214.96V115.28H216.33L219.77 122.7H219.99ZM227.622 120.36C227.622 121.373 227.339 122.127 226.772 122.62C226.205 123.113 225.419 123.36 224.412 123.36H221.972V115.28H224.412C225.432 115.28 226.222 115.547 226.782 116.08C227.342 116.613 227.622 117.397 227.622 118.43V120.36ZM222.672 122.7H224.402C224.715 122.7 225.022 122.663 225.322 122.59C225.622 122.517 225.889 122.387 226.122 122.2C226.362 122.02 226.555 121.773 226.702 121.46C226.849 121.14 226.922 120.737 226.922 120.25V118.32C226.922 117.987 226.869 117.677 226.762 117.39C226.662 117.097 226.515 116.843 226.322 116.63C226.129 116.417 225.892 116.25 225.612 116.13C225.332 116.003 225.015 115.94 224.662 115.94H222.672V122.7ZM233.572 115.28V115.94H229.352V118.94H233.162V119.6H229.352V122.71H233.682V123.36H228.652V115.28H233.572ZM239.838 123.36L238.198 119.95H235.358V123.36H234.658V115.28H237.788C238.268 115.28 238.668 115.357 238.988 115.51C239.314 115.657 239.578 115.847 239.778 116.08C239.978 116.307 240.118 116.557 240.198 116.83C240.284 117.103 240.328 117.367 240.328 117.62C240.328 117.82 240.301 118.027 240.248 118.24C240.194 118.447 240.111 118.647 239.998 118.84C239.884 119.027 239.734 119.2 239.548 119.36C239.361 119.513 239.138 119.637 238.878 119.73L240.638 123.36H239.838ZM235.358 119.29H237.728C237.988 119.29 238.234 119.263 238.468 119.21C238.701 119.15 238.904 119.057 239.078 118.93C239.251 118.797 239.388 118.623 239.488 118.41C239.588 118.19 239.638 117.92 239.638 117.6C239.638 117.3 239.591 117.047 239.498 116.84C239.411 116.627 239.291 116.453 239.138 116.32C238.984 116.187 238.808 116.09 238.608 116.03C238.414 115.97 238.211 115.94 237.998 115.94H235.358V119.29Z" fill="#88714E"/>
<line x1="14" y1="160.5" x2="280" y2="160.5" stroke="#88714E"/>
<path d="M82.9234 165.207C82.9114 164.979 82.8334 164.817 82.6894 164.721C82.5494 164.625 82.3554 164.577 82.1074 164.577C81.8714 164.577 81.6894 164.627 81.5614 164.727C81.4334 164.823 81.3734 164.981 81.3814 165.201C81.3854 165.313 81.4294 165.407 81.5134 165.483C81.6014 165.559 81.7054 165.623 81.8254 165.675C81.9454 165.727 82.0694 165.769 82.1974 165.801C82.3294 165.833 82.4374 165.861 82.5214 165.885C82.7374 165.953 82.9334 166.029 83.1094 166.113C83.2894 166.193 83.4434 166.291 83.5714 166.407C83.6994 166.519 83.7994 166.653 83.8714 166.809C83.9434 166.961 83.9794 167.145 83.9794 167.361C83.9794 167.637 83.9294 167.871 83.8294 168.063C83.7334 168.259 83.5994 168.415 83.4274 168.531C83.2554 168.651 83.0554 168.735 82.8274 168.783C82.5994 168.835 82.3574 168.857 82.1014 168.849C81.8334 168.841 81.5894 168.803 81.3694 168.735C81.1534 168.667 80.9654 168.565 80.8054 168.429C80.6494 168.293 80.5254 168.123 80.4334 167.919C80.3454 167.711 80.2954 167.465 80.2834 167.181H81.2314C81.2394 167.457 81.3234 167.669 81.4834 167.817C81.6474 167.961 81.8614 168.035 82.1254 168.039C82.4254 168.043 82.6514 167.997 82.8034 167.901C82.9554 167.801 83.0254 167.619 83.0134 167.355C83.0094 167.231 82.9774 167.129 82.9174 167.049C82.8574 166.969 82.7774 166.901 82.6774 166.845C82.5774 166.789 82.4614 166.741 82.3294 166.701C82.1974 166.661 82.0594 166.619 81.9154 166.575C81.7474 166.531 81.5734 166.477 81.3934 166.413C81.2174 166.349 81.0574 166.267 80.9134 166.167C80.7694 166.063 80.6494 165.935 80.5534 165.783C80.4614 165.631 80.4154 165.445 80.4154 165.225C80.4154 164.985 80.4574 164.773 80.5414 164.589C80.6294 164.405 80.7474 164.253 80.8954 164.133C81.0474 164.009 81.2274 163.915 81.4354 163.851C81.6434 163.787 81.8694 163.755 82.1134 163.755C82.3894 163.755 82.6354 163.789 82.8514 163.857C83.0674 163.925 83.2494 164.023 83.3974 164.151C83.5494 164.275 83.6654 164.427 83.7454 164.607C83.8294 164.787 83.8754 164.987 83.8834 165.207H82.9234ZM86.0815 165.687C86.0815 165.367 86.1275 165.087 86.2195 164.847C86.3155 164.607 86.4495 164.407 86.6215 164.247C86.7975 164.083 87.0075 163.961 87.2515 163.881C87.4995 163.797 87.7755 163.755 88.0795 163.755C88.3835 163.755 88.6595 163.797 88.9075 163.881C89.1555 163.961 89.3655 164.083 89.5375 164.247C89.7135 164.407 89.8495 164.607 89.9455 164.847C90.0415 165.087 90.0895 165.367 90.0895 165.687V166.935C90.0895 167.251 90.0415 167.529 89.9455 167.769C89.8495 168.009 89.7135 168.209 89.5375 168.369C89.3655 168.529 89.1555 168.649 88.9075 168.729C88.6595 168.813 88.3835 168.855 88.0795 168.855C87.7755 168.855 87.4995 168.813 87.2515 168.729C87.0075 168.649 86.7975 168.529 86.6215 168.369C86.4495 168.209 86.3155 168.009 86.2195 167.769C86.1275 167.529 86.0815 167.251 86.0815 166.935V165.687ZM87.0355 166.815C87.0355 167.255 87.1235 167.571 87.2995 167.763C87.4795 167.955 87.7395 168.051 88.0795 168.051C88.4155 168.051 88.6715 167.955 88.8475 167.763C89.0275 167.571 89.1175 167.255 89.1175 166.815V165.819C89.1175 165.375 89.0275 165.057 88.8475 164.865C88.6675 164.673 88.4115 164.577 88.0795 164.577C87.7435 164.577 87.4855 164.673 87.3055 164.865C87.1255 165.057 87.0355 165.375 87.0355 165.819V166.815ZM92.3346 165.687C92.3346 165.367 92.3806 165.087 92.4726 164.847C92.5686 164.607 92.7026 164.407 92.8746 164.247C93.0506 164.083 93.2606 163.961 93.5046 163.881C93.7526 163.797 94.0286 163.755 94.3326 163.755C94.6366 163.755 94.9126 163.797 95.1606 163.881C95.4086 163.961 95.6186 164.083 95.7906 164.247C95.9666 164.407 96.1026 164.607 96.1986 164.847C96.2946 165.087 96.3426 165.367 96.3426 165.687V166.935C96.3426 167.251 96.2946 167.529 96.1986 167.769C96.1026 168.009 95.9666 168.209 95.7906 168.369C95.6186 168.529 95.4086 168.649 95.1606 168.729C94.9126 168.813 94.6366 168.855 94.3326 168.855C94.0286 168.855 93.7526 168.813 93.5046 168.729C93.2606 168.649 93.0506 168.529 92.8746 168.369C92.7026 168.209 92.5686 168.009 92.4726 167.769C92.3806 167.529 92.3346 167.251 92.3346 166.935V165.687ZM93.2886 166.815C93.2886 167.255 93.3766 167.571 93.5526 167.763C93.7326 167.955 93.9926 168.051 94.3326 168.051C94.6686 168.051 94.9246 167.955 95.1006 167.763C95.2806 167.571 95.3706 167.255 95.3706 166.815V165.819C95.3706 165.375 95.2806 165.057 95.1006 164.865C94.9206 164.673 94.6646 164.577 94.3326 164.577C93.9966 164.577 93.7386 164.673 93.5586 164.865C93.3786 165.057 93.2886 165.375 93.2886 165.819V166.815ZM99.5897 163.911L101.324 166.995V163.911H102.26V168.759H101.378L99.6557 165.681V168.759H98.6897V163.911H99.5897ZM108.339 167.265C108.327 167.529 108.275 167.761 108.183 167.961C108.095 168.161 107.969 168.327 107.805 168.459C107.645 168.591 107.451 168.689 107.223 168.753C106.999 168.821 106.747 168.855 106.467 168.855C106.167 168.855 105.899 168.821 105.663 168.753C105.431 168.685 105.235 168.577 105.075 168.429C104.919 168.281 104.799 168.093 104.715 167.865C104.635 167.637 104.595 167.363 104.595 167.043V165.627C104.595 165.307 104.639 165.031 104.727 164.799C104.815 164.563 104.943 164.369 105.111 164.217C105.279 164.061 105.483 163.945 105.723 163.869C105.963 163.793 106.235 163.755 106.539 163.755C107.095 163.755 107.527 163.893 107.835 164.169C108.147 164.441 108.319 164.823 108.351 165.315H107.397C107.353 165.051 107.265 164.863 107.133 164.751C107.001 164.635 106.803 164.577 106.539 164.577C106.207 164.577 105.957 164.673 105.789 164.865C105.625 165.057 105.543 165.375 105.543 165.819V166.875C105.543 167.095 105.559 167.281 105.591 167.433C105.627 167.581 105.681 167.701 105.753 167.793C105.829 167.885 105.925 167.951 106.041 167.991C106.161 168.031 106.303 168.051 106.467 168.051C106.731 168.051 106.939 167.989 107.091 167.865C107.243 167.741 107.333 167.541 107.361 167.265H108.339ZM111.617 163.911V165.801H113.201V163.911H114.167V168.759H113.201V166.611H111.617V168.759H110.651V163.911H111.617ZM118.472 168.051C119.08 168.051 119.384 167.719 119.384 167.055V163.911H120.344V166.941C120.344 167.609 120.192 168.095 119.888 168.399C119.588 168.703 119.116 168.855 118.472 168.855C117.824 168.855 117.35 168.703 117.05 168.399C116.75 168.095 116.6 167.609 116.6 166.941V163.911H117.566V167.055C117.566 167.719 117.868 168.051 118.472 168.051ZM123.671 163.911L125.405 166.995V163.911H126.341V168.759H125.459L123.737 165.681V168.759H122.771V163.911H123.671ZM129.744 163.911V165.801H131.328V163.911H132.294V168.759H131.328V166.611H129.744V168.759H128.778V163.911H129.744ZM136.424 165.837L137.348 163.911H138.422L136.886 166.947V168.759H135.962V166.947L134.414 163.911H135.494L136.424 165.837ZM139.456 168.759L141.058 163.911H142.024L143.626 168.759H142.69L142.396 167.865H140.68L140.392 168.759H139.456ZM141.538 165.213L140.932 167.073H142.138L141.538 165.213ZM146.708 163.911L148.442 166.995V163.911H149.378V168.759H148.496L146.774 165.681V168.759H145.808V163.911H146.708ZM154.57 166.833H153.706V166.041H155.482V167.277C155.482 167.541 155.438 167.771 155.35 167.967C155.262 168.167 155.138 168.331 154.978 168.459C154.818 168.591 154.624 168.689 154.396 168.753C154.172 168.821 153.922 168.855 153.646 168.855C153.038 168.855 152.564 168.693 152.224 168.369C151.884 168.049 151.714 167.571 151.714 166.935V165.687C151.714 165.367 151.758 165.087 151.846 164.847C151.934 164.607 152.062 164.407 152.23 164.247C152.398 164.083 152.602 163.961 152.842 163.881C153.082 163.797 153.354 163.755 153.658 163.755C154.214 163.755 154.646 163.893 154.954 164.169C155.266 164.441 155.438 164.823 155.47 165.315H154.51C154.466 165.051 154.378 164.861 154.246 164.745C154.118 164.625 153.922 164.565 153.658 164.565C153.322 164.565 153.072 164.673 152.908 164.889C152.748 165.101 152.668 165.431 152.668 165.879V166.755C152.668 167.627 152.994 168.063 153.646 168.063C153.91 168.063 154.13 167.987 154.306 167.835C154.482 167.683 154.57 167.459 154.57 167.163V166.833ZM163.205 168.051C163.813 168.051 164.117 167.719 164.117 167.055V163.911H165.077V166.941C165.077 167.609 164.925 168.095 164.621 168.399C164.321 168.703 163.849 168.855 163.205 168.855C162.557 168.855 162.083 168.703 161.783 168.399C161.483 168.095 161.333 167.609 161.333 166.941V163.911H162.299V167.055C162.299 167.719 162.601 168.051 163.205 168.051ZM168.405 163.911L170.139 166.995V163.911H171.075V168.759H170.193L168.471 165.681V168.759H167.505V163.911H168.405ZM173.398 168.759V167.991H173.824V164.679H173.398V163.911H175.216V164.679H174.778V167.991H175.216V168.759H173.398ZM179.303 167.451L180.371 163.911H181.379L179.837 168.759H178.775L177.233 163.911H178.241L179.303 167.451ZM186.594 163.911V164.727H184.488V165.915H186.348V166.737H184.488V167.931H186.66V168.759H183.522V163.911H186.594ZM191.637 168.759L190.773 166.863H189.891V168.759H188.925V163.911H190.935C191.223 163.911 191.463 163.957 191.655 164.049C191.851 164.141 192.009 164.257 192.129 164.397C192.249 164.537 192.333 164.691 192.381 164.859C192.433 165.027 192.459 165.187 192.459 165.339C192.459 165.459 192.447 165.577 192.423 165.693C192.403 165.805 192.363 165.915 192.303 166.023C192.247 166.127 192.167 166.227 192.063 166.323C191.963 166.415 191.835 166.499 191.679 166.575L192.675 168.759H191.637ZM189.891 166.047H190.599C190.727 166.047 190.845 166.039 190.953 166.023C191.061 166.003 191.153 165.969 191.229 165.921C191.309 165.869 191.371 165.801 191.415 165.717C191.459 165.629 191.481 165.517 191.481 165.381C191.481 165.245 191.459 165.135 191.415 165.051C191.371 164.967 191.309 164.901 191.229 164.853C191.153 164.805 191.061 164.773 190.953 164.757C190.845 164.737 190.727 164.727 190.599 164.727H189.891V166.047ZM197.281 165.207C197.269 164.979 197.191 164.817 197.047 164.721C196.907 164.625 196.713 164.577 196.465 164.577C196.229 164.577 196.047 164.627 195.919 164.727C195.791 164.823 195.731 164.981 195.739 165.201C195.743 165.313 195.787 165.407 195.871 165.483C195.959 165.559 196.063 165.623 196.183 165.675C196.303 165.727 196.427 165.769 196.555 165.801C196.687 165.833 196.795 165.861 196.879 165.885C197.095 165.953 197.291 166.029 197.467 166.113C197.647 166.193 197.801 166.291 197.929 166.407C198.057 166.519 198.157 166.653 198.229 166.809C198.301 166.961 198.337 167.145 198.337 167.361C198.337 167.637 198.287 167.871 198.187 168.063C198.091 168.259 197.957 168.415 197.785 168.531C197.613 168.651 197.413 168.735 197.185 168.783C196.957 168.835 196.715 168.857 196.459 168.849C196.191 168.841 195.947 168.803 195.727 168.735C195.511 168.667 195.323 168.565 195.163 168.429C195.007 168.293 194.883 168.123 194.791 167.919C194.703 167.711 194.653 167.465 194.641 167.181H195.589C195.597 167.457 195.681 167.669 195.841 167.817C196.005 167.961 196.219 168.035 196.483 168.039C196.783 168.043 197.009 167.997 197.161 167.901C197.313 167.801 197.383 167.619 197.371 167.355C197.367 167.231 197.335 167.129 197.275 167.049C197.215 166.969 197.135 166.901 197.035 166.845C196.935 166.789 196.819 166.741 196.687 166.701C196.555 166.661 196.417 166.619 196.273 166.575C196.105 166.531 195.931 166.477 195.751 166.413C195.575 166.349 195.415 166.267 195.271 166.167C195.127 166.063 195.007 165.935 194.911 165.783C194.819 165.631 194.773 165.445 194.773 165.225C194.773 164.985 194.815 164.773 194.899 164.589C194.987 164.405 195.105 164.253 195.253 164.133C195.405 164.009 195.585 163.915 195.793 163.851C196.001 163.787 196.227 163.755 196.471 163.755C196.747 163.755 196.993 163.789 197.209 163.857C197.425 163.925 197.607 164.023 197.755 164.151C197.907 164.275 198.023 164.427 198.103 164.607C198.187 164.787 198.233 164.987 198.241 165.207H197.281ZM200.427 168.759V167.991H200.853V164.679H200.427V163.911H202.245V164.679H201.807V167.991H202.245V168.759H200.427ZM205.598 164.727H204.386V163.911H207.776V164.727H206.564V168.759H205.598V164.727ZM211.845 165.837L212.769 163.911H213.843L212.307 166.947V168.759H211.383V166.947L209.835 163.911H210.915L211.845 165.837Z" fill="#88714E"/>
<path d="M314.264 161.234C314.036 161.246 313.874 161.324 313.778 161.468C313.682 161.608 313.634 161.802 313.634 162.05C313.634 162.286 313.684 162.468 313.784 162.596C313.88 162.724 314.038 162.784 314.258 162.776C314.37 162.772 314.464 162.728 314.54 162.644C314.616 162.556 314.68 162.452 314.732 162.332C314.784 162.212 314.826 162.088 314.858 161.96C314.89 161.828 314.918 161.72 314.942 161.636C315.01 161.42 315.086 161.224 315.17 161.048C315.25 160.868 315.348 160.714 315.464 160.586C315.576 160.458 315.71 160.358 315.866 160.286C316.018 160.214 316.202 160.178 316.418 160.178C316.694 160.178 316.928 160.228 317.12 160.328C317.316 160.424 317.472 160.558 317.588 160.73C317.708 160.902 317.792 161.102 317.84 161.33C317.892 161.558 317.914 161.8 317.906 162.056C317.898 162.324 317.86 162.568 317.792 162.788C317.724 163.004 317.622 163.192 317.486 163.352C317.35 163.508 317.18 163.632 316.976 163.724C316.768 163.812 316.522 163.862 316.238 163.874V162.926C316.514 162.918 316.726 162.834 316.874 162.674C317.018 162.51 317.092 162.296 317.096 162.032C317.1 161.732 317.054 161.506 316.958 161.354C316.858 161.202 316.676 161.132 316.412 161.144C316.288 161.148 316.186 161.18 316.106 161.24C316.026 161.3 315.958 161.38 315.902 161.48C315.846 161.58 315.798 161.696 315.758 161.828C315.718 161.96 315.676 162.098 315.632 162.242C315.588 162.41 315.534 162.584 315.47 162.764C315.406 162.94 315.324 163.1 315.224 163.244C315.12 163.388 314.992 163.508 314.84 163.604C314.688 163.696 314.502 163.742 314.282 163.742C314.042 163.742 313.83 163.7 313.646 163.616C313.462 163.528 313.31 163.41 313.19 163.262C313.066 163.11 312.972 162.93 312.908 162.722C312.844 162.514 312.812 162.288 312.812 162.044C312.812 161.768 312.846 161.522 312.914 161.306C312.982 161.09 313.08 160.908 313.208 160.76C313.332 160.608 313.484 160.492 313.664 160.412C313.844 160.328 314.044 160.282 314.264 160.274V161.234ZM313.784 158.878V160.09H312.968V156.7H313.784V157.912H317.816V158.878H313.784ZM317.816 157.085L312.968 155.483V154.517L317.816 152.915V153.851L316.922 154.145V155.861L317.816 156.149V157.085ZM314.27 155.003L316.13 155.609V154.403L314.27 155.003ZM317.816 149.82L315.92 150.684V151.566H317.816V152.532H312.968V150.522C312.968 150.234 313.014 149.994 313.106 149.802C313.198 149.606 313.314 149.448 313.454 149.328C313.594 149.208 313.748 149.124 313.916 149.076C314.084 149.024 314.244 148.998 314.396 148.998C314.516 148.998 314.634 149.01 314.75 149.034C314.862 149.054 314.972 149.094 315.08 149.154C315.184 149.21 315.284 149.29 315.38 149.394C315.472 149.494 315.556 149.622 315.632 149.778L317.816 148.782V149.82ZM315.104 151.566V150.858C315.104 150.73 315.096 150.612 315.08 150.504C315.06 150.396 315.026 150.304 314.978 150.228C314.926 150.148 314.858 150.086 314.774 150.042C314.686 149.998 314.574 149.976 314.438 149.976C314.302 149.976 314.192 149.998 314.108 150.042C314.024 150.086 313.958 150.148 313.91 150.228C313.862 150.304 313.83 150.396 313.814 150.504C313.794 150.612 313.784 150.73 313.784 150.858V151.566H315.104ZM313.784 147.599V148.811H312.968V145.421H313.784V146.633H317.816V147.599H313.784ZM317.816 145.07H317.048V144.644H313.736V145.07H312.968V143.252H313.736V143.69H317.048V143.252H317.816V145.07ZM312.968 141.853L316.052 140.119H312.968V139.183H317.816V140.065L314.738 141.787H317.816V142.753H312.968V141.853ZM315.89 135.792V136.656H315.098V134.88H316.334C316.598 134.88 316.828 134.924 317.024 135.012C317.224 135.1 317.388 135.224 317.516 135.384C317.648 135.544 317.746 135.738 317.81 135.966C317.878 136.19 317.912 136.44 317.912 136.716C317.912 137.324 317.75 137.798 317.426 138.138C317.106 138.478 316.628 138.648 315.992 138.648H314.744C314.424 138.648 314.144 138.604 313.904 138.516C313.664 138.428 313.464 138.3 313.304 138.132C313.14 137.964 313.018 137.76 312.938 137.52C312.854 137.28 312.812 137.008 312.812 136.704C312.812 136.148 312.95 135.716 313.226 135.408C313.498 135.096 313.88 134.924 314.372 134.892V135.852C314.108 135.896 313.918 135.984 313.802 136.116C313.682 136.244 313.622 136.44 313.622 136.704C313.622 137.04 313.73 137.29 313.946 137.454C314.158 137.614 314.488 137.694 314.936 137.694H315.812C316.684 137.694 317.12 137.368 317.12 136.716C317.12 136.452 317.044 136.232 316.892 136.056C316.74 135.88 316.516 135.792 316.22 135.792H315.89Z" fill="#88714E"/>
<path d="M312.968 51.7748L316.052 50.0408H312.968V49.1048H317.816V49.9868L314.738 51.7088H317.816V52.6748H312.968V51.7748ZM315.536 48.6238C315.284 48.6238 315.058 48.5798 314.858 48.4918C314.658 48.4038 314.49 48.2798 314.354 48.1198C314.214 47.9598 314.108 47.7678 314.036 47.5438C313.96 47.3158 313.922 47.0638 313.922 46.7878C313.922 46.5118 313.96 46.2618 314.036 46.0378C314.108 45.8138 314.214 45.6218 314.354 45.4618C314.49 45.3018 314.658 45.1778 314.858 45.0898C315.058 45.0018 315.284 44.9578 315.536 44.9578H316.304C316.556 44.9578 316.782 45.0018 316.982 45.0898C317.182 45.1778 317.35 45.3018 317.486 45.4618C317.622 45.6218 317.726 45.8138 317.798 46.0378C317.87 46.2618 317.906 46.5118 317.906 46.7878C317.906 47.0638 317.87 47.3158 317.798 47.5438C317.726 47.7678 317.622 47.9598 317.486 48.1198C317.35 48.2798 317.182 48.4038 316.982 48.4918C316.782 48.5798 316.556 48.6238 316.304 48.6238H315.536ZM316.238 47.7118C316.554 47.7118 316.78 47.6278 316.916 47.4598C317.052 47.2878 317.12 47.0638 317.12 46.7878C317.12 46.5078 317.052 46.2878 316.916 46.1278C316.78 45.9678 316.554 45.8878 316.238 45.8878H315.59C315.278 45.8878 315.056 45.9678 314.924 46.1278C314.788 46.2878 314.72 46.5078 314.72 46.7878C314.72 47.0638 314.788 47.2878 314.924 47.4598C315.056 47.6278 315.278 47.7118 315.59 47.7118H316.238ZM317.258 44.4293V43.3253H318.314V44.4293H317.258ZM316.154 39.6337C316.15 39.8737 316.106 40.0877 316.022 40.2757C315.938 40.4637 315.824 40.6237 315.68 40.7557C315.536 40.8837 315.366 40.9837 315.17 41.0557C314.974 41.1237 314.762 41.1577 314.534 41.1577C314.266 41.1577 314.024 41.1177 313.808 41.0377C313.592 40.9577 313.41 40.8437 313.262 40.6957C313.114 40.5437 313 40.3597 312.92 40.1437C312.84 39.9277 312.8 39.6857 312.8 39.4177C312.8 39.0737 312.854 38.7897 312.962 38.5657C313.066 38.3377 313.202 38.1577 313.37 38.0257C313.534 37.8937 313.718 37.8017 313.922 37.7497C314.122 37.6977 314.32 37.6717 314.516 37.6717C314.628 37.6717 314.74 37.6777 314.852 37.6897C314.964 37.7017 315.07 37.7197 315.17 37.7437C315.266 37.7637 315.356 37.7877 315.44 37.8157C315.52 37.8397 315.586 37.8637 315.638 37.8877L317.816 38.8717V39.9037L316.046 39.0517C316.066 39.0797 316.084 39.1177 316.1 39.1657C316.112 39.2137 316.122 39.2657 316.13 39.3217C316.138 39.3737 316.144 39.4277 316.148 39.4837C316.152 39.5397 316.154 39.5897 316.154 39.6337ZM313.622 39.3937C313.622 39.6577 313.698 39.8617 313.85 40.0057C313.998 40.1457 314.218 40.2117 314.51 40.2037C314.766 40.1957 314.97 40.1317 315.122 40.0117C315.27 39.8917 315.344 39.7057 315.344 39.4537C315.344 39.1777 315.27 38.9737 315.122 38.8417C314.97 38.7057 314.768 38.6377 314.516 38.6377C314.212 38.6377 313.988 38.7037 313.844 38.8357C313.696 38.9677 313.622 39.1537 313.622 39.3937ZM317.798 37.3283C317.698 37.2443 317.572 37.1403 317.42 37.0163C317.272 36.8923 317.112 36.7623 316.94 36.6263C316.768 36.4903 316.594 36.3543 316.418 36.2183C316.238 36.0783 316.072 35.9503 315.92 35.8343C315.768 35.7183 315.638 35.6203 315.53 35.5403C315.418 35.4603 315.342 35.4083 315.302 35.3843C315.162 35.3003 315.042 35.2343 314.942 35.1863C314.838 35.1343 314.746 35.0963 314.666 35.0723C314.586 35.0443 314.514 35.0263 314.45 35.0183C314.382 35.0063 314.312 35.0003 314.24 35.0003C314.06 34.9963 313.916 35.0443 313.808 35.1443C313.7 35.2403 313.646 35.4023 313.646 35.6303C313.646 35.7583 313.664 35.8643 313.7 35.9483C313.736 36.0323 313.784 36.1003 313.844 36.1523C313.904 36.2003 313.972 36.2363 314.048 36.2603C314.124 36.2803 314.202 36.2923 314.282 36.2963V37.2443C314.01 37.2243 313.78 37.1663 313.592 37.0703C313.404 36.9743 313.252 36.8543 313.136 36.7103C313.016 36.5623 312.93 36.3963 312.878 36.2123C312.826 36.0283 312.8 35.8363 312.8 35.6363C312.8 35.1083 312.926 34.7083 313.178 34.4363C313.426 34.1643 313.778 34.0283 314.234 34.0283C314.35 34.0283 314.46 34.0383 314.564 34.0583C314.668 34.0743 314.772 34.1003 314.876 34.1363C314.98 34.1723 315.088 34.2203 315.2 34.2803C315.308 34.3363 315.428 34.4063 315.56 34.4903C315.612 34.5263 315.696 34.5823 315.812 34.6583C315.924 34.7303 316.05 34.8163 316.19 34.9163C316.326 35.0123 316.47 35.1163 316.622 35.2283C316.77 35.3363 316.906 35.4403 317.03 35.5403V33.9203H317.816V37.3223L317.798 37.3283ZM314.684 33.5405C314.044 33.5405 313.572 33.3845 313.268 33.0725C312.964 32.7565 312.812 32.2945 312.812 31.6865C312.812 31.0825 312.964 30.6225 313.268 30.3065C313.572 29.9905 314.044 29.8325 314.684 29.8325H316.052C316.688 29.8325 317.156 29.9905 317.456 30.3065C317.76 30.6185 317.912 31.0785 317.912 31.6865C317.912 32.2945 317.76 32.7565 317.456 33.0725C317.156 33.3845 316.688 33.5405 316.052 33.5405H314.684ZM315.962 32.5865C316.182 32.5865 316.366 32.5685 316.514 32.5325C316.658 32.4965 316.774 32.4405 316.862 32.3645C316.95 32.2885 317.012 32.1945 317.048 32.0825C317.088 31.9705 317.108 31.8385 317.108 31.6865C317.108 31.5345 317.088 31.4025 317.048 31.2905C317.012 31.1785 316.95 31.0865 316.862 31.0145C316.774 30.9425 316.658 30.8885 316.514 30.8525C316.366 30.8165 316.182 30.7985 315.962 30.7985H314.786C314.566 30.7985 314.382 30.8165 314.234 30.8525C314.086 30.8885 313.968 30.9425 313.88 31.0145C313.788 31.0865 313.724 31.1785 313.688 31.2905C313.652 31.4025 313.634 31.5345 313.634 31.6865C313.634 31.8385 313.652 31.9705 313.688 32.0825C313.724 32.1945 313.788 32.2885 313.88 32.3645C313.968 32.4405 314.086 32.4965 314.234 32.5325C314.382 32.5685 314.566 32.5865 314.786 32.5865H315.962ZM314.09 29.3497C313.894 29.3297 313.718 29.2757 313.562 29.1877C313.402 29.0997 313.266 28.9857 313.154 28.8457C313.042 28.7057 312.956 28.5457 312.896 28.3657C312.832 28.1857 312.8 27.9937 312.8 27.7897C312.8 27.5497 312.832 27.3317 312.896 27.1357C312.96 26.9357 313.054 26.7637 313.178 26.6197C313.302 26.4757 313.454 26.3657 313.634 26.2897C313.81 26.2097 314.014 26.1697 314.246 26.1697C314.47 26.1697 314.66 26.2157 314.816 26.3077C314.972 26.3957 315.116 26.5157 315.248 26.6677C315.384 26.4597 315.544 26.2917 315.728 26.1637C315.908 26.0357 316.13 25.9737 316.394 25.9777C316.634 25.9777 316.848 26.0237 317.036 26.1157C317.224 26.2037 317.382 26.3297 317.51 26.4937C317.642 26.6537 317.74 26.8457 317.804 27.0697C317.872 27.2897 317.906 27.5337 317.906 27.8017C317.906 28.0297 317.876 28.2437 317.816 28.4437C317.76 28.6437 317.674 28.8217 317.558 28.9777C317.446 29.1297 317.302 29.2537 317.126 29.3497C316.954 29.4457 316.75 29.5037 316.514 29.5237V28.5757C316.734 28.5317 316.886 28.4417 316.97 28.3057C317.054 28.1697 317.096 27.9937 317.096 27.7777C317.096 27.5137 317.038 27.3097 316.922 27.1657C316.802 27.0217 316.624 26.9497 316.388 26.9497C316.148 26.9497 315.97 27.0297 315.854 27.1897C315.738 27.3457 315.68 27.5557 315.68 27.8197V28.3777H314.9V27.8197C314.9 27.5957 314.844 27.4257 314.732 27.3097C314.62 27.1897 314.458 27.1297 314.246 27.1297C314.022 27.1297 313.864 27.1817 313.772 27.2857C313.676 27.3897 313.626 27.5537 313.622 27.7777C313.618 27.9497 313.66 28.0897 313.748 28.1977C313.832 28.3057 313.946 28.3717 314.09 28.3957V29.3497ZM317.798 25.6916C317.698 25.6076 317.572 25.5036 317.42 25.3796C317.272 25.2556 317.112 25.1256 316.94 24.9896C316.768 24.8536 316.594 24.7176 316.418 24.5816C316.238 24.4416 316.072 24.3136 315.92 24.1976C315.768 24.0816 315.638 23.9836 315.53 23.9036C315.418 23.8236 315.342 23.7716 315.302 23.7476C315.162 23.6636 315.042 23.5976 314.942 23.5496C314.838 23.4976 314.746 23.4596 314.666 23.4356C314.586 23.4076 314.514 23.3896 314.45 23.3816C314.382 23.3696 314.312 23.3636 314.24 23.3636C314.06 23.3596 313.916 23.4076 313.808 23.5076C313.7 23.6036 313.646 23.7656 313.646 23.9936C313.646 24.1216 313.664 24.2276 313.7 24.3116C313.736 24.3956 313.784 24.4636 313.844 24.5156C313.904 24.5636 313.972 24.5996 314.048 24.6236C314.124 24.6436 314.202 24.6556 314.282 24.6596V25.6076C314.01 25.5876 313.78 25.5296 313.592 25.4336C313.404 25.3376 313.252 25.2176 313.136 25.0736C313.016 24.9256 312.93 24.7596 312.878 24.5756C312.826 24.3916 312.8 24.1996 312.8 23.9996C312.8 23.4716 312.926 23.0716 313.178 22.7996C313.426 22.5276 313.778 22.3916 314.234 22.3916C314.35 22.3916 314.46 22.4016 314.564 22.4216C314.668 22.4376 314.772 22.4636 314.876 22.4996C314.98 22.5356 315.088 22.5836 315.2 22.6436C315.308 22.6996 315.428 22.7696 315.56 22.8536C315.612 22.8896 315.696 22.9456 315.812 23.0216C315.924 23.0936 316.05 23.1796 316.19 23.2796C316.326 23.3756 316.47 23.4796 316.622 23.5916C316.77 23.6996 316.906 23.8036 317.03 23.9036V22.2836H317.816V25.6856L317.798 25.6916ZM317.798 22.0178C317.698 21.9338 317.572 21.8298 317.42 21.7058C317.272 21.5818 317.112 21.4518 316.94 21.3158C316.768 21.1798 316.594 21.0438 316.418 20.9078C316.238 20.7678 316.072 20.6398 315.92 20.5238C315.768 20.4078 315.638 20.3098 315.53 20.2298C315.418 20.1498 315.342 20.0978 315.302 20.0738C315.162 19.9898 315.042 19.9238 314.942 19.8758C314.838 19.8238 314.746 19.7858 314.666 19.7618C314.586 19.7338 314.514 19.7158 314.45 19.7078C314.382 19.6958 314.312 19.6898 314.24 19.6898C314.06 19.6858 313.916 19.7338 313.808 19.8338C313.7 19.9298 313.646 20.0918 313.646 20.3198C313.646 20.4478 313.664 20.5538 313.7 20.6378C313.736 20.7218 313.784 20.7898 313.844 20.8418C313.904 20.8898 313.972 20.9258 314.048 20.9498C314.124 20.9698 314.202 20.9818 314.282 20.9858V21.9338C314.01 21.9138 313.78 21.8558 313.592 21.7598C313.404 21.6638 313.252 21.5438 313.136 21.3998C313.016 21.2518 312.93 21.0858 312.878 20.9018C312.826 20.7178 312.8 20.5258 312.8 20.3258C312.8 19.7978 312.926 19.3978 313.178 19.1258C313.426 18.8538 313.778 18.7178 314.234 18.7178C314.35 18.7178 314.46 18.7278 314.564 18.7478C314.668 18.7638 314.772 18.7898 314.876 18.8258C314.98 18.8618 315.088 18.9098 315.2 18.9698C315.308 19.0258 315.428 19.0958 315.56 19.1798C315.612 19.2158 315.696 19.2718 315.812 19.3478C315.924 19.4198 316.05 19.5058 316.19 19.6058C316.326 19.7018 316.47 19.8058 316.622 19.9178C316.77 20.0258 316.906 20.1298 317.03 20.2298V18.6098H317.816V22.0118L317.798 22.0178ZM317.816 17.33H314.108L314.426 18.152H313.532L312.848 16.4H317.816V17.33Z" fill="#88714E"/>
<line x1="320" y1="16.5" x2="362" y2="16.5" stroke="#88714E"/>
<line x1="320" y1="157.694" x2="362" y2="157.694" stroke="#88714E"/>
<line x1="320" y1="159.222" x2="362" y2="159.222" stroke="#88714E" stroke-width="0.5"/>
<line x1="320" y1="104.05" x2="362" y2="104.05" stroke="#88714E"/>
<line x1="320" y1="105.577" x2="362" y2="105.577" stroke="#88714E" stroke-width="0.5"/>
<line x1="320" y1="26.7181" x2="362" y2="26.7181" stroke="#88714E"/>
<line x1="320" y1="28.2455" x2="362" y2="28.2455" stroke="#88714E" stroke-width="0.5"/>
<line x1="320" y1="50.4053" x2="362" y2="50.4053" stroke="#88714E"/>
<line x1="320" y1="59.3461" x2="362" y2="59.3461" stroke="#88714E"/>
<line x1="320" y1="97.6636" x2="362" y2="97.6636" stroke="#88714E"/>
<line x1="320" y1="100.218" x2="362" y2="100.218" stroke="#88714E"/>
<line x1="320" y1="70.8414" x2="362" y2="70.8414" stroke="#88714E"/>
<line x1="320" y1="73.3958" x2="362" y2="73.3958" stroke="#88714E"/>
<line x1="320" y1="146.78" x2="362" y2="146.78" stroke="#88714E"/>
<line x1="320" y1="149.334" x2="362" y2="149.334" stroke="#88714E"/>
<line x1="320" y1="162.75" x2="362" y2="162.75" stroke="#88714E" stroke-width="2.5"/>
<line x1="320" y1="106.604" x2="362" y2="106.604" stroke="#88714E"/>
<line x1="320" y1="108.132" x2="362" y2="108.132" stroke="#88714E" stroke-width="0.5"/>
<line x1="320" y1="111.66" x2="362" y2="111.66" stroke="#88714E" stroke-width="2.5"/>
<line x1="320" y1="125.013" x2="362" y2="125.013" stroke="#88714E" stroke-width="2.5"/>
<line x1="320" y1="41.9919" x2="362" y2="41.9919" stroke="#88714E" stroke-width="2.5"/>
<line x1="320" y1="75.9502" x2="362" y2="75.9502" stroke="#88714E"/>
<line x1="320" y1="77.4778" x2="362" y2="77.4778" stroke="#88714E" stroke-width="0.5"/>
<line x1="320" y1="81.006" x2="362" y2="81.006" stroke="#88714E" stroke-width="2.5"/>
<line x1="320" y1="33.6319" x2="362" y2="33.6319" stroke="#88714E" stroke-width="2.5"/>
<line x1="320" y1="85.1412" x2="362" y2="85.1412" stroke="#88714E" stroke-width="0.5"/>
<line x1="320" y1="89.2501" x2="362" y2="89.2501" stroke="#88714E" stroke-width="2.5"/>
<line x1="320" y1="143.528" x2="362" y2="143.528" stroke="#88714E"/>
<line x1="320" y1="145.056" x2="362" y2="145.056" stroke="#88714E" stroke-width="0.5"/>
<line x1="320" y1="152.585" x2="362" y2="152.585" stroke="#88714E"/>
<line x1="320" y1="155.14" x2="362" y2="155.14" stroke="#88714E"/>
<line x1="320" y1="150.861" x2="362" y2="150.861" stroke="#88714E" stroke-width="0.5"/>
<line x1="320" y1="45.993" x2="362" y2="45.993" stroke="#88714E"/>
<line x1="320" y1="48.5475" x2="362" y2="48.5475" stroke="#88714E"/>
<line x1="320" y1="57.0416" x2="362" y2="57.0416" stroke="#88714E" stroke-width="0.5"/>
<line x1="320" y1="54.9339" x2="362" y2="54.9339" stroke="#88714E"/>
<line x1="320" y1="132.399" x2="362" y2="132.399" stroke="#88714E" stroke-width="0.5"/>
<line x1="320" y1="53.21" x2="362" y2="53.21" stroke="#88714E" stroke-width="0.5"/>
<line x1="320" y1="127.29" x2="362" y2="127.29" stroke="#88714E" stroke-width="0.5"/>
<line x1="320" y1="131.122" x2="362" y2="131.122" stroke="#88714E" stroke-width="0.5"/>
<line x1="320" y1="44.2692" x2="362" y2="44.2692" stroke="#88714E" stroke-width="0.5"/>
<line x1="320" y1="116.242" x2="362" y2="116.242" stroke="#88714E"/>
<line x1="320" y1="114.518" x2="362" y2="114.518" stroke="#88714E" stroke-width="0.5"/>
<line x1="320" y1="119.627" x2="362" y2="119.627" stroke="#88714E" stroke-width="0.5"/>
<line x1="320" y1="120.904" x2="362" y2="120.904" stroke="#88714E" stroke-width="0.5"/>
<line x1="320" y1="122.181" x2="362" y2="122.181" stroke="#88714E" stroke-width="0.5"/>
<line x1="320" y1="37.6327" x2="362" y2="37.6327" stroke="#88714E"/>
<line x1="320" y1="35.9088" x2="362" y2="35.9088" stroke="#88714E" stroke-width="0.5"/>
<line x1="320" y1="22.306" x2="362" y2="22.306" stroke="#88714E"/>
<line x1="320" y1="24.8605" x2="362" y2="24.8605" stroke="#88714E"/>
<line x1="320" y1="83.8638" x2="362" y2="83.8638" stroke="#88714E" stroke-width="0.5"/>
<line x1="320" y1="93.2511" x2="362" y2="93.2511" stroke="#88714E"/>
<line x1="320" y1="95.806" x2="362" y2="95.806" stroke="#88714E"/>
<line x1="320" y1="91.5272" x2="362" y2="91.5272" stroke="#88714E" stroke-width="0.5"/>
<line x1="320" y1="63.4279" x2="362" y2="63.4279" stroke="#88714E" stroke-width="0.5"/>
<line x1="320" y1="64.7049" x2="362" y2="64.7049" stroke="#88714E" stroke-width="0.5"/>
<line x1="320" y1="65.9824" x2="362" y2="65.9824" stroke="#88714E" stroke-width="0.5"/>
<line x1="320" y1="68.5369" x2="362" y2="68.5369" stroke="#88714E" stroke-width="0.5"/>
<line x1="320" y1="140.921" x2="362" y2="140.921" stroke="#88714E" stroke-width="2.5"/>
<line x1="320" y1="18.4741" x2="362" y2="18.4741" stroke="#88714E"/>
<line x1="320" y1="20.0014" x2="362" y2="20.0014" stroke="#88714E" stroke-width="0.5"/>
<line x1="320" y1="136.508" x2="362" y2="136.508" stroke="#88714E" stroke-width="2.5"/>
</svg>
