<svg width="280" height="140" viewBox="0 0 280 140" fill="none" xmlns="http://www.w3.org/2000/svg">
<path fill-rule="evenodd" clip-rule="evenodd" d="M221.529 0C221.529 2.89949 219.317 5.25 216.588 5.25C213.859 5.25 211.647 2.89949 211.647 0H10C4.47715 0 0 4.47716 0 10V130C0 135.523 4.47715 140 10 140H211.647C211.647 137.101 213.859 134.75 216.588 134.75C219.317 134.75 221.529 137.101 221.529 140H270C275.523 140 280 135.523 280 130V10C280 4.47715 275.523 0 270 0H221.529ZM216.363 8.75V14.5833H217.063V8.75H216.363ZM216.363 20.4167V26.25H217.063V20.4167H216.363ZM216.363 32.0833V37.9167H217.063V32.0833H216.363ZM216.363 43.75V49.5833H217.063V43.75H216.363ZM216.363 55.4167V61.25H217.063V55.4167H216.363ZM216.363 67.0833V72.9167H217.063V67.0833H216.363ZM216.363 78.75V84.5833H217.063V78.75H216.363ZM216.363 90.4167V96.25H217.063V90.4167H216.363ZM216.363 102.083V107.917H217.063V102.083H216.363ZM216.363 113.75V119.583H217.063V113.75H216.363ZM216.363 125.417V131.25H217.063V125.417H216.363Z" fill="#001630"/>
<path d="M13.9993 17.42L15.0913 12.968H16.0273V17.816H15.6073V13.37H15.4213L14.3113 17.816H13.5493L12.4453 13.364H12.2593V17.816H11.8393V12.968H12.7693L13.8673 17.42H13.9993ZM19.8323 17.816L21.4043 12.968H22.3103L23.8823 17.816H23.4083L23.0603 16.706H20.6603L20.3063 17.816H19.8323ZM21.7283 13.364L20.7863 16.31H22.9403L22.0283 13.364H21.7283ZM28.1171 15.854V17.816H27.6971V12.968H28.1171V15.236L30.4751 12.968H31.0451L28.9751 15.008L31.1111 17.816H30.5651L28.6631 15.314L28.1171 15.854ZM37.8456 12.968V13.364H35.3136V15.164H37.5996V15.56H35.3136V17.426H37.9116V17.816H34.8936V12.968H37.8456ZM48.5143 17.576C48.7263 17.576 48.9163 17.552 49.0843 17.504C49.2563 17.456 49.4023 17.38 49.5223 17.276C49.6423 17.172 49.7343 17.036 49.7983 16.868C49.8663 16.7 49.9003 16.496 49.9003 16.256V12.968H50.3203V16.058C50.3203 16.726 50.1723 17.212 49.8763 17.516C49.5843 17.82 49.1303 17.972 48.5143 17.972C47.8943 17.972 47.4383 17.82 47.1463 17.516C46.8583 17.212 46.7143 16.726 46.7143 16.058V12.968H47.1343V16.256C47.1343 16.496 47.1663 16.7 47.2303 16.868C47.2943 17.036 47.3863 17.172 47.5063 17.276C47.6263 17.38 47.7703 17.456 47.9383 17.504C48.1103 17.552 48.3023 17.576 48.5143 17.576ZM57.4034 17.42V12.968H57.8234V17.816H57.0194L54.9614 13.364H54.8054V17.816H54.3854V12.968H55.2074L57.2714 17.42H57.4034ZM61.7064 17.816V17.426H62.3964V13.364H61.7064V12.968H63.5244V13.364H62.8284V17.426H63.5244V17.816H61.7064ZM69.2855 17.42L70.6655 12.968H71.1395L69.5675 17.816H68.6615L67.0895 12.968H67.5635L68.9855 17.42H69.2855ZM77.8546 12.968V13.364H75.3226V15.164H77.6086V15.56H75.3226V17.426H77.9206V17.816H74.9026V12.968H77.8546ZM84.9141 17.816L83.9301 15.77H82.2261V17.816H81.8061V12.968H83.6841C83.9721 12.968 84.2121 13.014 84.4041 13.106C84.6001 13.194 84.7581 13.308 84.8781 13.448C84.9981 13.584 85.0821 13.734 85.1301 13.898C85.1821 14.062 85.2081 14.22 85.2081 14.372C85.2081 14.492 85.1921 14.616 85.1601 14.744C85.1281 14.868 85.0781 14.988 85.0101 15.104C84.9421 15.216 84.8521 15.32 84.7401 15.416C84.6281 15.508 84.4941 15.582 84.3381 15.638L85.3941 17.816H84.9141ZM82.2261 15.374H83.6481C83.8041 15.374 83.9521 15.358 84.0921 15.326C84.2321 15.29 84.3541 15.234 84.4581 15.158C84.5621 15.078 84.6441 14.974 84.7041 14.846C84.7641 14.714 84.7941 14.552 84.7941 14.36C84.7941 14.18 84.7661 14.028 84.7101 13.904C84.6581 13.776 84.5861 13.672 84.4941 13.592C84.4021 13.512 84.2961 13.454 84.1761 13.418C84.0601 13.382 83.9381 13.364 83.8101 13.364H82.2261V15.374ZM92.0876 14.264C92.0756 13.888 91.9596 13.618 91.7396 13.454C91.5236 13.29 91.2016 13.208 90.7736 13.208C90.5496 13.208 90.3596 13.232 90.2036 13.28C90.0516 13.324 89.9276 13.388 89.8316 13.472C89.7356 13.552 89.6656 13.646 89.6216 13.754C89.5776 13.862 89.5556 13.978 89.5556 14.102C89.5556 14.246 89.5856 14.37 89.6456 14.474C89.7096 14.578 89.7896 14.668 89.8856 14.744C89.9856 14.816 90.0956 14.878 90.2156 14.93C90.3396 14.978 90.4636 15.02 90.5876 15.056C90.7116 15.088 90.8276 15.116 90.9356 15.14C91.0476 15.16 91.1396 15.18 91.2116 15.2C91.4116 15.256 91.5956 15.32 91.7636 15.392C91.9316 15.46 92.0756 15.548 92.1956 15.656C92.3196 15.764 92.4156 15.894 92.4836 16.046C92.5516 16.198 92.5856 16.382 92.5856 16.598C92.5856 16.874 92.5296 17.102 92.4176 17.282C92.3096 17.462 92.1656 17.604 91.9856 17.708C91.8096 17.812 91.6096 17.882 91.3856 17.918C91.1616 17.958 90.9356 17.974 90.7076 17.966C90.1716 17.95 89.7596 17.81 89.4716 17.546C89.1876 17.282 89.0336 16.866 89.0096 16.298H89.4176C89.4216 16.434 89.4416 16.578 89.4776 16.73C89.5136 16.878 89.5796 17.014 89.6756 17.138C89.7716 17.262 89.9036 17.364 90.0716 17.444C90.2436 17.528 90.4636 17.572 90.7316 17.576C90.9556 17.58 91.1576 17.564 91.3376 17.528C91.5176 17.492 91.6696 17.434 91.7936 17.354C91.9176 17.274 92.0116 17.17 92.0756 17.042C92.1436 16.918 92.1776 16.768 92.1776 16.592C92.1776 16.456 92.1516 16.332 92.0996 16.22C92.0516 16.108 91.9676 16.006 91.8476 15.914C91.7276 15.818 91.5656 15.732 91.3616 15.656C91.1616 15.58 90.9096 15.51 90.6056 15.446C90.4376 15.41 90.2656 15.36 90.0896 15.296C89.9176 15.232 89.7596 15.148 89.6156 15.044C89.4756 14.94 89.3616 14.814 89.2736 14.666C89.1856 14.514 89.1416 14.334 89.1416 14.126C89.1416 13.91 89.1796 13.72 89.2556 13.556C89.3356 13.392 89.4476 13.256 89.5916 13.148C89.7356 13.036 89.9076 12.952 90.1076 12.896C90.3116 12.84 90.5356 12.812 90.7796 12.812C91.0556 12.812 91.2976 12.846 91.5056 12.914C91.7176 12.982 91.8936 13.08 92.0336 13.208C92.1776 13.332 92.2876 13.484 92.3636 13.664C92.4396 13.844 92.4816 14.044 92.4896 14.264H92.0876ZM96.2357 17.816V17.426H96.9257V13.364H96.2357V12.968H98.0537V13.364H97.3577V17.426H98.0537V17.816H96.2357ZM103.171 13.364H101.695V12.968H105.085V13.364H103.603V17.816H103.171V13.364ZM112.088 12.968H112.604L110.87 15.884V17.816H110.438V15.884L108.704 12.968H109.22L110.654 15.374L112.088 12.968ZM121.673 12.968V17.426H124.073V17.816H121.253V12.968H121.673ZM127.689 17.816V17.426H128.379V13.364H127.689V12.968H129.507V13.364H128.811V17.426H129.507V17.816H127.689ZM136.366 12.968V13.364H133.798V15.164H136.18V15.56H133.798V17.816H133.378V12.968H136.366ZM143.14 12.968V13.364H140.608V15.164H142.894V15.56H140.608V17.426H143.206V17.816H140.188V12.968H143.14ZM154.168 17.42L155.26 12.968H156.196V17.816H155.776V13.37H155.59L154.48 17.816H153.718L152.614 13.364H152.428V17.816H152.008V12.968H152.938L154.036 17.42H154.168ZM160.205 16.112C160.201 15.872 160.197 15.626 160.193 15.374C160.193 15.122 160.197 14.876 160.205 14.636C160.229 14 160.399 13.538 160.715 13.25C161.035 12.958 161.499 12.812 162.107 12.812C162.715 12.812 163.183 12.964 163.511 13.268C163.843 13.572 164.009 14.044 164.009 14.684C164.017 15.16 164.017 15.636 164.009 16.112C164.001 16.748 163.835 17.216 163.511 17.516C163.187 17.82 162.719 17.972 162.107 17.972C161.495 17.972 161.027 17.82 160.703 17.516C160.379 17.216 160.213 16.748 160.205 16.112ZM160.625 14.51C160.601 15.118 160.601 15.708 160.625 16.28C160.633 16.508 160.675 16.704 160.751 16.868C160.831 17.028 160.937 17.16 161.069 17.264C161.201 17.372 161.355 17.45 161.531 17.498C161.707 17.55 161.899 17.576 162.107 17.576C162.311 17.576 162.501 17.55 162.677 17.498C162.857 17.45 163.013 17.372 163.145 17.264C163.277 17.16 163.381 17.028 163.457 16.868C163.537 16.704 163.581 16.508 163.589 16.28C163.601 15.992 163.609 15.702 163.613 15.41C163.617 15.114 163.609 14.814 163.589 14.51C163.577 14.278 163.529 14.08 163.445 13.916C163.361 13.752 163.253 13.618 163.121 13.514C162.989 13.406 162.835 13.328 162.659 13.28C162.487 13.232 162.303 13.208 162.107 13.208C161.907 13.208 161.719 13.234 161.543 13.286C161.371 13.334 161.217 13.412 161.081 13.52C160.949 13.624 160.841 13.758 160.757 13.922C160.677 14.086 160.633 14.282 160.625 14.51ZM171.127 17.816L170.143 15.77H168.439V17.816H168.019V12.968H169.897C170.185 12.968 170.425 13.014 170.617 13.106C170.813 13.194 170.971 13.308 171.091 13.448C171.211 13.584 171.295 13.734 171.343 13.898C171.395 14.062 171.421 14.22 171.421 14.372C171.421 14.492 171.405 14.616 171.373 14.744C171.341 14.868 171.291 14.988 171.223 15.104C171.155 15.216 171.065 15.32 170.953 15.416C170.841 15.508 170.707 15.582 170.551 15.638L171.607 17.816H171.127ZM168.439 15.374H169.861C170.017 15.374 170.165 15.358 170.305 15.326C170.445 15.29 170.567 15.234 170.671 15.158C170.775 15.078 170.857 14.974 170.917 14.846C170.977 14.714 171.007 14.552 171.007 14.36C171.007 14.18 170.979 14.028 170.923 13.904C170.871 13.776 170.799 13.672 170.707 13.592C170.615 13.512 170.509 13.454 170.389 13.418C170.273 13.382 170.151 13.364 170.023 13.364H168.439V15.374ZM178.372 12.968V13.364H175.84V15.164H178.126V15.56H175.84V17.426H178.438V17.816H175.42V12.968H178.372ZM190.229 12.968V13.364H187.661V15.164H190.043V15.56H187.661V17.816H187.241V12.968H190.229ZM195.851 17.576C196.063 17.576 196.253 17.552 196.421 17.504C196.593 17.456 196.739 17.38 196.859 17.276C196.979 17.172 197.071 17.036 197.135 16.868C197.203 16.7 197.237 16.496 197.237 16.256V12.968H197.657V16.058C197.657 16.726 197.509 17.212 197.213 17.516C196.921 17.82 196.467 17.972 195.851 17.972C195.231 17.972 194.775 17.82 194.483 17.516C194.195 17.212 194.051 16.726 194.051 16.058V12.968H194.471V16.256C194.471 16.496 194.503 16.7 194.567 16.868C194.631 17.036 194.723 17.172 194.843 17.276C194.963 17.38 195.107 17.456 195.275 17.504C195.447 17.552 195.639 17.576 195.851 17.576ZM204.74 17.42V12.968H205.16V17.816H204.356L202.298 13.364H202.142V17.816H201.722V12.968H202.544L204.608 17.42H204.74Z" fill="#88714E"/>
<path d="M21.8523 36.204C21.8523 37.6227 21.4556 38.6773 20.6623 39.368C19.8689 40.0587 18.7676 40.404 17.3583 40.404H13.6343V29.092H17.3583C18.7863 29.092 19.8923 29.4653 20.6763 30.212C21.4603 30.9587 21.8523 32.0553 21.8523 33.502V36.204ZM15.8883 38.472H17.2043C17.6429 38.472 18.0116 38.4253 18.3103 38.332C18.6183 38.2387 18.8656 38.0893 19.0523 37.884C19.2389 37.6693 19.3743 37.3987 19.4583 37.072C19.5423 36.7453 19.5843 36.3487 19.5843 35.882V33.908C19.5843 32.9747 19.4069 32.256 19.0523 31.752C18.6976 31.248 18.0816 30.996 17.2043 30.996H15.8883V38.472ZM33.3038 29.092V30.996H28.3898V33.768H32.7298V35.686H28.3898V38.472H33.4578V40.404H26.1358V29.092H33.3038ZM39.948 36.75V40.404H37.694V29.092H42.02C42.692 29.092 43.2613 29.218 43.728 29.47C44.204 29.722 44.5867 30.0393 44.876 30.422C45.1747 30.8047 45.3893 31.22 45.52 31.668C45.66 32.116 45.73 32.536 45.73 32.928C45.73 33.32 45.66 33.74 45.52 34.188C45.3893 34.636 45.1747 35.0513 44.876 35.434C44.5867 35.8073 44.204 36.12 43.728 36.372C43.2613 36.624 42.692 36.75 42.02 36.75H39.948ZM41.348 34.86C42.02 34.86 42.538 34.7013 42.902 34.384C43.2753 34.0573 43.462 33.572 43.462 32.928C43.462 32.2933 43.2753 31.8127 42.902 31.486C42.538 31.1593 42.02 30.996 41.348 30.996H39.948V34.86H41.348ZM48.0763 40.404L51.8143 29.092H54.0683L57.8063 40.404H55.6223L54.9363 38.318H50.9323L50.2603 40.404H48.0763ZM52.9343 32.13L51.5203 36.47H54.3343L52.9343 32.13ZM68.1775 40.404L66.1615 35.98H64.1035V40.404H61.8495V29.092H66.5395C67.2115 29.092 67.7715 29.1993 68.2195 29.414C68.6768 29.6287 69.0455 29.8993 69.3255 30.226C69.6055 30.5527 69.8015 30.912 69.9135 31.304C70.0348 31.696 70.0955 32.0693 70.0955 32.424C70.0955 32.704 70.0675 32.9793 70.0115 33.25C69.9648 33.5113 69.8715 33.768 69.7315 34.02C69.6008 34.2627 69.4141 34.496 69.1715 34.72C68.9381 34.9347 68.6395 35.1307 68.2755 35.308L70.5995 40.404H68.1775ZM64.1035 34.076H65.7555C66.0541 34.076 66.3295 34.0573 66.5815 34.02C66.8335 33.9733 67.0481 33.894 67.2255 33.782C67.4121 33.6607 67.5568 33.502 67.6595 33.306C67.7621 33.1007 67.8135 32.8393 67.8135 32.522C67.8135 32.2047 67.7621 31.948 67.6595 31.752C67.5568 31.556 67.4121 31.402 67.2255 31.29C67.0481 31.178 66.8335 31.1033 66.5815 31.066C66.3295 31.0193 66.0541 30.996 65.7555 30.996H64.1035V34.076ZM76.509 30.996H73.681V29.092H81.591V30.996H78.763V40.404H76.509V30.996ZM90.6625 37.394L93.2665 29.092H95.7025V40.404H93.6585V33.95L91.6145 40.404H89.6965L87.6665 33.936V40.404H85.6085V29.092H88.0445L90.6625 37.394ZM107.493 29.092V30.996H102.579V33.768H106.919V35.686H102.579V38.472H107.647V40.404H100.325V29.092H107.493ZM113.983 29.092L118.029 36.288V29.092H120.213V40.404H118.155L114.137 33.222V40.404H111.883V29.092H113.983ZM127.089 30.996H124.261V29.092H132.171V30.996H129.343V40.404H127.089V30.996ZM149.538 35.91H147.522V34.062H151.666V36.946C151.666 37.562 151.564 38.0987 151.358 38.556C151.153 39.0227 150.864 39.4053 150.49 39.704C150.117 40.012 149.664 40.2407 149.132 40.39C148.61 40.5487 148.026 40.628 147.382 40.628C145.964 40.628 144.858 40.25 144.064 39.494C143.271 38.7473 142.874 37.632 142.874 36.148V33.236C142.874 32.4893 142.977 31.836 143.182 31.276C143.388 30.716 143.686 30.2493 144.078 29.876C144.47 29.4933 144.946 29.2087 145.506 29.022C146.066 28.826 146.701 28.728 147.41 28.728C148.708 28.728 149.716 29.05 150.434 29.694C151.162 30.3287 151.564 31.22 151.638 32.368H149.398C149.296 31.752 149.09 31.3087 148.782 31.038C148.484 30.758 148.026 30.618 147.41 30.618C146.626 30.618 146.043 30.87 145.66 31.374C145.287 31.8687 145.1 32.6387 145.1 33.684V35.728C145.1 37.7627 145.861 38.78 147.382 38.78C147.998 38.78 148.512 38.6027 148.922 38.248C149.333 37.8933 149.538 37.3707 149.538 36.68V35.91ZM162.626 40.404L160.61 35.98H158.552V40.404H156.298V29.092H160.988C161.66 29.092 162.22 29.1993 162.668 29.414C163.125 29.6287 163.494 29.8993 163.774 30.226C164.054 30.5527 164.25 30.912 164.362 31.304C164.483 31.696 164.544 32.0693 164.544 32.424C164.544 32.704 164.516 32.9793 164.46 33.25C164.413 33.5113 164.32 33.768 164.18 34.02C164.049 34.2627 163.862 34.496 163.62 34.72C163.386 34.9347 163.088 35.1307 162.724 35.308L165.048 40.404H162.626ZM158.552 34.076H160.204C160.502 34.076 160.778 34.0573 161.03 34.02C161.282 33.9733 161.496 33.894 161.674 33.782C161.86 33.6607 162.005 33.502 162.108 33.306C162.21 33.1007 162.262 32.8393 162.262 32.522C162.262 32.2047 162.21 31.948 162.108 31.752C162.005 31.556 161.86 31.402 161.674 31.29C161.496 31.178 161.282 31.1033 161.03 31.066C160.778 31.0193 160.502 30.996 160.204 30.996H158.552V34.076ZM168.629 33.236C168.629 32.4893 168.737 31.836 168.951 31.276C169.175 30.716 169.488 30.2493 169.889 29.876C170.3 29.4933 170.79 29.2087 171.359 29.022C171.938 28.826 172.582 28.728 173.291 28.728C174.001 28.728 174.645 28.826 175.223 29.022C175.802 29.2087 176.292 29.4933 176.693 29.876C177.104 30.2493 177.421 30.716 177.645 31.276C177.869 31.836 177.981 32.4893 177.981 33.236V36.148C177.981 36.8853 177.869 37.534 177.645 38.094C177.421 38.654 177.104 39.1207 176.693 39.494C176.292 39.8673 175.802 40.1473 175.223 40.334C174.645 40.53 174.001 40.628 173.291 40.628C172.582 40.628 171.938 40.53 171.359 40.334C170.79 40.1473 170.3 39.8673 169.889 39.494C169.488 39.1207 169.175 38.654 168.951 38.094C168.737 37.534 168.629 36.8853 168.629 36.148V33.236ZM170.855 35.868C170.855 36.8947 171.061 37.632 171.471 38.08C171.891 38.528 172.498 38.752 173.291 38.752C174.075 38.752 174.673 38.528 175.083 38.08C175.503 37.632 175.713 36.8947 175.713 35.868V33.544C175.713 32.508 175.503 31.766 175.083 31.318C174.663 30.87 174.066 30.646 173.291 30.646C172.507 30.646 171.905 30.87 171.485 31.318C171.065 31.766 170.855 32.508 170.855 33.544V35.868ZM186.776 38.752C188.195 38.752 188.904 37.9773 188.904 36.428V29.092H191.144V36.162C191.144 37.7207 190.789 38.8547 190.08 39.564C189.38 40.2733 188.279 40.628 186.776 40.628C185.264 40.628 184.158 40.2733 183.458 39.564C182.758 38.8547 182.408 37.7207 182.408 36.162V29.092H184.662V36.428C184.662 37.9773 185.367 38.752 186.776 38.752ZM198.011 36.75V40.404H195.757V29.092H200.083C200.755 29.092 201.325 29.218 201.791 29.47C202.267 29.722 202.65 30.0393 202.939 30.422C203.238 30.8047 203.453 31.22 203.583 31.668C203.723 32.116 203.793 32.536 203.793 32.928C203.793 33.32 203.723 33.74 203.583 34.188C203.453 34.636 203.238 35.0513 202.939 35.434C202.65 35.8073 202.267 36.12 201.791 36.372C201.325 36.624 200.755 36.75 200.083 36.75H198.011ZM199.411 34.86C200.083 34.86 200.601 34.7013 200.965 34.384C201.339 34.0573 201.525 33.572 201.525 32.928C201.525 32.2933 201.339 31.8127 200.965 31.486C200.601 31.1593 200.083 30.996 199.411 30.996H198.011V34.86H199.411Z" fill="#DBB17C"/>
<path d="M19.7352 46.06C20.6952 46.06 21.5019 46.1933 22.1552 46.46C22.8086 46.7267 23.3352 47.0733 23.7352 47.5C24.1486 47.9267 24.4419 48.4133 24.6152 48.96C24.8019 49.5067 24.8952 50.0667 24.8952 50.64C24.8952 51.2933 24.6952 51.9267 24.2952 52.54C23.9086 53.1533 23.3152 53.6267 22.5152 53.96C22.8752 54.0667 23.2286 54.2267 23.5752 54.44C23.9352 54.6533 24.2486 54.9133 24.5152 55.22C24.7819 55.5267 24.9952 55.8867 25.1552 56.3C25.3286 56.7 25.4152 57.1533 25.4152 57.66C25.4152 59.3 24.9552 60.4667 24.0352 61.16C23.1152 61.8667 21.6686 62.22 19.6952 62.22H13.5552V46.06H19.7352ZM16.7752 52.76H18.5752C18.9886 52.76 19.3819 52.74 19.7552 52.7C20.1286 52.66 20.4486 52.5733 20.7152 52.44C20.9952 52.2933 21.2152 52.0867 21.3752 51.82C21.5352 51.5533 21.6152 51.1933 21.6152 50.74C21.6152 50.2867 21.5352 49.9333 21.3752 49.68C21.2152 49.4133 20.9952 49.2133 20.7152 49.08C20.4486 48.9467 20.1286 48.8667 19.7552 48.84C19.3819 48.8 18.9886 48.78 18.5752 48.78H16.7752V52.76ZM16.7752 59.48H19.1952C19.6619 59.48 20.0819 59.4667 20.4552 59.44C20.8286 59.4 21.1486 59.32 21.4152 59.2C21.6819 59.08 21.8886 58.9 22.0352 58.66C22.1819 58.42 22.2552 58.0867 22.2552 57.66C22.2552 57.22 22.1952 56.86 22.0752 56.58C21.9552 56.3 21.7686 56.08 21.5152 55.92C21.2752 55.76 20.9619 55.6467 20.5752 55.58C20.1886 55.5133 19.7286 55.48 19.1952 55.48H16.7752V59.48ZM30.3151 46.06V59.46H36.7351V62.22H27.0951V46.06H30.3151ZM37.9893 62.22V59.66H39.4093V48.62H37.9893V46.06H44.0493V48.62H42.5893V59.66H44.0493V62.22H37.9893ZM48.913 46.06L54.693 56.34V46.06H57.813V62.22H54.873L49.133 51.96V62.22H45.913V46.06H48.913ZM71.8765 56.22C71.8765 58.2467 71.3098 59.7533 70.1765 60.74C69.0432 61.7267 67.4698 62.22 65.4565 62.22H60.1365V46.06H65.4565C67.4965 46.06 69.0765 46.5933 70.1965 47.66C71.3165 48.7267 71.8765 50.2933 71.8765 52.36V56.22ZM63.3565 59.46H65.2365C65.8632 59.46 66.3898 59.3933 66.8165 59.26C67.2565 59.1267 67.6098 58.9133 67.8765 58.62C68.1432 58.3133 68.3365 57.9267 68.4565 57.46C68.5765 56.9933 68.6365 56.4267 68.6365 55.76V52.94C68.6365 51.6067 68.3832 50.58 67.8765 49.86C67.3698 49.14 66.4898 48.78 65.2365 48.78H63.3565V59.46ZM91.0265 56.22C91.0265 58.2467 90.4598 59.7533 89.3265 60.74C88.1931 61.7267 86.6198 62.22 84.6065 62.22H79.2865V46.06H84.6065C86.6465 46.06 88.2265 46.5933 89.3465 47.66C90.4665 48.7267 91.0265 50.2933 91.0265 52.36V56.22ZM82.5065 59.46H84.3865C85.0131 59.46 85.5398 59.3933 85.9665 59.26C86.4065 59.1267 86.7598 58.9133 87.0265 58.62C87.2931 58.3133 87.4865 57.9267 87.6065 57.46C87.7265 56.9933 87.7865 56.4267 87.7865 55.76V52.94C87.7865 51.6067 87.5331 50.58 87.0265 49.86C86.5198 49.14 85.6398 48.78 84.3865 48.78H82.5065V59.46ZM91.3418 62.22L96.6818 46.06H99.9018L105.242 62.22H102.122L101.142 59.24H95.4218L94.4618 62.22H91.3418ZM98.2818 50.4L96.2618 56.6H100.282L98.2818 50.4ZM108.238 48.78H104.198V46.06H115.498V48.78H111.458V62.22H108.238V48.78ZM127.177 46.06V48.78H120.157V52.74H126.357V55.48H120.157V59.46H127.397V62.22H116.937V46.06H127.177ZM137.94 48.78H133.9V46.06H145.2V48.78H141.16V62.22H137.94V48.78ZM146.571 62.22V59.66H147.991V48.62H146.571V46.06H152.631V48.62H151.171V59.66H152.631V62.22H146.571ZM166.323 57.24C166.283 58.12 166.109 58.8933 165.803 59.56C165.509 60.2267 165.089 60.78 164.543 61.22C164.009 61.66 163.363 61.9867 162.603 62.2C161.856 62.4267 161.016 62.54 160.083 62.54C159.083 62.54 158.189 62.4267 157.403 62.2C156.629 61.9733 155.976 61.6133 155.443 61.12C154.923 60.6267 154.523 60 154.243 59.24C153.976 58.48 153.843 57.5667 153.843 56.5V51.78C153.843 50.7133 153.989 49.7933 154.283 49.02C154.576 48.2333 155.003 47.5867 155.563 47.08C156.123 46.56 156.803 46.1733 157.603 45.92C158.403 45.6667 159.309 45.54 160.323 45.54C162.176 45.54 163.616 46 164.643 46.92C165.683 47.8267 166.256 49.1 166.363 50.74H163.183C163.036 49.86 162.743 49.2333 162.303 48.86C161.863 48.4733 161.203 48.28 160.323 48.28C159.216 48.28 158.383 48.6 157.823 49.24C157.276 49.88 157.003 50.94 157.003 52.42V55.94C157.003 56.6733 157.056 57.2933 157.163 57.8C157.283 58.2933 157.463 58.6933 157.703 59C157.956 59.3067 158.276 59.5267 158.663 59.66C159.063 59.7933 159.536 59.86 160.083 59.86C160.963 59.86 161.656 59.6533 162.163 59.24C162.669 58.8267 162.969 58.16 163.063 57.24H166.323ZM174.21 53.18L180.05 62.22H176.59L172.37 55.78L171.45 57.02V62.22H168.23V46.06H171.45V52.08L175.79 46.06H179.47L174.21 53.18ZM191.659 46.06V48.78H184.639V52.74H190.839V55.48H184.639V59.46H191.879V62.22H181.419V46.06H191.659ZM197.026 48.78H192.986V46.06H204.286V48.78H200.246V62.22H197.026V48.78Z" fill="#DBB17C"/>
<path d="M11 21H206" stroke="#88714E"/>
<line x1="11" y1="72.5" x2="206" y2="72.5" stroke="#88714E" stroke-width="2"/>
<line x1="11" y1="75" x2="206" y2="75" stroke="#88714E"/>
<path d="M45.1144 87.152H43.1464V86.624H47.6664V87.152H45.6904V93.088H45.1144V87.152ZM52.1941 86.624V87.152H48.8181V89.552H51.8661V90.08H48.8181V92.568H52.2821V93.088H48.2581V86.624H52.1941ZM52.7498 93.088L54.8458 86.624H56.0538L58.1498 93.088H57.5178L57.0538 91.608H53.8538L53.3818 93.088H52.7498ZM55.2778 87.152L54.0218 91.08H56.8938L55.6778 87.152H55.2778ZM61.7162 92.56L63.1722 86.624H64.4202V93.088H63.8602V87.16H63.6122L62.1322 93.088H61.1162L59.6442 87.152H59.3962V93.088H58.8362V86.624H60.0762L61.5402 92.56H61.7162Z" fill="#88714E"/>
<path d="M95.7079 92.56V86.624H96.2679V93.088H95.1959L92.4519 87.152H92.2439V93.088H91.6839V86.624H92.7799L95.5319 92.56H95.7079ZM99.6933 92.768C99.9759 92.768 100.229 92.736 100.453 92.672C100.683 92.608 100.877 92.5067 101.037 92.368C101.197 92.2293 101.32 92.048 101.405 91.824C101.496 91.6 101.541 91.328 101.541 91.008V86.624H102.101V90.744C102.101 91.6347 101.904 92.2827 101.509 92.688C101.12 93.0933 100.515 93.296 99.6933 93.296C98.8666 93.296 98.2586 93.0933 97.8693 92.688C97.4853 92.2827 97.2933 91.6347 97.2933 90.744V86.624H97.8533V91.008C97.8533 91.328 97.8959 91.6 97.9813 91.824C98.0666 92.048 98.1893 92.2293 98.3493 92.368C98.5093 92.5067 98.7013 92.608 98.9253 92.672C99.1546 92.736 99.4106 92.768 99.6933 92.768ZM106.001 92.56L107.457 86.624H108.705V93.088H108.145V87.16H107.897L106.417 93.088H105.401L103.929 87.152H103.681V93.088H103.121V86.624H104.361L105.825 92.56H106.001ZM112.019 86.624C112.419 86.624 112.752 86.6747 113.019 86.776C113.285 86.872 113.499 87.0027 113.659 87.168C113.819 87.328 113.931 87.5147 113.995 87.728C114.064 87.936 114.099 88.1547 114.099 88.384C114.099 88.512 114.077 88.648 114.035 88.792C113.992 88.936 113.928 89.072 113.843 89.2C113.763 89.328 113.661 89.4453 113.539 89.552C113.421 89.6533 113.283 89.7307 113.123 89.784C113.475 89.8693 113.76 90.0373 113.979 90.288C114.197 90.5333 114.307 90.8587 114.307 91.264C114.307 91.5947 114.269 91.8747 114.195 92.104C114.12 92.3333 113.997 92.52 113.827 92.664C113.656 92.8133 113.432 92.92 113.155 92.984C112.883 93.0533 112.549 93.088 112.155 93.088H109.731V86.624H112.019ZM110.291 89.576H112.259C112.445 89.576 112.616 89.544 112.771 89.48C112.931 89.416 113.067 89.328 113.179 89.216C113.291 89.104 113.379 88.9733 113.443 88.824C113.507 88.6693 113.539 88.5013 113.539 88.32C113.539 88.1387 113.504 87.976 113.435 87.832C113.371 87.688 113.277 87.5653 113.155 87.464C113.037 87.3627 112.896 87.2853 112.731 87.232C112.571 87.1787 112.395 87.152 112.203 87.152H110.291V89.576ZM110.291 92.56H112.427C112.613 92.56 112.787 92.5387 112.947 92.496C113.107 92.4587 113.245 92.392 113.363 92.296C113.485 92.2 113.579 92.0747 113.643 91.92C113.712 91.7653 113.747 91.5733 113.747 91.344C113.747 91.168 113.72 91.0053 113.667 90.856C113.619 90.7067 113.539 90.576 113.427 90.464C113.32 90.352 113.181 90.264 113.011 90.2C112.84 90.136 112.632 90.104 112.387 90.104H110.291V92.56ZM119.003 86.624V87.152H115.627V89.552H118.675V90.08H115.627V92.568H119.091V93.088H115.067V86.624H119.003ZM124.015 93.088L122.703 90.36H120.431V93.088H119.871V86.624H122.375C122.759 86.624 123.079 86.6853 123.335 86.808C123.597 86.9253 123.807 87.0773 123.967 87.264C124.127 87.4453 124.239 87.6453 124.303 87.864C124.373 88.0827 124.407 88.2933 124.407 88.496C124.407 88.656 124.386 88.8213 124.343 88.992C124.301 89.1573 124.234 89.3173 124.143 89.472C124.053 89.6213 123.933 89.76 123.783 89.888C123.634 90.0107 123.455 90.1093 123.247 90.184L124.655 93.088H124.015ZM120.431 89.832H122.327C122.535 89.832 122.733 89.8107 122.919 89.768C123.106 89.72 123.269 89.6453 123.407 89.544C123.546 89.4373 123.655 89.2987 123.735 89.128C123.815 88.952 123.855 88.736 123.855 88.48C123.855 88.24 123.818 88.0373 123.743 87.872C123.674 87.7013 123.578 87.5627 123.455 87.456C123.333 87.3493 123.191 87.272 123.031 87.224C122.877 87.176 122.714 87.152 122.543 87.152H120.431V89.832Z" fill="#88714E"/>
<path d="M150.709 90.208H148.965V89.68H151.269V91.144C151.269 91.8587 151.067 92.3947 150.661 92.752C150.256 93.1147 149.68 93.296 148.933 93.296C147.339 93.296 146.541 92.4373 146.541 90.72V88.992C146.541 88.5653 146.597 88.192 146.709 87.872C146.827 87.552 146.992 87.2853 147.205 87.072C147.419 86.8533 147.677 86.6907 147.981 86.584C148.285 86.472 148.629 86.416 149.013 86.416C149.712 86.416 150.248 86.6 150.621 86.968C151 87.3307 151.211 87.84 151.253 88.496H150.693C150.661 88.32 150.619 88.1413 150.565 87.96C150.512 87.7787 150.427 87.6133 150.309 87.464C150.192 87.3093 150.029 87.184 149.821 87.088C149.619 86.992 149.349 86.944 149.013 86.944C148.709 86.944 148.44 86.992 148.205 87.088C147.971 87.1787 147.771 87.3093 147.605 87.48C147.44 87.6453 147.315 87.8507 147.229 88.096C147.144 88.336 147.101 88.6027 147.101 88.896V90.872C147.101 91.4587 147.256 91.92 147.565 92.256C147.88 92.5973 148.336 92.768 148.933 92.768C149.269 92.768 149.549 92.7227 149.773 92.632C150.003 92.5467 150.187 92.4293 150.325 92.28C150.464 92.1307 150.563 91.9573 150.621 91.76C150.68 91.5627 150.709 91.352 150.709 91.128V90.208ZM156.3 86.624V87.152H152.924V89.552H155.972V90.08H152.924V92.568H156.388V93.088H152.364V86.624H156.3ZM161.192 92.56V86.624H161.752V93.088H160.68L157.936 87.152H157.728V93.088H157.168V86.624H158.264L161.016 92.56H161.192ZM167.298 90.688C167.298 91.4987 167.071 92.1013 166.618 92.496C166.164 92.8907 165.535 93.088 164.73 93.088H162.778V86.624H164.73C165.546 86.624 166.178 86.8373 166.626 87.264C167.074 87.6907 167.298 88.3173 167.298 89.144V90.688ZM163.338 92.56H164.722C164.972 92.56 165.218 92.5307 165.458 92.472C165.698 92.4133 165.911 92.3093 166.098 92.16C166.29 92.016 166.444 91.8187 166.562 91.568C166.679 91.312 166.738 90.9893 166.738 90.6V89.056C166.738 88.7893 166.695 88.5413 166.61 88.312C166.53 88.0773 166.412 87.8747 166.258 87.704C166.103 87.5333 165.914 87.4 165.69 87.304C165.466 87.2027 165.212 87.152 164.93 87.152H163.338V92.56ZM172.057 86.624V87.152H168.681V89.552H171.729V90.08H168.681V92.568H172.145V93.088H168.121V86.624H172.057ZM177.07 93.088L175.758 90.36H173.486V93.088H172.926V86.624H175.43C175.814 86.624 176.134 86.6853 176.39 86.808C176.651 86.9253 176.862 87.0773 177.022 87.264C177.182 87.4453 177.294 87.6453 177.358 87.864C177.427 88.0827 177.462 88.2933 177.462 88.496C177.462 88.656 177.441 88.8213 177.398 88.992C177.355 89.1573 177.289 89.3173 177.198 89.472C177.107 89.6213 176.987 89.76 176.838 89.888C176.689 90.0107 176.51 90.1093 176.302 90.184L177.71 93.088H177.07ZM173.486 89.832H175.382C175.59 89.832 175.787 89.8107 175.974 89.768C176.161 89.72 176.323 89.6453 176.462 89.544C176.601 89.4373 176.71 89.2987 176.79 89.128C176.87 88.952 176.91 88.736 176.91 88.48C176.91 88.24 176.873 88.0373 176.798 87.872C176.729 87.7013 176.633 87.5627 176.51 87.456C176.387 87.3493 176.246 87.272 176.086 87.224C175.931 87.176 175.769 87.152 175.598 87.152H173.486V89.832Z" fill="#88714E"/>
<line x1="11" y1="123.5" x2="206" y2="123.5" stroke="#88714E"/>
<path d="M54.7734 128.264C54.7614 128.036 54.6834 127.874 54.5394 127.778C54.3994 127.682 54.2054 127.634 53.9574 127.634C53.7214 127.634 53.5394 127.684 53.4114 127.784C53.2834 127.88 53.2234 128.038 53.2314 128.258C53.2354 128.37 53.2794 128.464 53.3634 128.54C53.4514 128.616 53.5554 128.68 53.6754 128.732C53.7954 128.784 53.9194 128.826 54.0474 128.858C54.1794 128.89 54.2874 128.918 54.3714 128.942C54.5874 129.01 54.7834 129.086 54.9594 129.17C55.1394 129.25 55.2934 129.348 55.4214 129.464C55.5494 129.576 55.6494 129.71 55.7214 129.866C55.7934 130.018 55.8294 130.202 55.8294 130.418C55.8294 130.694 55.7794 130.928 55.6794 131.12C55.5834 131.316 55.4494 131.472 55.2774 131.588C55.1054 131.708 54.9054 131.792 54.6774 131.84C54.4494 131.892 54.2074 131.914 53.9514 131.906C53.6834 131.898 53.4394 131.86 53.2194 131.792C53.0034 131.724 52.8154 131.622 52.6554 131.486C52.4994 131.35 52.3754 131.18 52.2834 130.976C52.1954 130.768 52.1454 130.522 52.1334 130.238H53.0814C53.0894 130.514 53.1734 130.726 53.3334 130.874C53.4974 131.018 53.7114 131.092 53.9754 131.096C54.2754 131.1 54.5014 131.054 54.6534 130.958C54.8054 130.858 54.8754 130.676 54.8634 130.412C54.8594 130.288 54.8274 130.186 54.7674 130.106C54.7074 130.026 54.6274 129.958 54.5274 129.902C54.4274 129.846 54.3114 129.798 54.1794 129.758C54.0474 129.718 53.9094 129.676 53.7654 129.632C53.5974 129.588 53.4234 129.534 53.2434 129.47C53.0674 129.406 52.9074 129.324 52.7634 129.224C52.6194 129.12 52.4994 128.992 52.4034 128.84C52.3114 128.688 52.2654 128.502 52.2654 128.282C52.2654 128.042 52.3074 127.83 52.3914 127.646C52.4794 127.462 52.5974 127.31 52.7454 127.19C52.8974 127.066 53.0774 126.972 53.2854 126.908C53.4934 126.844 53.7194 126.812 53.9634 126.812C54.2394 126.812 54.4854 126.846 54.7014 126.914C54.9174 126.982 55.0994 127.08 55.2474 127.208C55.3994 127.332 55.5154 127.484 55.5954 127.664C55.6794 127.844 55.7254 128.044 55.7334 128.264H54.7734ZM57.0315 128.744C57.0315 128.424 57.0775 128.144 57.1695 127.904C57.2655 127.664 57.3995 127.464 57.5715 127.304C57.7475 127.14 57.9575 127.018 58.2015 126.938C58.4495 126.854 58.7255 126.812 59.0295 126.812C59.3335 126.812 59.6095 126.854 59.8575 126.938C60.1055 127.018 60.3155 127.14 60.4875 127.304C60.6635 127.464 60.7995 127.664 60.8955 127.904C60.9915 128.144 61.0395 128.424 61.0395 128.744V129.992C61.0395 130.308 60.9915 130.586 60.8955 130.826C60.7995 131.066 60.6635 131.266 60.4875 131.426C60.3155 131.586 60.1055 131.706 59.8575 131.786C59.6095 131.87 59.3335 131.912 59.0295 131.912C58.7255 131.912 58.4495 131.87 58.2015 131.786C57.9575 131.706 57.7475 131.586 57.5715 131.426C57.3995 131.266 57.2655 131.066 57.1695 130.826C57.0775 130.586 57.0315 130.308 57.0315 129.992V128.744ZM57.9855 129.872C57.9855 130.312 58.0735 130.628 58.2495 130.82C58.4295 131.012 58.6895 131.108 59.0295 131.108C59.3655 131.108 59.6215 131.012 59.7975 130.82C59.9775 130.628 60.0675 130.312 60.0675 129.872V128.876C60.0675 128.432 59.9775 128.114 59.7975 127.922C59.6175 127.73 59.3615 127.634 59.0295 127.634C58.6935 127.634 58.4355 127.73 58.2555 127.922C58.0755 128.114 57.9855 128.432 57.9855 128.876V129.872ZM62.3846 128.744C62.3846 128.424 62.4306 128.144 62.5226 127.904C62.6186 127.664 62.7526 127.464 62.9246 127.304C63.1006 127.14 63.3106 127.018 63.5546 126.938C63.8026 126.854 64.0786 126.812 64.3826 126.812C64.6866 126.812 64.9626 126.854 65.2106 126.938C65.4586 127.018 65.6686 127.14 65.8406 127.304C66.0166 127.464 66.1526 127.664 66.2486 127.904C66.3446 128.144 66.3926 128.424 66.3926 128.744V129.992C66.3926 130.308 66.3446 130.586 66.2486 130.826C66.1526 131.066 66.0166 131.266 65.8406 131.426C65.6686 131.586 65.4586 131.706 65.2106 131.786C64.9626 131.87 64.6866 131.912 64.3826 131.912C64.0786 131.912 63.8026 131.87 63.5546 131.786C63.3106 131.706 63.1006 131.586 62.9246 131.426C62.7526 131.266 62.6186 131.066 62.5226 130.826C62.4306 130.586 62.3846 130.308 62.3846 129.992V128.744ZM63.3386 129.872C63.3386 130.312 63.4266 130.628 63.6026 130.82C63.7826 131.012 64.0426 131.108 64.3826 131.108C64.7186 131.108 64.9746 131.012 65.1506 130.82C65.3306 130.628 65.4206 130.312 65.4206 129.872V128.876C65.4206 128.432 65.3306 128.114 65.1506 127.922C64.9706 127.73 64.7146 127.634 64.3826 127.634C64.0466 127.634 63.7886 127.73 63.6086 127.922C63.4286 128.114 63.3386 128.432 63.3386 128.876V129.872ZM68.7397 126.968L70.4737 130.052V126.968H71.4097V131.816H70.5277L68.8057 128.738V131.816H67.8397V126.968H68.7397ZM76.5888 130.322C76.5768 130.586 76.5248 130.818 76.4328 131.018C76.3448 131.218 76.2188 131.384 76.0548 131.516C75.8948 131.648 75.7008 131.746 75.4728 131.81C75.2488 131.878 74.9968 131.912 74.7168 131.912C74.4168 131.912 74.1488 131.878 73.9128 131.81C73.6808 131.742 73.4848 131.634 73.3248 131.486C73.1688 131.338 73.0488 131.15 72.9648 130.922C72.8848 130.694 72.8448 130.42 72.8448 130.1V128.684C72.8448 128.364 72.8888 128.088 72.9768 127.856C73.0648 127.62 73.1928 127.426 73.3608 127.274C73.5288 127.118 73.7328 127.002 73.9728 126.926C74.2128 126.85 74.4848 126.812 74.7888 126.812C75.3448 126.812 75.7768 126.95 76.0848 127.226C76.3968 127.498 76.5688 127.88 76.6008 128.372H75.6468C75.6028 128.108 75.5148 127.92 75.3828 127.808C75.2508 127.692 75.0528 127.634 74.7888 127.634C74.4568 127.634 74.2068 127.73 74.0388 127.922C73.8748 128.114 73.7928 128.432 73.7928 128.876V129.932C73.7928 130.152 73.8088 130.338 73.8408 130.49C73.8768 130.638 73.9308 130.758 74.0028 130.85C74.0788 130.942 74.1748 131.008 74.2908 131.048C74.4108 131.088 74.5528 131.108 74.7168 131.108C74.9808 131.108 75.1888 131.046 75.3408 130.922C75.4928 130.798 75.5828 130.598 75.6108 130.322H76.5888ZM78.9671 126.968V128.858H80.5511V126.968H81.5171V131.816H80.5511V129.668H78.9671V131.816H78.0011V126.968H78.9671ZM84.9215 131.108C85.5295 131.108 85.8335 130.776 85.8335 130.112V126.968H86.7935V129.998C86.7935 130.666 86.6415 131.152 86.3375 131.456C86.0375 131.76 85.5655 131.912 84.9215 131.912C84.2735 131.912 83.7995 131.76 83.4995 131.456C83.1995 131.152 83.0495 130.666 83.0495 129.998V126.968H84.0155V130.112C84.0155 130.776 84.3175 131.108 84.9215 131.108ZM89.2206 126.968L90.9546 130.052V126.968H91.8906V131.816H91.0086L89.2866 128.738V131.816H88.3206V126.968H89.2206ZM94.3936 126.968V128.858H95.9776V126.968H96.9436V131.816H95.9776V129.668H94.3936V131.816H93.4276V126.968H94.3936ZM100.174 128.894L101.098 126.968H102.172L100.636 130.004V131.816H99.7121V130.004L98.1641 126.968H99.2441L100.174 128.894ZM102.306 131.816L103.908 126.968H104.874L106.476 131.816H105.54L105.246 130.922H103.53L103.242 131.816H102.306ZM104.388 128.27L103.782 130.13H104.988L104.388 128.27ZM108.658 126.968L110.392 130.052V126.968H111.328V131.816H110.446L108.724 128.738V131.816H107.758V126.968H108.658ZM115.62 129.89H114.756V129.098H116.532V130.334C116.532 130.598 116.488 130.828 116.4 131.024C116.312 131.224 116.188 131.388 116.028 131.516C115.868 131.648 115.674 131.746 115.446 131.81C115.222 131.878 114.972 131.912 114.696 131.912C114.088 131.912 113.614 131.75 113.274 131.426C112.934 131.106 112.764 130.628 112.764 129.992V128.744C112.764 128.424 112.808 128.144 112.896 127.904C112.984 127.664 113.112 127.464 113.28 127.304C113.448 127.14 113.652 127.018 113.892 126.938C114.132 126.854 114.404 126.812 114.708 126.812C115.264 126.812 115.696 126.95 116.004 127.226C116.316 127.498 116.488 127.88 116.52 128.372H115.56C115.516 128.108 115.428 127.918 115.296 127.802C115.168 127.682 114.972 127.622 114.708 127.622C114.372 127.622 114.122 127.73 113.958 127.946C113.798 128.158 113.718 128.488 113.718 128.936V129.812C113.718 130.684 114.044 131.12 114.696 131.12C114.96 131.12 115.18 131.044 115.356 130.892C115.532 130.74 115.62 130.516 115.62 130.22V129.89ZM122.455 131.108C123.063 131.108 123.367 130.776 123.367 130.112V126.968H124.327V129.998C124.327 130.666 124.175 131.152 123.871 131.456C123.571 131.76 123.099 131.912 122.455 131.912C121.807 131.912 121.333 131.76 121.033 131.456C120.733 131.152 120.583 130.666 120.583 129.998V126.968H121.549V130.112C121.549 130.776 121.851 131.108 122.455 131.108ZM126.755 126.968L128.489 130.052V126.968H129.425V131.816H128.543L126.821 128.738V131.816H125.855V126.968H126.755ZM130.848 131.816V131.048H131.274V127.736H130.848V126.968H132.666V127.736H132.228V131.048H132.666V131.816H130.848ZM135.853 130.508L136.921 126.968H137.929L136.387 131.816H135.325L133.783 126.968H134.791L135.853 130.508ZM142.244 126.968V127.784H140.138V128.972H141.998V129.794H140.138V130.988H142.31V131.816H139.172V126.968H142.244ZM146.387 131.816L145.523 129.92H144.641V131.816H143.675V126.968H145.685C145.973 126.968 146.213 127.014 146.405 127.106C146.601 127.198 146.759 127.314 146.879 127.454C146.999 127.594 147.083 127.748 147.131 127.916C147.183 128.084 147.209 128.244 147.209 128.396C147.209 128.516 147.197 128.634 147.173 128.75C147.153 128.862 147.113 128.972 147.053 129.08C146.997 129.184 146.917 129.284 146.813 129.38C146.713 129.472 146.585 129.556 146.429 129.632L147.425 131.816H146.387ZM144.641 129.104H145.349C145.477 129.104 145.595 129.096 145.703 129.08C145.811 129.06 145.903 129.026 145.979 128.978C146.059 128.926 146.121 128.858 146.165 128.774C146.209 128.686 146.231 128.574 146.231 128.438C146.231 128.302 146.209 128.192 146.165 128.108C146.121 128.024 146.059 127.958 145.979 127.91C145.903 127.862 145.811 127.83 145.703 127.814C145.595 127.794 145.477 127.784 145.349 127.784H144.641V129.104ZM151.131 128.264C151.119 128.036 151.041 127.874 150.897 127.778C150.757 127.682 150.563 127.634 150.315 127.634C150.079 127.634 149.897 127.684 149.769 127.784C149.641 127.88 149.581 128.038 149.589 128.258C149.593 128.37 149.637 128.464 149.721 128.54C149.809 128.616 149.913 128.68 150.033 128.732C150.153 128.784 150.277 128.826 150.405 128.858C150.537 128.89 150.645 128.918 150.729 128.942C150.945 129.01 151.141 129.086 151.317 129.17C151.497 129.25 151.651 129.348 151.779 129.464C151.907 129.576 152.007 129.71 152.079 129.866C152.151 130.018 152.187 130.202 152.187 130.418C152.187 130.694 152.137 130.928 152.037 131.12C151.941 131.316 151.807 131.472 151.635 131.588C151.463 131.708 151.263 131.792 151.035 131.84C150.807 131.892 150.565 131.914 150.309 131.906C150.041 131.898 149.797 131.86 149.577 131.792C149.361 131.724 149.173 131.622 149.013 131.486C148.857 131.35 148.733 131.18 148.641 130.976C148.553 130.768 148.503 130.522 148.491 130.238H149.439C149.447 130.514 149.531 130.726 149.691 130.874C149.855 131.018 150.069 131.092 150.333 131.096C150.633 131.1 150.859 131.054 151.011 130.958C151.163 130.858 151.233 130.676 151.221 130.412C151.217 130.288 151.185 130.186 151.125 130.106C151.065 130.026 150.985 129.958 150.885 129.902C150.785 129.846 150.669 129.798 150.537 129.758C150.405 129.718 150.267 129.676 150.123 129.632C149.955 129.588 149.781 129.534 149.601 129.47C149.425 129.406 149.265 129.324 149.121 129.224C148.977 129.12 148.857 128.992 148.761 128.84C148.669 128.688 148.623 128.502 148.623 128.282C148.623 128.042 148.665 127.83 148.749 127.646C148.837 127.462 148.955 127.31 149.103 127.19C149.255 127.066 149.435 126.972 149.643 126.908C149.851 126.844 150.077 126.812 150.321 126.812C150.597 126.812 150.843 126.846 151.059 126.914C151.275 126.982 151.457 127.08 151.605 127.208C151.757 127.332 151.873 127.484 151.953 127.664C152.037 127.844 152.083 128.044 152.091 128.264H151.131ZM153.377 131.816V131.048H153.803V127.736H153.377V126.968H155.195V127.736H154.757V131.048H155.195V131.816H153.377ZM157.648 127.784H156.436V126.968H159.826V127.784H158.614V131.816H157.648V127.784ZM162.995 128.894L163.919 126.968H164.993L163.457 130.004V131.816H162.533V130.004L160.985 126.968H162.065L162.995 128.894Z" fill="#88714E"/>
<path d="M231.264 125.234C231.036 125.246 230.874 125.324 230.778 125.468C230.682 125.608 230.634 125.802 230.634 126.05C230.634 126.286 230.684 126.468 230.784 126.596C230.88 126.724 231.038 126.784 231.258 126.776C231.37 126.772 231.464 126.728 231.54 126.644C231.616 126.556 231.68 126.452 231.732 126.332C231.784 126.212 231.826 126.088 231.858 125.96C231.89 125.828 231.918 125.72 231.942 125.636C232.01 125.42 232.086 125.224 232.17 125.048C232.25 124.868 232.348 124.714 232.464 124.586C232.576 124.458 232.71 124.358 232.866 124.286C233.018 124.214 233.202 124.178 233.418 124.178C233.694 124.178 233.928 124.228 234.12 124.328C234.316 124.424 234.472 124.558 234.588 124.73C234.708 124.902 234.792 125.102 234.84 125.33C234.892 125.558 234.914 125.8 234.906 126.056C234.898 126.324 234.86 126.568 234.792 126.788C234.724 127.004 234.622 127.192 234.486 127.352C234.35 127.508 234.18 127.632 233.976 127.724C233.768 127.812 233.522 127.862 233.238 127.874V126.926C233.514 126.918 233.726 126.834 233.874 126.674C234.018 126.51 234.092 126.296 234.096 126.032C234.1 125.732 234.054 125.506 233.958 125.354C233.858 125.202 233.676 125.132 233.412 125.144C233.288 125.148 233.186 125.18 233.106 125.24C233.026 125.3 232.958 125.38 232.902 125.48C232.846 125.58 232.798 125.696 232.758 125.828C232.718 125.96 232.676 126.098 232.632 126.242C232.588 126.41 232.534 126.584 232.47 126.764C232.406 126.94 232.324 127.1 232.224 127.244C232.12 127.388 231.992 127.508 231.84 127.604C231.688 127.696 231.502 127.742 231.282 127.742C231.042 127.742 230.83 127.7 230.646 127.616C230.462 127.528 230.31 127.41 230.19 127.262C230.066 127.11 229.972 126.93 229.908 126.722C229.844 126.514 229.812 126.288 229.812 126.044C229.812 125.768 229.846 125.522 229.914 125.306C229.982 125.09 230.08 124.908 230.208 124.76C230.332 124.608 230.484 124.492 230.664 124.412C230.844 124.328 231.044 124.282 231.264 124.274V125.234ZM230.784 122.878V124.09H229.968V120.7H230.784V121.912H234.816V122.878H230.784ZM234.816 121.085L229.968 119.483V118.517L234.816 116.915V117.851L233.922 118.145V119.861L234.816 120.149V121.085ZM231.27 119.003L233.13 119.609V118.403L231.27 119.003ZM234.816 113.82L232.92 114.684V115.566H234.816V116.532H229.968V114.522C229.968 114.234 230.014 113.994 230.106 113.802C230.198 113.606 230.314 113.448 230.454 113.328C230.594 113.208 230.748 113.124 230.916 113.076C231.084 113.024 231.244 112.998 231.396 112.998C231.516 112.998 231.634 113.01 231.75 113.034C231.862 113.054 231.972 113.094 232.08 113.154C232.184 113.21 232.284 113.29 232.38 113.394C232.472 113.494 232.556 113.622 232.632 113.778L234.816 112.782V113.82ZM232.104 115.566V114.858C232.104 114.73 232.096 114.612 232.08 114.504C232.06 114.396 232.026 114.304 231.978 114.228C231.926 114.148 231.858 114.086 231.774 114.042C231.686 113.998 231.574 113.976 231.438 113.976C231.302 113.976 231.192 113.998 231.108 114.042C231.024 114.086 230.958 114.148 230.91 114.228C230.862 114.304 230.83 114.396 230.814 114.504C230.794 114.612 230.784 114.73 230.784 114.858V115.566H232.104ZM230.784 111.599V112.811H229.968V109.421H230.784V110.633H234.816V111.599H230.784ZM234.816 109.07H234.048V108.644H230.736V109.07H229.968V107.252H230.736V107.69H234.048V107.252H234.816V109.07ZM229.968 105.853L233.052 104.119H229.968V103.183H234.816V104.065L231.738 105.787H234.816V106.753H229.968V105.853ZM232.89 99.7915V100.655H232.098V98.8795H233.334C233.598 98.8795 233.828 98.9235 234.024 99.0115C234.224 99.0995 234.388 99.2235 234.516 99.3835C234.648 99.5435 234.746 99.7375 234.81 99.9655C234.878 100.189 234.912 100.439 234.912 100.715C234.912 101.323 234.75 101.797 234.426 102.137C234.106 102.477 233.628 102.647 232.992 102.647H231.744C231.424 102.647 231.144 102.603 230.904 102.515C230.664 102.427 230.464 102.299 230.304 102.131C230.14 101.963 230.018 101.759 229.938 101.519C229.854 101.279 229.812 101.007 229.812 100.703C229.812 100.147 229.95 99.7155 230.226 99.4075C230.498 99.0955 230.88 98.9235 231.372 98.8915V99.8515C231.108 99.8955 230.918 99.9835 230.802 100.115C230.682 100.243 230.622 100.439 230.622 100.703C230.622 101.039 230.73 101.289 230.946 101.453C231.158 101.613 231.488 101.693 231.936 101.693H232.812C233.684 101.693 234.12 101.367 234.12 100.715C234.12 100.451 234.044 100.231 233.892 100.055C233.74 99.8795 233.516 99.7915 233.22 99.7915H232.89Z" fill="#88714E"/>
<path d="M229.968 48.4604L233.052 46.7264H229.968V45.7904H234.816V46.6724L231.738 48.3944H234.816V49.3604H229.968V48.4604ZM232.536 45.3094C232.284 45.3094 232.058 45.2654 231.858 45.1774C231.658 45.0894 231.49 44.9654 231.354 44.8054C231.214 44.6454 231.108 44.4534 231.036 44.2294C230.96 44.0014 230.922 43.7494 230.922 43.4734C230.922 43.1974 230.96 42.9474 231.036 42.7234C231.108 42.4994 231.214 42.3074 231.354 42.1474C231.49 41.9874 231.658 41.8634 231.858 41.7754C232.058 41.6874 232.284 41.6434 232.536 41.6434H233.304C233.556 41.6434 233.782 41.6874 233.982 41.7754C234.182 41.8634 234.35 41.9874 234.486 42.1474C234.622 42.3074 234.726 42.4994 234.798 42.7234C234.87 42.9474 234.906 43.1974 234.906 43.4734C234.906 43.7494 234.87 44.0014 234.798 44.2294C234.726 44.4534 234.622 44.6454 234.486 44.8054C234.35 44.9654 234.182 45.0894 233.982 45.1774C233.782 45.2654 233.556 45.3094 233.304 45.3094H232.536ZM233.238 44.3974C233.554 44.3974 233.78 44.3134 233.916 44.1454C234.052 43.9734 234.12 43.7494 234.12 43.4734C234.12 43.1934 234.052 42.9734 233.916 42.8134C233.78 42.6534 233.554 42.5734 233.238 42.5734H232.59C232.278 42.5734 232.056 42.6534 231.924 42.8134C231.788 42.9734 231.72 43.1934 231.72 43.4734C231.72 43.7494 231.788 43.9734 231.924 44.1454C232.056 44.3134 232.278 44.3974 232.59 44.3974H233.238ZM234.258 41.1149V40.0109H235.314V41.1149H234.258ZM233.154 36.3193C233.15 36.5593 233.106 36.7733 233.022 36.9613C232.938 37.1493 232.824 37.3093 232.68 37.4413C232.536 37.5693 232.366 37.6693 232.17 37.7413C231.974 37.8093 231.762 37.8433 231.534 37.8433C231.266 37.8433 231.024 37.8033 230.808 37.7233C230.592 37.6433 230.41 37.5293 230.262 37.3813C230.114 37.2293 230 37.0453 229.92 36.8293C229.84 36.6133 229.8 36.3713 229.8 36.1033C229.8 35.7593 229.854 35.4753 229.962 35.2513C230.066 35.0233 230.202 34.8433 230.37 34.7113C230.534 34.5793 230.718 34.4873 230.922 34.4353C231.122 34.3833 231.32 34.3573 231.516 34.3573C231.628 34.3573 231.74 34.3633 231.852 34.3753C231.964 34.3873 232.07 34.4053 232.17 34.4293C232.266 34.4493 232.356 34.4733 232.44 34.5013C232.52 34.5253 232.586 34.5493 232.638 34.5733L234.816 35.5573V36.5893L233.046 35.7373C233.066 35.7653 233.084 35.8033 233.1 35.8513C233.112 35.8993 233.122 35.9513 233.13 36.0073C233.138 36.0593 233.144 36.1133 233.148 36.1693C233.152 36.2253 233.154 36.2753 233.154 36.3193ZM230.622 36.0793C230.622 36.3433 230.698 36.5473 230.85 36.6913C230.998 36.8313 231.218 36.8973 231.51 36.8893C231.766 36.8813 231.97 36.8173 232.122 36.6973C232.27 36.5773 232.344 36.3913 232.344 36.1393C232.344 35.8633 232.27 35.6593 232.122 35.5273C231.97 35.3913 231.768 35.3233 231.516 35.3233C231.212 35.3233 230.988 35.3893 230.844 35.5213C230.696 35.6533 230.622 35.8393 230.622 36.0793ZM234.798 34.0139C234.698 33.9299 234.572 33.8259 234.42 33.7019C234.272 33.5779 234.112 33.4479 233.94 33.3119C233.768 33.1759 233.594 33.0399 233.418 32.9039C233.238 32.7639 233.072 32.6359 232.92 32.5199C232.768 32.4039 232.638 32.3059 232.53 32.2259C232.418 32.1459 232.342 32.0939 232.302 32.0699C232.162 31.9859 232.042 31.9199 231.942 31.8719C231.838 31.8199 231.746 31.7819 231.666 31.7579C231.586 31.7299 231.514 31.7119 231.45 31.7039C231.382 31.6919 231.312 31.6859 231.24 31.6859C231.06 31.6819 230.916 31.7299 230.808 31.8299C230.7 31.9259 230.646 32.0879 230.646 32.3159C230.646 32.4439 230.664 32.5499 230.7 32.6339C230.736 32.7179 230.784 32.7859 230.844 32.8379C230.904 32.8859 230.972 32.9219 231.048 32.9459C231.124 32.9659 231.202 32.9779 231.282 32.9819V33.9299C231.01 33.9099 230.78 33.8519 230.592 33.7559C230.404 33.6599 230.252 33.5399 230.136 33.3959C230.016 33.2479 229.93 33.0819 229.878 32.8979C229.826 32.7139 229.8 32.5219 229.8 32.3219C229.8 31.7939 229.926 31.3939 230.178 31.1219C230.426 30.8499 230.778 30.7139 231.234 30.7139C231.35 30.7139 231.46 30.7239 231.564 30.7439C231.668 30.7599 231.772 30.7859 231.876 30.8219C231.98 30.8579 232.088 30.9059 232.2 30.9659C232.308 31.0219 232.428 31.0919 232.56 31.1759C232.612 31.2119 232.696 31.2679 232.812 31.3439C232.924 31.4159 233.05 31.5019 233.19 31.6019C233.326 31.6979 233.47 31.8019 233.622 31.9139C233.77 32.0219 233.906 32.1259 234.03 32.2259V30.6059H234.816V34.0079L234.798 34.0139ZM231.684 30.2261C231.044 30.2261 230.572 30.0701 230.268 29.7581C229.964 29.4421 229.812 28.9801 229.812 28.3721C229.812 27.7681 229.964 27.3081 230.268 26.9921C230.572 26.6761 231.044 26.5181 231.684 26.5181H233.052C233.688 26.5181 234.156 26.6761 234.456 26.9921C234.76 27.3041 234.912 27.7641 234.912 28.3721C234.912 28.9801 234.76 29.4421 234.456 29.7581C234.156 30.0701 233.688 30.2261 233.052 30.2261H231.684ZM232.962 29.2721C233.182 29.2721 233.366 29.2541 233.514 29.2181C233.658 29.1821 233.774 29.1261 233.862 29.0501C233.95 28.9741 234.012 28.8801 234.048 28.7681C234.088 28.6561 234.108 28.5241 234.108 28.3721C234.108 28.2201 234.088 28.0881 234.048 27.9761C234.012 27.8641 233.95 27.7721 233.862 27.7001C233.774 27.6281 233.658 27.5741 233.514 27.5381C233.366 27.5021 233.182 27.4841 232.962 27.4841H231.786C231.566 27.4841 231.382 27.5021 231.234 27.5381C231.086 27.5741 230.968 27.6281 230.88 27.7001C230.788 27.7721 230.724 27.8641 230.688 27.9761C230.652 28.0881 230.634 28.2201 230.634 28.3721C230.634 28.5241 230.652 28.6561 230.688 28.7681C230.724 28.8801 230.788 28.9741 230.88 29.0501C230.968 29.1261 231.086 29.1821 231.234 29.2181C231.382 29.2541 231.566 29.2721 231.786 29.2721H232.962ZM231.09 26.0352C230.894 26.0152 230.718 25.9612 230.562 25.8732C230.402 25.7852 230.266 25.6712 230.154 25.5312C230.042 25.3912 229.956 25.2312 229.896 25.0512C229.832 24.8712 229.8 24.6792 229.8 24.4752C229.8 24.2352 229.832 24.0172 229.896 23.8212C229.96 23.6212 230.054 23.4492 230.178 23.3052C230.302 23.1612 230.454 23.0512 230.634 22.9752C230.81 22.8952 231.014 22.8552 231.246 22.8552C231.47 22.8552 231.66 22.9012 231.816 22.9932C231.972 23.0812 232.116 23.2012 232.248 23.3532C232.384 23.1452 232.544 22.9772 232.728 22.8492C232.908 22.7212 233.13 22.6592 233.394 22.6632C233.634 22.6632 233.848 22.7092 234.036 22.8012C234.224 22.8892 234.382 23.0152 234.51 23.1792C234.642 23.3392 234.74 23.5312 234.804 23.7552C234.872 23.9752 234.906 24.2192 234.906 24.4872C234.906 24.7152 234.876 24.9292 234.816 25.1292C234.76 25.3292 234.674 25.5072 234.558 25.6632C234.446 25.8152 234.302 25.9392 234.126 26.0352C233.954 26.1312 233.75 26.1892 233.514 26.2092V25.2612C233.734 25.2172 233.886 25.1272 233.97 24.9912C234.054 24.8552 234.096 24.6792 234.096 24.4632C234.096 24.1992 234.038 23.9952 233.922 23.8512C233.802 23.7072 233.624 23.6352 233.388 23.6352C233.148 23.6352 232.97 23.7152 232.854 23.8752C232.738 24.0312 232.68 24.2412 232.68 24.5052V25.0632H231.9V24.5052C231.9 24.2812 231.844 24.1112 231.732 23.9952C231.62 23.8752 231.458 23.8152 231.246 23.8152C231.022 23.8152 230.864 23.8672 230.772 23.9712C230.676 24.0752 230.626 24.2392 230.622 24.4632C230.618 24.6352 230.66 24.7752 230.748 24.8832C230.832 24.9912 230.946 25.0572 231.09 25.0812V26.0352ZM234.798 22.3772C234.698 22.2932 234.572 22.1892 234.42 22.0652C234.272 21.9412 234.112 21.8112 233.94 21.6752C233.768 21.5392 233.594 21.4032 233.418 21.2672C233.238 21.1272 233.072 20.9992 232.92 20.8832C232.768 20.7672 232.638 20.6692 232.53 20.5892C232.418 20.5092 232.342 20.4572 232.302 20.4332C232.162 20.3492 232.042 20.2832 231.942 20.2352C231.838 20.1832 231.746 20.1452 231.666 20.1212C231.586 20.0932 231.514 20.0752 231.45 20.0672C231.382 20.0552 231.312 20.0492 231.24 20.0492C231.06 20.0452 230.916 20.0932 230.808 20.1932C230.7 20.2892 230.646 20.4512 230.646 20.6792C230.646 20.8072 230.664 20.9132 230.7 20.9972C230.736 21.0812 230.784 21.1492 230.844 21.2012C230.904 21.2492 230.972 21.2852 231.048 21.3092C231.124 21.3292 231.202 21.3412 231.282 21.3452V22.2932C231.01 22.2732 230.78 22.2152 230.592 22.1192C230.404 22.0232 230.252 21.9032 230.136 21.7592C230.016 21.6112 229.93 21.4452 229.878 21.2612C229.826 21.0772 229.8 20.8852 229.8 20.6852C229.8 20.1572 229.926 19.7572 230.178 19.4852C230.426 19.2132 230.778 19.0772 231.234 19.0772C231.35 19.0772 231.46 19.0872 231.564 19.1072C231.668 19.1232 231.772 19.1492 231.876 19.1852C231.98 19.2212 232.088 19.2692 232.2 19.3292C232.308 19.3852 232.428 19.4552 232.56 19.5392C232.612 19.5752 232.696 19.6312 232.812 19.7072C232.924 19.7792 233.05 19.8652 233.19 19.9652C233.326 20.0612 233.47 20.1652 233.622 20.2772C233.77 20.3852 233.906 20.4892 234.03 20.5892V18.9692H234.816V22.3712L234.798 22.3772ZM234.798 18.7034C234.698 18.6194 234.572 18.5154 234.42 18.3914C234.272 18.2674 234.112 18.1374 233.94 18.0014C233.768 17.8654 233.594 17.7294 233.418 17.5934C233.238 17.4534 233.072 17.3254 232.92 17.2094C232.768 17.0934 232.638 16.9954 232.53 16.9154C232.418 16.8354 232.342 16.7834 232.302 16.7594C232.162 16.6754 232.042 16.6094 231.942 16.5614C231.838 16.5094 231.746 16.4714 231.666 16.4474C231.586 16.4194 231.514 16.4014 231.45 16.3934C231.382 16.3814 231.312 16.3754 231.24 16.3754C231.06 16.3714 230.916 16.4194 230.808 16.5194C230.7 16.6154 230.646 16.7774 230.646 17.0054C230.646 17.1334 230.664 17.2394 230.7 17.3234C230.736 17.4074 230.784 17.4754 230.844 17.5274C230.904 17.5754 230.972 17.6114 231.048 17.6354C231.124 17.6554 231.202 17.6674 231.282 17.6714V18.6194C231.01 18.5994 230.78 18.5414 230.592 18.4454C230.404 18.3494 230.252 18.2294 230.136 18.0854C230.016 17.9374 229.93 17.7714 229.878 17.5874C229.826 17.4034 229.8 17.2114 229.8 17.0114C229.8 16.4834 229.926 16.0834 230.178 15.8114C230.426 15.5394 230.778 15.4034 231.234 15.4034C231.35 15.4034 231.46 15.4134 231.564 15.4334C231.668 15.4494 231.772 15.4754 231.876 15.5114C231.98 15.5474 232.088 15.5954 232.2 15.6554C232.308 15.7114 232.428 15.7814 232.56 15.8654C232.612 15.9014 232.696 15.9574 232.812 16.0334C232.924 16.1054 233.05 16.1914 233.19 16.2914C233.326 16.3874 233.47 16.4914 233.622 16.6034C233.77 16.7114 233.906 16.8154 234.03 16.9154V15.2954H234.816V18.6974L234.798 18.7034ZM234.816 14.0155H231.108L231.426 14.8375H230.532L229.848 13.0855H234.816V14.0155Z" fill="#88714E"/>
<line x1="238" y1="12.5" x2="268" y2="12.5" stroke="#88714E"/>
<line x1="238" y1="122.959" x2="268" y2="122.959" stroke="#88714E"/>
<line x1="238" y1="124.208" x2="268" y2="124.208" stroke="#88714E" stroke-width="0.5"/>
<line x1="238" y1="80.9918" x2="268" y2="80.9918" stroke="#88714E"/>
<line x1="238" y1="82.241" x2="268" y2="82.241" stroke="#88714E" stroke-width="0.5"/>
<line x1="238" y1="20.4939" x2="268" y2="20.4939" stroke="#88714E"/>
<line x1="238" y1="21.7431" x2="268" y2="21.7431" stroke="#88714E" stroke-width="0.5"/>
<line x1="238" y1="39.0248" x2="268" y2="39.0248" stroke="#88714E"/>
<line x1="238" y1="46.0193" x2="268" y2="46.0193" stroke="#88714E"/>
<line x1="238" y1="75.9957" x2="268" y2="75.9957" stroke="#88714E"/>
<line x1="238" y1="77.9942" x2="268" y2="77.9942" stroke="#88714E"/>
<line x1="238" y1="55.0122" x2="268" y2="55.0122" stroke="#88714E"/>
<line x1="238" y1="57.0107" x2="268" y2="57.0107" stroke="#88714E"/>
<line x1="238" y1="114.42" x2="268" y2="114.42" stroke="#88714E"/>
<line x1="238" y1="116.419" x2="268" y2="116.419" stroke="#88714E"/>
<line x1="238" y1="126.751" x2="268" y2="126.751" stroke="#88714E" stroke-width="2.5"/>
<line x1="238" y1="82.9902" x2="268" y2="82.9902" stroke="#88714E"/>
<line x1="238" y1="84.2395" x2="268" y2="84.2395" stroke="#88714E" stroke-width="0.5"/>
<line x1="238" y1="86.7821" x2="268" y2="86.7821" stroke="#88714E" stroke-width="2.5"/>
<line x1="238" y1="97.2285" x2="268" y2="97.2285" stroke="#88714E" stroke-width="2.5"/>
<line x1="238" y1="32.2795" x2="268" y2="32.2795" stroke="#88714E" stroke-width="2.5"/>
<line x1="238" y1="59.0091" x2="268" y2="59.0091" stroke="#88714E"/>
<line x1="238" y1="60.2583" x2="268" y2="60.2583" stroke="#88714E" stroke-width="0.5"/>
<line x1="238" y1="62.8009" x2="268" y2="62.8009" stroke="#88714E" stroke-width="2.5"/>
<line x1="238" y1="25.7392" x2="268" y2="25.7392" stroke="#88714E" stroke-width="2.5"/>
<line x1="238" y1="66.2536" x2="268" y2="66.2536" stroke="#88714E" stroke-width="0.5"/>
<line x1="238" y1="69.2505" x2="268" y2="69.2505" stroke="#88714E" stroke-width="2.5"/>
<line x1="238" y1="111.877" x2="268" y2="111.877" stroke="#88714E"/>
<line x1="238" y1="118.962" x2="268" y2="118.962" stroke="#88714E"/>
<line x1="238" y1="35.5729" x2="268" y2="35.5729" stroke="#88714E"/>
<line x1="238" y1="37.5714" x2="268" y2="37.5714" stroke="#88714E"/>
<line x1="238" y1="44.2709" x2="268" y2="44.2709" stroke="#88714E" stroke-width="0.5"/>
<line x1="238" y1="42.5674" x2="268" y2="42.5674" stroke="#88714E"/>
<line x1="238" y1="103.225" x2="268" y2="103.225" stroke="#88714E" stroke-width="0.5"/>
<line x1="238" y1="41.2732" x2="268" y2="41.2732" stroke="#88714E" stroke-width="0.5"/>
<line x1="238" y1="99.2277" x2="268" y2="99.2277" stroke="#88714E" stroke-width="0.5"/>
<line x1="238" y1="102.225" x2="268" y2="102.225" stroke="#88714E" stroke-width="0.5"/>
<line x1="238" y1="34.2787" x2="268" y2="34.2787" stroke="#88714E" stroke-width="0.5"/>
<line x1="238" y1="90.5298" x2="268" y2="90.5298" stroke="#88714E"/>
<line x1="238" y1="89.2355" x2="268" y2="89.2355" stroke="#88714E" stroke-width="0.5"/>
<line x1="238" y1="93.2324" x2="268" y2="93.2324" stroke="#88714E" stroke-width="0.5"/>
<line x1="238" y1="94.2316" x2="268" y2="94.2316" stroke="#88714E" stroke-width="0.5"/>
<line x1="238" y1="95.2308" x2="268" y2="95.2308" stroke="#88714E" stroke-width="0.5"/>
<line x1="238" y1="29.0326" x2="268" y2="29.0326" stroke="#88714E"/>
<line x1="238" y1="27.7384" x2="268" y2="27.7384" stroke="#88714E" stroke-width="0.5"/>
<line x1="238" y1="17.0421" x2="268" y2="17.0421" stroke="#88714E"/>
<line x1="238" y1="19.0405" x2="268" y2="19.0405" stroke="#88714E"/>
<line x1="238" y1="65.2544" x2="268" y2="65.2544" stroke="#88714E" stroke-width="0.5"/>
<line x1="238" y1="72.5439" x2="268" y2="72.5439" stroke="#88714E"/>
<line x1="238" y1="74.5423" x2="268" y2="74.5423" stroke="#88714E"/>
<line x1="238" y1="71.2497" x2="268" y2="71.2497" stroke="#88714E" stroke-width="0.5"/>
<line x1="238" y1="49.2669" x2="268" y2="49.2669" stroke="#88714E" stroke-width="0.5"/>
<line x1="238" y1="50.2662" x2="268" y2="50.2662" stroke="#88714E" stroke-width="0.5"/>
<line x1="238" y1="51.2654" x2="268" y2="51.2654" stroke="#88714E" stroke-width="0.5"/>
<line x1="238" y1="53.2638" x2="268" y2="53.2638" stroke="#88714E" stroke-width="0.5"/>
<line x1="238" y1="109.673" x2="268" y2="109.673" stroke="#88714E" stroke-width="2.5"/>
<line x1="238" y1="14.0444" x2="268" y2="14.0444" stroke="#88714E"/>
<line x1="238" y1="15.2936" x2="268" y2="15.2936" stroke="#88714E" stroke-width="0.5"/>
<line x1="238" y1="106.221" x2="268" y2="106.221" stroke="#88714E" stroke-width="2.5"/>
</svg>
